<?xml version="1.0" encoding="UTF-8" ?>
<!DOCTYPE svg PUBLIC "-//W3C//DTD SVG 1.1//EN" "http://www.w3.org/Graphics/SVG/1.1/DTD/svg11.dtd">
<svg width="982pt" height="300pt" viewBox="0 0 982 300" version="1.1" xmlns="http://www.w3.org/2000/svg">
<g id="#dc524aff">
<path fill="#dc524a" opacity="1.00" d=" M 829.62 0.00 L 837.68 0.00 C 853.39 0.82 869.00 3.79 883.80 9.20 C 883.85 17.23 883.77 25.26 883.85 33.29 C 883.79 37.24 883.81 41.20 883.86 45.15 C 848.68 45.12 813.50 45.13 778.33 45.14 C 775.73 78.17 773.14 111.20 770.55 144.24 C 775.39 147.13 780.25 150.00 785.12 152.87 C 801.13 149.73 817.70 146.86 833.96 149.91 C 843.06 151.53 852.36 155.39 858.03 163.01 C 863.97 170.93 865.06 181.39 864.07 190.98 C 863.23 199.84 859.37 208.68 852.28 214.30 C 843.00 221.79 830.58 223.67 818.99 223.66 C 800.79 223.30 782.47 219.06 766.40 210.38 C 766.39 220.21 766.34 230.03 766.44 239.86 C 766.59 254.05 766.46 268.25 766.51 282.44 C 740.35 269.52 718.20 248.66 703.71 223.34 C 685.95 192.75 679.79 155.72 686.51 121.00 C 692.63 88.31 710.26 58.01 735.44 36.32 C 761.36 13.74 795.27 0.74 829.62 0.00 Z" />
</g>
<g id="#25a162ff">
<path fill="#25a162" opacity="1.00" d=" M 883.96 9.27 C 909.47 18.30 932.20 34.81 949.13 55.88 C 969.04 80.46 980.43 111.50 982.00 143.04 L 982.00 151.48 C 981.50 178.25 973.83 204.87 959.63 227.59 C 941.30 257.26 912.27 280.15 879.06 290.84 C 842.35 302.90 801.02 299.81 766.51 282.44 C 766.46 268.25 766.59 254.05 766.44 239.86 C 782.05 248.61 800.38 250.58 817.97 250.87 C 836.95 251.10 856.96 247.99 872.70 236.67 C 885.70 227.45 894.28 212.74 896.76 197.07 C 899.43 180.55 898.31 162.42 888.99 148.03 C 880.39 134.59 865.61 125.91 850.08 123.11 C 834.34 120.04 818.13 121.38 802.50 124.40 C 804.00 107.64 805.54 90.89 807.08 74.14 C 832.67 74.12 858.26 74.15 883.85 74.12 C 883.87 64.47 883.86 54.81 883.86 45.15 C 883.81 41.20 883.79 37.24 883.85 33.29 C 884.09 25.29 883.91 17.28 883.96 9.27 Z" />
</g>
<g id="#757575ff">
<path fill="#757575" opacity="1.00" d=" M 496.40 43.47 C 499.47 41.95 503.64 42.33 506.04 44.92 C 508.59 47.61 509.34 51.46 509.44 55.05 C 509.54 58.99 508.97 63.23 506.44 66.42 C 503.51 70.43 496.49 70.33 493.85 66.05 C 491.45 62.22 491.45 57.43 491.70 53.07 C 491.99 49.50 492.99 45.32 496.40 43.47 Z" />
<path fill="#757575" opacity="1.00" d=" M 54.30 45.74 C 59.01 45.73 63.73 45.73 68.45 45.75 C 68.47 111.82 68.45 177.90 68.46 243.98 C 68.51 251.63 68.31 259.35 66.59 266.84 C 64.55 276.19 59.91 285.33 52.13 291.17 C 43.52 297.81 32.34 299.80 21.71 300.00 L 18.80 300.00 C 12.40 299.68 5.91 298.85 0.00 296.27 L 0.00 284.00 C 8.82 286.24 18.03 287.43 27.11 286.41 C 34.48 285.57 41.95 282.57 46.70 276.67 C 52.79 269.25 54.25 259.24 54.29 249.93 C 54.31 181.87 54.28 113.81 54.30 45.74 Z" />
<path fill="#757575" opacity="1.00" d=" M 122.48 176.01 C 122.48 132.58 122.46 89.16 122.49 45.74 C 127.25 45.74 132.01 45.73 136.77 45.74 C 136.80 89.81 136.72 133.88 136.81 177.95 C 136.78 194.61 141.57 212.27 154.17 223.88 C 167.59 236.65 187.15 239.90 205.01 238.82 C 220.17 238.06 235.79 232.68 245.95 220.95 C 256.39 209.35 260.01 193.26 259.94 178.01 C 259.97 133.92 259.93 89.83 259.96 45.74 C 264.67 45.73 269.39 45.73 274.10 45.74 C 274.11 89.82 274.13 133.90 274.09 177.98 C 274.09 195.90 269.38 214.57 257.24 228.20 C 245.93 241.36 229.08 248.62 212.09 250.62 C 194.58 252.64 176.11 251.62 159.92 244.12 C 147.42 238.40 136.99 228.35 130.84 216.06 C 124.57 203.73 122.43 189.72 122.48 176.01 Z" />
<path fill="#757575" opacity="1.00" d=" M 565.43 61.34 C 567.79 61.33 570.15 61.33 572.52 61.34 C 572.53 73.49 572.51 85.65 572.53 97.80 C 587.29 97.81 602.05 97.79 616.81 97.81 C 616.82 101.80 616.82 105.80 616.81 109.80 C 602.05 109.81 587.29 109.79 572.53 109.81 C 572.52 141.86 572.51 173.92 572.54 205.98 C 572.70 214.62 573.56 223.93 578.78 231.15 C 582.91 236.87 590.19 239.29 597.01 239.29 C 604.91 239.37 612.83 238.73 620.57 237.11 C 620.57 240.81 620.58 244.51 620.56 248.20 C 609.03 251.69 596.56 252.60 584.73 250.18 C 576.86 248.47 569.34 244.01 565.13 236.99 C 559.69 228.06 558.59 217.30 558.51 207.05 C 558.48 174.64 558.51 142.22 558.49 109.81 C 551.04 109.79 543.59 109.81 536.15 109.80 C 536.14 107.11 536.14 104.41 536.15 101.72 C 543.59 99.62 551.05 97.56 558.50 95.46 C 560.81 84.09 563.13 72.72 565.43 61.34 Z" />
<path fill="#757575" opacity="1.00" d=" M 350.00 107.94 C 362.63 97.25 379.94 94.53 395.99 94.99 C 409.05 95.28 422.98 98.97 432.00 108.99 C 441.78 119.75 444.45 134.91 444.59 149.00 C 444.68 182.24 444.60 215.48 444.63 248.73 C 440.09 248.74 435.56 248.73 431.03 248.73 C 431.00 215.83 431.06 182.92 431.00 150.02 C 430.81 139.15 429.37 127.37 422.19 118.72 C 415.60 110.78 404.93 107.88 395.00 107.50 C 382.50 107.13 369.27 108.63 358.56 115.60 C 351.10 120.33 346.11 128.13 343.47 136.44 C 340.24 146.26 339.52 156.69 339.52 166.96 C 339.51 194.21 339.51 221.47 339.51 248.72 C 334.93 248.74 330.35 248.73 325.78 248.73 C 325.76 198.42 325.77 148.11 325.77 97.81 C 329.65 97.80 333.53 97.80 337.42 97.80 C 338.41 104.85 339.08 111.94 340.24 118.97 C 343.39 115.20 346.09 111.01 350.00 107.94 Z" />
<path fill="#757575" opacity="1.00" d=" M 493.52 97.81 C 498.10 97.80 502.67 97.80 507.25 97.81 C 507.26 148.11 507.26 198.42 507.25 248.73 C 502.67 248.73 498.10 248.73 493.52 248.73 C 493.51 198.42 493.51 148.12 493.52 97.81 Z" />
</g>
<g id="#ffffffff">
<path fill="#ffffff" opacity="1.00" d=" M 778.33 45.14 C 813.50 45.13 848.68 45.12 883.86 45.15 C 883.86 54.81 883.87 64.47 883.85 74.12 C 858.26 74.15 832.67 74.12 807.08 74.14 C 805.54 90.89 804.00 107.64 802.50 124.40 C 818.13 121.38 834.34 120.04 850.08 123.11 C 865.61 125.91 880.39 134.59 888.99 148.03 C 898.31 162.42 899.43 180.55 896.76 197.07 C 894.28 212.74 885.70 227.45 872.70 236.67 C 856.96 247.99 836.95 251.10 817.97 250.87 C 800.38 250.58 782.05 248.61 766.44 239.86 C 766.34 230.03 766.39 220.21 766.40 210.38 C 782.47 219.06 800.79 223.30 818.99 223.66 C 830.58 223.67 843.00 221.79 852.28 214.30 C 859.37 208.68 863.23 199.84 864.07 190.98 C 865.06 181.39 863.97 170.93 858.03 163.01 C 852.36 155.39 843.06 151.53 833.96 149.91 C 817.70 146.86 801.13 149.73 785.12 152.87 C 780.25 150.00 775.39 147.13 770.55 144.24 C 773.14 111.20 775.73 78.17 778.33 45.14 Z" />
</g>
</svg>
