<?xml version="1.0" encoding="UTF-8" ?>
<!DOCTYPE svg PUBLIC "-//W3C//DTD SVG 1.1//EN" "http://www.w3.org/Graphics/SVG/1.1/DTD/svg11.dtd">
<svg width="800pt" height="400pt" viewBox="0 0 800 400" version="1.1" xmlns="http://www.w3.org/2000/svg">
<g id="#668a3bfc">
<path fill="#668a3b" opacity="1.00" d=" M 635.27 52.40 C 638.34 52.37 640.98 50.63 643.92 49.96 C 643.48 52.68 642.75 55.35 642.43 58.08 C 642.66 58.30 643.11 58.74 643.33 58.96 C 642.51 60.81 641.94 62.78 642.32 64.82 C 641.64 65.85 640.97 66.87 640.29 67.90 C 640.43 68.35 640.73 69.27 640.87 69.73 C 639.80 70.86 638.77 72.14 639.24 73.80 C 638.35 74.51 637.47 75.22 636.59 75.94 C 637.14 77.80 635.88 79.53 634.05 79.89 C 627.76 81.40 619.74 85.19 614.28 79.91 C 618.16 79.44 622.07 79.65 625.97 79.48 C 629.17 79.34 631.73 77.17 634.03 75.17 C 629.06 77.39 623.56 80.00 618.04 78.11 C 617.27 75.96 620.43 75.23 622.00 74.90 C 627.14 74.27 631.86 71.95 636.15 69.13 C 633.00 70.00 630.20 71.86 627.01 72.55 C 625.47 72.33 624.00 71.92 622.52 71.54 C 618.92 75.61 614.84 79.19 610.80 82.80 C 610.63 81.63 610.47 80.46 610.31 79.29 C 609.53 79.28 608.75 79.27 607.98 79.27 C 605.94 75.12 609.56 71.20 608.08 67.06 C 607.20 67.84 606.33 68.63 605.48 69.43 C 604.90 69.42 603.74 69.40 603.16 69.39 C 603.42 67.81 604.13 66.51 605.74 66.03 C 607.47 64.32 608.68 61.94 611.08 61.02 C 613.72 59.81 616.29 58.44 618.42 56.44 C 618.75 56.73 619.40 57.31 619.73 57.60 C 621.15 56.44 622.64 55.34 624.19 54.34 C 626.38 54.78 628.27 53.67 630.12 52.64 C 631.61 54.59 633.45 52.41 635.27 52.40 Z" />
</g>
<g id="#15181dfd">
<path fill="#15181d" opacity="1.00" d=" M 692.23 61.32 C 694.76 61.36 697.19 62.13 699.59 62.87 C 698.73 65.32 698.19 67.87 697.76 70.42 C 697.56 71.46 697.19 72.46 696.70 73.39 C 694.21 77.78 692.73 82.68 691.96 87.65 L 691.39 87.98 C 691.20 88.45 690.81 89.39 690.62 89.86 L 690.99 91.67 C 689.64 91.52 688.29 91.33 686.96 91.12 L 685.92 90.93 C 686.96 87.31 688.28 83.77 689.41 80.18 C 690.20 77.77 689.39 75.20 689.91 72.75 C 690.83 71.55 692.36 71.05 693.61 70.26 C 693.15 69.75 692.22 68.73 691.75 68.22 C 692.00 66.21 692.17 64.18 692.21 62.15 L 692.23 61.32 Z" />
<path fill="#15181d" opacity="1.00" d=" M 587.18 119.96 C 588.58 119.20 589.97 118.41 591.38 117.64 L 592.34 117.54 C 592.75 118.68 593.12 119.84 593.50 120.99 C 591.49 123.20 590.93 126.11 590.84 129.00 C 590.63 131.49 590.35 133.98 590.13 136.47 C 589.77 134.86 589.38 133.27 589.09 131.66 C 589.72 127.13 590.52 122.63 591.32 118.13 C 590.29 118.58 588.21 119.50 587.18 119.96 Z" />
</g>
<g id="#262c3efb">
<path fill="#262c3e" opacity="1.00" d=" M 682.88 87.92 C 685.88 79.30 688.80 70.62 692.21 62.15 C 692.17 64.18 692.00 66.21 691.75 68.22 C 692.22 68.73 693.15 69.75 693.61 70.26 C 692.36 71.05 690.83 71.55 689.91 72.75 C 689.39 75.20 690.20 77.77 689.41 80.18 C 688.28 83.77 686.96 87.31 685.92 90.93 C 684.68 90.77 683.44 90.61 682.21 90.47 C 682.38 89.83 682.71 88.56 682.88 87.92 Z" />
</g>
<g id="#475062ff">
<path fill="#475062" opacity="1.00" d=" M 699.59 62.87 C 700.06 65.55 698.76 68.03 697.76 70.42 C 698.19 67.87 698.73 65.32 699.59 62.87 Z" />
<path fill="#475062" opacity="1.00" d=" M 692.66 126.19 C 693.79 123.58 695.00 121.01 696.27 118.46 C 697.04 122.91 697.08 127.62 699.15 131.73 C 698.38 133.30 697.52 134.82 696.68 136.35 C 696.22 134.83 695.80 133.31 695.39 131.78 C 694.42 132.66 693.48 133.56 692.45 134.33 C 691.56 133.97 690.67 133.63 689.86 133.16 C 690.96 130.91 691.99 128.62 692.66 126.19 Z" />
</g>
<g id="#507b38fd">
<path fill="#507b38" opacity="1.00" d=" M 605.48 69.43 C 606.33 68.63 607.20 67.84 608.08 67.06 C 609.56 71.20 605.94 75.12 607.98 79.27 C 608.75 79.27 609.53 79.28 610.31 79.29 C 610.47 80.46 610.63 81.63 610.80 82.80 C 610.49 83.08 609.86 83.65 609.55 83.94 C 606.01 81.64 605.52 76.90 602.05 74.50 C 602.17 72.78 602.41 71.07 602.74 69.38 L 603.16 69.39 C 603.74 69.40 604.90 69.42 605.48 69.43 Z" />
</g>
<g id="#3c5929fa">
<path fill="#3c5929" opacity="0.98" d=" M 627.01 72.55 C 630.20 71.86 633.00 70.00 636.15 69.13 C 631.86 71.95 627.14 74.27 622.00 74.90 C 620.43 75.23 617.27 75.96 618.04 78.11 C 623.56 80.00 629.06 77.39 634.03 75.17 C 631.73 77.17 629.17 79.34 625.97 79.48 C 622.07 79.65 618.16 79.44 614.28 79.91 C 619.74 85.19 627.76 81.40 634.05 79.89 C 633.83 80.48 633.40 81.65 633.18 82.24 C 631.03 83.54 628.93 84.93 626.90 86.42 C 641.02 86.33 655.19 86.77 669.19 88.68 C 667.20 88.67 665.21 88.78 663.24 88.85 C 654.67 88.50 646.13 87.45 637.55 87.69 C 630.29 87.27 623.01 87.53 615.83 88.67 C 613.51 87.04 610.70 86.66 607.94 87.07 C 609.86 89.48 612.54 91.01 615.24 92.39 C 614.73 92.41 613.69 92.45 613.18 92.46 C 610.06 92.60 606.96 92.33 603.93 91.62 C 602.36 90.99 601.55 92.73 600.62 93.61 C 600.49 95.29 600.29 97.01 600.63 98.68 C 602.26 99.80 604.15 100.45 605.96 101.23 C 605.80 101.61 605.46 102.37 605.29 102.74 C 604.43 104.69 603.59 106.64 602.82 108.63 C 602.46 106.76 602.02 104.90 601.60 103.06 C 597.97 100.84 598.43 95.76 598.61 92.06 C 598.11 92.61 597.62 93.16 597.14 93.71 C 596.32 94.09 595.51 94.46 594.70 94.83 C 593.28 94.44 591.86 94.06 590.45 93.67 C 591.42 92.81 592.39 91.94 593.38 91.08 C 591.93 90.57 590.48 90.07 589.06 89.53 L 588.01 89.07 C 590.18 88.92 592.36 88.83 594.55 88.86 C 596.16 88.93 597.78 89.03 599.41 89.09 C 598.18 87.92 596.79 86.95 595.36 86.07 C 595.40 85.26 595.45 84.46 595.51 83.66 C 596.63 83.35 597.75 83.05 598.88 82.74 C 599.78 83.91 600.70 85.07 601.61 86.23 C 601.28 83.44 601.89 80.72 603.31 78.31 C 603.09 77.67 602.64 76.40 602.42 75.76 L 602.05 74.50 C 605.52 76.90 606.01 81.64 609.55 83.94 C 609.86 83.65 610.49 83.08 610.80 82.80 C 614.84 79.19 618.92 75.61 622.52 71.54 C 624.00 71.92 625.47 72.33 627.01 72.55 Z" />
</g>
<g id="#5c8139fc">
<path fill="#5c8139" opacity="1.00" d=" M 586.21 71.27 C 589.86 71.71 593.76 70.76 597.20 72.43 C 597.66 72.40 598.57 72.35 599.02 72.32 C 600.16 73.45 601.38 74.52 602.42 75.76 C 602.64 76.40 603.09 77.67 603.31 78.31 C 601.89 80.72 601.28 83.44 601.61 86.23 C 600.70 85.07 599.78 83.91 598.88 82.74 C 597.27 80.40 595.10 78.57 592.68 77.13 C 591.32 78.28 589.93 79.41 588.57 80.55 C 586.68 77.84 587.33 74.30 586.21 71.27 Z" />
</g>
<g id="#15181dfe">
<path fill="#15181d" opacity="1.00" d=" M 718.78 74.12 C 719.17 73.16 719.57 72.21 719.97 71.26 C 722.82 71.28 725.52 72.32 727.69 74.18 L 727.35 74.57 C 724.75 77.06 723.27 80.38 722.67 83.89 C 720.86 88.97 717.70 93.48 716.16 98.68 C 714.64 98.05 713.07 97.57 711.52 97.08 C 712.83 92.09 716.64 87.94 716.87 82.68 C 716.86 79.91 719.96 78.80 721.73 77.17 C 720.74 76.15 719.76 75.13 718.78 74.12 Z" />
</g>
<g id="#474f5fff">
<path fill="#474f5f" opacity="1.00" d=" M 691.96 87.65 C 692.73 82.68 694.21 77.78 696.70 73.39 C 695.34 78.21 693.63 82.93 691.96 87.65 Z" />
<path fill="#474f5f" opacity="1.00" d=" M 669.60 125.62 C 671.63 120.35 672.96 114.84 675.11 109.61 C 675.10 111.16 675.12 112.72 675.19 114.28 C 675.13 118.62 676.01 122.93 678.30 126.67 C 678.26 126.96 678.18 127.55 678.14 127.84 C 677.30 129.72 676.43 131.58 675.73 133.51 C 675.60 131.19 674.92 128.98 673.84 126.95 C 673.09 128.66 672.37 130.38 671.66 132.11 C 670.94 129.96 670.27 127.79 669.60 125.62 Z" />
</g>
<g id="#2c3342fc">
<path fill="#2c3342" opacity="1.00" d=" M 711.84 87.68 C 713.95 83.06 716.24 78.51 718.78 74.12 C 719.76 75.13 720.74 76.15 721.73 77.17 C 719.96 78.80 716.86 79.91 716.87 82.68 C 716.64 87.94 712.83 92.09 711.52 97.08 C 710.39 96.53 709.26 95.99 708.14 95.45 C 709.51 92.93 710.76 90.34 711.84 87.68 Z" />
</g>
<g id="#2f343fc1">
<path fill="#2f343f" opacity="0.76" d=" M 722.67 83.89 C 723.27 80.38 724.75 77.06 727.35 74.57 C 726.32 77.91 724.66 81.03 722.67 83.89 Z" />
</g>
<g id="#4f7133fc">
<path fill="#4f7133" opacity="1.00" d=" M 588.57 80.55 C 589.93 79.41 591.32 78.28 592.68 77.13 C 595.10 78.57 597.27 80.40 598.88 82.74 C 597.75 83.05 596.63 83.35 595.51 83.66 C 595.45 84.46 595.40 85.26 595.36 86.07 C 596.79 86.95 598.18 87.92 599.41 89.09 C 597.78 89.03 596.16 88.93 594.55 88.86 C 592.95 86.43 589.88 87.19 587.43 86.70 L 587.23 86.43 C 588.65 86.20 590.08 86.24 591.52 86.55 C 590.85 85.12 589.99 83.83 588.82 82.78 C 588.76 82.22 588.63 81.11 588.57 80.55 Z" />
</g>
<g id="#6f953cfa">
<path fill="#6f953c" opacity="0.98" d=" M 581.76 88.61 C 583.63 87.93 585.44 86.97 587.43 86.70 C 589.88 87.19 592.95 86.43 594.55 88.86 C 592.36 88.83 590.18 88.92 588.01 89.07 L 589.06 89.53 C 589.26 90.09 589.64 91.23 589.83 91.79 C 586.07 93.02 582.28 94.21 578.77 96.04 C 583.24 96.95 587.48 93.94 592.04 95.05 C 590.12 97.14 588.58 100.30 585.44 100.60 C 581.92 101.01 578.61 102.33 575.94 104.68 C 579.10 103.81 582.29 103.03 585.57 102.70 C 581.61 107.50 575.60 109.72 570.02 111.98 C 569.58 111.78 568.70 111.38 568.26 111.19 C 569.10 110.05 569.95 108.92 570.81 107.79 C 570.44 107.43 569.69 106.70 569.31 106.34 C 570.52 104.73 572.03 103.20 572.41 101.14 C 573.44 97.89 575.70 95.26 577.59 92.49 C 579.00 91.21 580.90 90.43 581.76 88.61 Z" />
</g>
<g id="#769643ff">
<path fill="#769643" opacity="1.00" d=" M 607.94 87.07 C 610.70 86.66 613.51 87.04 615.83 88.67 C 616.75 89.78 617.65 90.91 618.56 92.05 C 618.34 92.48 617.89 93.35 617.66 93.78 C 617.79 97.94 617.16 102.07 616.37 106.14 C 614.53 105.46 612.72 104.70 610.94 103.90 C 610.75 103.83 610.37 103.68 610.17 103.61 C 609.65 103.67 608.59 103.80 608.06 103.86 C 607.13 103.49 606.21 103.12 605.29 102.74 C 605.46 102.37 605.80 101.61 605.96 101.23 C 604.15 100.45 602.26 99.80 600.63 98.68 C 600.29 97.01 600.49 95.29 600.62 93.61 C 601.52 93.49 602.42 93.38 603.33 93.26 C 603.29 95.73 603.92 98.15 606.30 99.36 C 606.39 97.85 606.46 96.34 606.54 94.83 C 608.43 96.88 610.30 99.12 613.10 99.92 C 612.55 98.70 611.98 97.49 611.42 96.28 C 612.59 96.05 613.78 95.82 614.98 95.61 C 613.35 95.07 611.75 94.45 610.47 93.28 C 611.15 93.08 612.50 92.67 613.18 92.46 C 613.69 92.45 614.73 92.41 615.24 92.39 C 612.54 91.01 609.86 89.48 607.94 87.07 Z" />
</g>
<g id="#f0f0f6ff">
<path fill="#f0f0f6" opacity="1.00" d=" M 615.83 88.67 C 623.01 87.53 630.29 87.27 637.55 87.69 C 635.13 88.72 632.54 89.10 629.93 89.11 C 630.00 91.40 628.86 93.46 628.49 95.67 C 629.05 97.94 630.36 100.03 630.56 102.40 C 630.17 104.42 628.19 105.84 628.00 107.96 C 627.47 112.52 627.70 117.19 626.37 121.65 C 624.16 128.54 624.44 135.91 625.00 143.03 C 625.20 145.61 626.55 149.28 629.81 148.47 C 635.56 146.70 641.68 149.52 647.38 147.40 C 651.40 140.88 646.42 133.85 647.02 126.99 C 646.78 124.05 648.72 121.71 650.26 119.44 C 651.36 120.54 652.47 121.64 653.58 122.74 C 654.92 121.92 656.28 121.11 657.63 120.29 C 658.33 121.71 657.91 124.26 659.78 124.72 C 660.73 123.73 661.57 122.62 662.45 121.55 C 663.18 123.51 662.76 126.45 664.62 127.69 C 666.20 126.80 667.50 125.06 669.52 125.38 C 668.64 129.27 667.23 133.02 666.10 136.84 C 665.46 138.32 664.81 139.81 664.32 141.35 C 661.52 146.02 661.16 151.52 661.08 156.83 C 660.27 156.08 659.53 155.25 658.79 154.45 C 658.18 155.35 657.54 156.23 656.88 157.08 C 650.50 158.15 644.12 156.40 637.80 155.71 C 631.54 154.89 625.19 155.13 618.91 154.56 C 614.22 152.97 607.71 155.48 604.52 150.72 C 602.55 146.81 596.51 147.00 595.68 142.30 C 597.12 132.30 601.74 122.48 599.77 112.21 C 600.01 111.85 600.50 111.15 600.75 110.79 C 601.12 110.48 601.85 109.86 602.22 109.55 C 602.37 109.32 602.67 108.86 602.82 108.63 C 605.02 106.29 607.92 104.86 610.94 103.90 C 612.72 104.70 614.53 105.46 616.37 106.14 C 617.16 102.07 617.79 97.94 617.66 93.78 C 617.89 93.35 618.34 92.48 618.56 92.05 C 617.65 90.91 616.75 89.78 615.83 88.67 M 597.34 138.45 C 596.56 139.52 596.71 141.68 598.16 142.12 C 600.20 141.80 599.30 137.49 597.34 138.45 Z" />
</g>
<g id="#ffffffff">
<path fill="#ffffff" opacity="1.00" d=" M 637.55 87.69 C 646.13 87.45 654.67 88.50 663.24 88.85 C 668.99 90.86 675.25 90.60 681.23 91.49 C 680.73 93.20 680.21 94.91 679.64 96.60 C 678.12 100.93 676.51 105.24 675.11 109.61 C 672.96 114.84 671.63 120.35 669.60 125.62 L 669.52 125.38 C 667.50 125.06 666.20 126.80 664.62 127.69 C 662.76 126.45 663.18 123.51 662.45 121.55 C 661.57 122.62 660.73 123.73 659.78 124.72 C 657.91 124.26 658.33 121.71 657.63 120.29 C 656.28 121.11 654.92 121.92 653.58 122.74 C 652.47 121.64 651.36 120.54 650.26 119.44 C 648.72 121.71 646.78 124.05 647.02 126.99 C 646.42 133.85 651.40 140.88 647.38 147.40 C 641.68 149.52 635.56 146.70 629.81 148.47 C 626.55 149.28 625.20 145.61 625.00 143.03 C 624.44 135.91 624.16 128.54 626.37 121.65 C 627.70 117.19 627.47 112.52 628.00 107.96 C 628.19 105.84 630.17 104.42 630.56 102.40 C 630.36 100.03 629.05 97.94 628.49 95.67 C 628.86 93.46 630.00 91.40 629.93 89.11 C 632.54 89.10 635.13 88.72 637.55 87.69 Z" />
<path fill="#ffffff" opacity="1.00" d=" M 623.60 287.10 C 626.05 286.40 628.62 286.32 631.11 286.86 C 640.81 288.81 650.75 287.96 660.57 288.18 C 662.38 288.49 664.17 288.92 665.97 289.35 C 663.80 290.76 661.74 292.70 659.10 293.07 C 653.70 293.16 648.38 292.01 643.00 291.82 C 639.98 291.99 637.03 292.79 634.01 293.00 C 634.63 291.96 636.63 290.97 635.33 289.69 C 631.46 288.64 626.92 289.77 623.60 287.10 Z" />
</g>
<g id="#bcc3c9ff">
<path fill="#bcc3c9" opacity="1.00" d=" M 681.89 90.31 C 682.14 89.71 682.63 88.52 682.88 87.92 C 682.71 88.56 682.38 89.83 682.21 90.47 C 683.44 90.61 684.68 90.77 685.92 90.93 L 686.96 91.12 C 688.29 91.33 689.64 91.52 690.99 91.67 C 696.71 92.53 702.27 94.14 707.91 95.38 C 709.16 92.79 710.42 90.19 711.84 87.68 C 710.76 90.34 709.51 92.93 708.14 95.45 C 709.26 95.99 710.39 96.53 711.52 97.08 C 712.72 99.57 714.84 101.38 716.93 103.13 C 715.37 102.97 713.86 102.84 712.32 102.70 C 711.72 101.32 711.12 99.95 710.51 98.58 C 709.23 98.01 707.96 97.44 706.70 96.87 C 706.15 98.49 705.64 100.12 705.02 101.72 L 704.01 101.84 C 704.30 100.47 704.59 99.11 704.86 97.74 C 700.22 95.61 695.35 93.93 690.27 93.29 C 686.92 98.53 686.07 104.77 683.78 110.45 C 681.55 116.14 680.82 122.33 678.14 127.84 C 678.18 127.55 678.26 126.96 678.30 126.67 C 680.15 117.17 683.88 108.19 686.47 98.89 C 686.73 97.76 686.96 96.63 687.17 95.49 C 686.36 94.06 685.34 92.78 684.27 91.56 C 683.51 91.54 681.99 91.51 681.23 91.49 C 675.25 90.60 668.99 90.86 663.24 88.85 C 665.21 88.78 667.20 88.67 669.19 88.68 C 673.39 89.52 677.71 89.35 681.89 90.31 Z" />
</g>
<g id="#576077ff">
<path fill="#576077" opacity="1.00" d=" M 690.62 89.86 C 690.81 89.39 691.20 88.45 691.39 87.98 C 691.41 88.40 691.46 89.25 691.48 89.68 L 690.62 89.86 Z" />
<path fill="#576077" opacity="1.00" d=" M 661.08 156.83 C 661.16 151.52 661.52 146.02 664.32 141.35 C 664.35 142.76 664.40 144.17 664.48 145.59 C 666.82 145.65 669.17 145.72 671.53 145.82 C 670.61 147.21 669.56 148.49 668.47 149.75 C 668.46 151.70 668.49 153.66 668.56 155.61 C 666.08 156.16 663.59 156.62 661.08 156.83 Z" />
</g>
<g id="#4e7033f9">
<path fill="#4e7033" opacity="0.98" d=" M 589.06 89.53 C 590.48 90.07 591.93 90.57 593.38 91.08 C 592.39 91.94 591.42 92.81 590.45 93.67 C 591.86 94.06 593.28 94.44 594.70 94.83 C 592.28 97.82 589.61 100.60 587.36 103.73 C 585.30 106.47 582.75 108.80 580.50 111.39 C 577.14 115.17 573.93 119.19 569.67 122.04 C 569.40 120.63 569.13 119.23 568.85 117.83 C 568.65 116.96 568.44 116.10 568.22 115.25 C 568.47 114.28 568.72 113.32 568.98 112.36 L 570.02 111.98 C 575.60 109.72 581.61 107.50 585.57 102.70 C 582.29 103.03 579.10 103.81 575.94 104.68 C 578.61 102.33 581.92 101.01 585.44 100.60 C 588.58 100.30 590.12 97.14 592.04 95.05 C 587.48 93.94 583.24 96.95 578.77 96.04 C 582.28 94.21 586.07 93.02 589.83 91.79 C 589.64 91.23 589.26 90.09 589.06 89.53 M 572.35 113.45 C 571.00 115.02 570.38 117.04 570.06 119.05 C 572.66 117.00 575.13 114.74 577.17 112.11 C 575.53 112.42 573.76 112.49 572.35 113.45 Z" />
</g>
<g id="#587f38f9">
<path fill="#587f38" opacity="0.98" d=" M 600.62 93.61 C 601.55 92.73 602.36 90.99 603.93 91.62 C 606.96 92.33 610.06 92.60 613.18 92.46 C 612.50 92.67 611.15 93.08 610.47 93.28 C 611.75 94.45 613.35 95.07 614.98 95.61 C 613.78 95.82 612.59 96.05 611.42 96.28 C 611.98 97.49 612.55 98.70 613.10 99.92 C 610.30 99.12 608.43 96.88 606.54 94.83 C 606.46 96.34 606.39 97.85 606.30 99.36 C 603.92 98.15 603.29 95.73 603.33 93.26 C 602.42 93.38 601.52 93.49 600.62 93.61 Z" />
</g>
<g id="#5c8239fa">
<path fill="#5c8239" opacity="0.98" d=" M 597.14 93.71 C 597.62 93.16 598.11 92.61 598.61 92.06 C 598.43 95.76 597.97 100.84 601.60 103.06 C 602.02 104.90 602.46 106.76 602.82 108.63 C 602.67 108.86 602.37 109.32 602.22 109.55 C 601.85 109.86 601.12 110.48 600.75 110.79 C 600.50 111.15 600.01 111.85 599.77 112.21 C 598.84 113.03 597.89 113.82 596.91 114.57 C 595.03 115.53 593.19 116.56 591.38 117.64 C 589.97 118.41 588.58 119.20 587.18 119.96 C 585.65 120.74 584.20 121.65 582.85 122.68 L 581.97 121.42 C 580.34 122.21 578.86 123.69 576.95 123.64 C 573.65 123.50 570.48 124.52 567.26 125.02 C 567.33 124.29 567.48 122.83 567.56 122.10 L 568.03 122.69 C 568.29 123.02 568.82 123.68 569.09 124.01 C 571.93 123.36 574.74 122.53 577.52 121.64 C 577.07 121.18 576.17 120.25 575.72 119.78 C 576.99 118.95 578.25 118.10 579.53 117.26 C 580.03 115.33 580.43 113.38 580.50 111.39 C 582.75 108.80 585.30 106.47 587.36 103.73 C 589.31 104.12 591.27 104.49 593.23 104.83 C 593.25 100.76 595.62 97.33 597.14 93.71 M 594.25 107.13 C 592.70 110.25 588.83 112.01 589.05 115.95 C 589.49 115.88 590.38 115.73 590.82 115.66 C 592.97 112.15 596.72 109.40 596.08 104.78 C 595.30 105.43 594.68 106.21 594.25 107.13 M 581.17 119.01 C 585.55 119.64 586.84 114.19 587.94 110.97 C 584.05 111.58 583.31 116.32 581.17 119.01 Z" />
</g>
<g id="#697286ff">
<path fill="#697286" opacity="1.00" d=" M 681.23 91.49 C 681.99 91.51 683.51 91.54 684.27 91.56 C 685.34 92.78 686.36 94.06 687.17 95.49 C 684.58 95.06 682.03 95.62 679.64 96.60 C 680.21 94.91 680.73 93.20 681.23 91.49 Z" />
</g>
<g id="#779b3efe">
<path fill="#779b3e" opacity="1.00" d=" M 594.70 94.83 C 595.51 94.46 596.32 94.09 597.14 93.71 C 595.62 97.33 593.25 100.76 593.23 104.83 C 591.27 104.49 589.31 104.12 587.36 103.73 C 589.61 100.60 592.28 97.82 594.70 94.83 Z" />
</g>
<g id="#f4f4faff">
<path fill="#f4f4fa" opacity="1.00" d=" M 690.27 93.29 C 695.35 93.93 700.22 95.61 704.86 97.74 C 704.59 99.11 704.30 100.47 704.01 101.84 C 702.16 107.69 698.78 112.89 696.27 118.46 C 695.00 121.01 693.79 123.58 692.66 126.19 C 688.46 131.76 686.84 138.78 682.70 144.41 C 682.50 145.07 682.32 145.74 682.11 146.40 C 678.10 147.98 677.68 152.62 675.77 155.92 C 673.94 157.78 671.01 157.45 668.63 157.84 C 668.60 157.10 668.58 156.35 668.56 155.61 C 668.49 153.66 668.46 151.70 668.47 149.75 C 669.56 148.49 670.61 147.21 671.53 145.82 C 673.09 141.77 674.28 137.60 675.73 133.51 C 676.43 131.58 677.30 129.72 678.14 127.84 C 680.82 122.33 681.55 116.14 683.78 110.45 C 686.07 104.77 686.92 98.53 690.27 93.29 Z" />
</g>
<g id="#333a49ff">
<path fill="#333a49" opacity="1.00" d=" M 679.64 96.60 C 682.03 95.62 684.58 95.06 687.17 95.49 C 686.96 96.63 686.73 97.76 686.47 98.89 C 685.22 98.73 684.00 98.58 682.77 98.43 C 680.65 103.77 678.40 109.08 677.05 114.69 C 676.59 114.58 675.65 114.38 675.19 114.28 C 675.12 112.72 675.10 111.16 675.11 109.61 C 676.51 105.24 678.12 100.93 679.64 96.60 Z" />
<path fill="#333a49" opacity="1.00" d=" M 609.15 290.57 C 609.78 290.97 611.02 291.76 611.65 292.16 C 617.76 296.63 624.94 299.45 632.34 300.93 C 634.78 301.45 637.24 301.95 639.72 302.33 C 646.83 304.00 654.16 303.45 661.40 303.37 C 649.12 304.89 636.46 303.96 624.61 300.36 C 619.12 298.37 613.37 296.09 609.27 291.78 L 609.15 290.57 Z" />
</g>
<g id="#ebebf3ff">
<path fill="#ebebf3" opacity="1.00" d=" M 711.52 97.08 C 713.07 97.57 714.64 98.05 716.16 98.68 C 718.22 99.70 720.27 100.80 722.15 102.15 C 723.13 104.24 723.00 106.68 723.35 108.94 C 721.81 108.32 720.29 107.68 718.77 107.04 C 718.81 111.71 717.99 116.41 718.98 121.03 C 720.86 130.76 719.80 140.70 720.27 150.53 C 721.51 151.66 723.19 152.48 723.95 154.04 C 724.34 156.45 724.24 158.91 724.27 161.34 C 722.94 160.78 721.16 160.98 720.15 159.86 C 719.08 157.31 719.21 154.41 717.99 151.92 C 715.64 151.10 713.22 152.33 710.94 152.83 C 710.03 154.53 710.15 157.41 707.89 157.89 C 702.08 159.39 695.99 159.05 690.06 158.67 C 690.01 154.81 693.71 150.95 691.45 147.32 C 693.08 143.61 694.70 139.89 696.68 136.35 C 697.52 134.82 698.38 133.30 699.15 131.73 C 702.82 122.60 707.09 113.75 711.24 104.83 C 711.51 104.30 712.05 103.23 712.32 102.70 C 713.86 102.84 715.37 102.97 716.93 103.13 C 714.84 101.38 712.72 99.57 711.52 97.08 M 715.30 108.32 C 713.26 109.50 711.65 111.26 710.29 113.14 C 713.26 113.12 717.04 113.03 718.45 109.86 C 717.48 109.22 716.60 108.08 715.30 108.32 Z" />
</g>
<g id="#1a1d27ff">
<path fill="#1a1d27" opacity="1.00" d=" M 682.77 98.43 C 684.00 98.58 685.22 98.73 686.47 98.89 C 683.88 108.19 680.15 117.17 678.30 126.67 C 676.01 122.93 675.13 118.62 675.19 114.28 C 675.65 114.38 676.59 114.58 677.05 114.69 C 678.40 109.08 680.65 103.77 682.77 98.43 Z" />
</g>
<g id="#5c667bff">
<path fill="#5c667b" opacity="1.00" d=" M 706.70 96.87 C 707.96 97.44 709.23 98.01 710.51 98.58 C 711.12 99.95 711.72 101.32 712.32 102.70 C 712.05 103.23 711.51 104.30 711.24 104.83 C 711.03 103.68 710.83 102.53 710.65 101.37 C 708.76 101.47 706.88 101.56 705.02 101.72 C 705.64 100.12 706.15 98.49 706.70 96.87 Z" />
</g>
<g id="#222831ff">
<path fill="#222831" opacity="1.00" d=" M 705.02 101.72 C 706.88 101.56 708.76 101.47 710.65 101.37 C 710.83 102.53 711.03 103.68 711.24 104.83 C 707.09 113.75 702.82 122.60 699.15 131.73 C 697.08 127.62 697.04 122.91 696.27 118.46 C 698.78 112.89 702.16 107.69 704.01 101.84 L 705.02 101.72 Z" />
</g>
<g id="#b3bdbbfa">
<path fill="#b3bdbb" opacity="0.98" d=" M 605.29 102.74 C 606.21 103.12 607.13 103.49 608.06 103.86 C 608.59 103.80 609.65 103.67 610.17 103.61 C 610.37 103.68 610.75 103.83 610.94 103.90 C 607.92 104.86 605.02 106.29 602.82 108.63 C 603.59 106.64 604.43 104.69 605.29 102.74 Z" />
</g>
<g id="#4b6d32f8">
<path fill="#4b6d32" opacity="0.97" d=" M 594.25 107.13 C 594.68 106.21 595.30 105.43 596.08 104.78 C 596.72 109.40 592.97 112.15 590.82 115.66 C 590.38 115.73 589.49 115.88 589.05 115.95 C 588.83 112.01 592.70 110.25 594.25 107.13 Z" />
</g>
<g id="#fefefeff">
<path fill="#fefefe" opacity="1.00" d=" M 718.77 107.04 C 720.29 107.68 721.81 108.32 723.35 108.94 C 725.93 136.69 726.51 164.74 723.08 192.44 C 722.81 190.67 722.52 188.90 722.40 187.12 C 722.52 182.12 720.79 177.13 721.71 172.16 C 722.99 168.66 724.66 165.19 724.27 161.34 C 724.24 158.91 724.34 156.45 723.95 154.04 C 723.19 152.48 721.51 151.66 720.27 150.53 C 719.80 140.70 720.86 130.76 718.98 121.03 C 717.99 116.41 718.81 111.71 718.77 107.04 Z" />
</g>
<g id="#b4bcceff">
<path fill="#b4bcce" opacity="1.00" d=" M 715.30 108.32 C 716.60 108.08 717.48 109.22 718.45 109.86 C 717.04 113.03 713.26 113.12 710.29 113.14 C 711.65 111.26 713.26 109.50 715.30 108.32 Z" />
</g>
<g id="#496b31fd">
<path fill="#496b31" opacity="1.00" d=" M 581.17 119.01 C 583.31 116.32 584.05 111.58 587.94 110.97 C 586.84 114.19 585.55 119.64 581.17 119.01 Z" />
</g>
<g id="#6c8e3cfc">
<path fill="#6c8e3c" opacity="1.00" d=" M 572.35 113.45 C 573.76 112.49 575.53 112.42 577.17 112.11 C 575.13 114.74 572.66 117.00 570.06 119.05 C 570.38 117.04 571.00 115.02 572.35 113.45 Z" />
</g>
<g id="#7a9d4afb">
<path fill="#7a9d4a" opacity="1.00" d=" M 580.50 111.39 C 580.43 113.38 580.03 115.33 579.53 117.26 C 578.25 118.10 576.99 118.95 575.72 119.78 C 576.17 120.25 577.07 121.18 577.52 121.64 C 574.74 122.53 571.93 123.36 569.09 124.01 C 568.82 123.68 568.29 123.02 568.03 122.69 C 568.28 121.06 568.57 119.45 568.85 117.83 C 569.13 119.23 569.40 120.63 569.67 122.04 C 573.93 119.19 577.14 115.17 580.50 111.39 Z" />
</g>
<g id="#d7dce9ff">
<path fill="#d7dce9" opacity="1.00" d=" M 596.91 114.57 C 597.89 113.82 598.84 113.03 599.77 112.21 C 601.74 122.48 597.12 132.30 595.68 142.30 C 596.51 147.00 602.55 146.81 604.52 150.72 C 607.71 155.48 614.22 152.97 618.91 154.56 C 617.00 154.62 615.10 154.78 613.21 154.96 C 608.48 154.77 603.61 155.32 599.02 153.93 C 599.67 152.56 600.33 151.20 600.99 149.84 C 598.78 148.65 596.60 147.38 594.48 146.03 C 593.90 143.48 593.74 140.84 594.08 138.24 C 594.26 136.34 594.42 134.44 594.45 132.53 C 594.80 126.49 596.13 120.56 596.91 114.57 Z" />
</g>
<g id="#4b5467ff">
<path fill="#4b5467" opacity="1.00" d=" M 591.38 117.64 C 593.19 116.56 595.03 115.53 596.91 114.57 C 596.13 120.56 594.80 126.49 594.45 132.53 C 594.18 130.95 593.87 129.37 593.57 127.80 C 592.88 128.10 591.52 128.70 590.84 129.00 C 590.93 126.11 591.49 123.20 593.50 120.99 C 593.12 119.84 592.75 118.68 592.34 117.54 L 591.38 117.64 Z" />
</g>
<g id="#2c3239ff">
<path fill="#2c3239" opacity="1.00" d=" M 669.52 125.38 L 669.60 125.62 C 670.27 127.79 670.94 129.96 671.66 132.11 C 672.37 130.38 673.09 128.66 673.84 126.95 C 674.92 128.98 675.60 131.19 675.73 133.51 C 674.28 137.60 673.09 141.77 671.53 145.82 C 669.17 145.72 666.82 145.65 664.48 145.59 C 664.40 144.17 664.35 142.76 664.32 141.35 C 664.81 139.81 665.46 138.32 666.10 136.84 C 667.23 133.02 668.64 129.27 669.52 125.38 Z" />
</g>
<g id="#8891a2ff">
<path fill="#8891a2" opacity="1.00" d=" M 682.70 144.41 C 686.84 138.78 688.46 131.76 692.66 126.19 C 691.99 128.62 690.96 130.91 689.86 133.16 C 688.00 138.32 684.56 142.78 683.38 148.18 C 681.98 151.47 680.09 154.55 679.17 158.03 C 680.89 157.95 682.61 157.89 684.34 157.85 C 684.71 156.39 685.09 154.93 685.55 153.49 L 686.16 152.90 C 686.52 153.91 686.89 154.93 687.27 155.95 C 687.06 156.64 686.63 158.02 686.42 158.71 C 683.34 158.82 680.26 158.75 677.20 158.42 C 678.02 154.09 680.89 150.59 682.11 146.40 C 682.32 145.74 682.50 145.07 682.70 144.41 Z" />
</g>
<g id="#748093ff">
<path fill="#748093" opacity="1.00" d=" M 590.84 129.00 C 591.52 128.70 592.88 128.10 593.57 127.80 C 593.87 129.37 594.18 130.95 594.45 132.53 C 594.42 134.44 594.26 136.34 594.08 138.24 C 593.07 139.07 592.25 140.05 591.61 141.18 C 590.54 142.48 591.32 144.28 591.11 145.78 L 589.48 145.71 C 589.79 142.64 590.04 139.56 590.13 136.47 C 590.35 133.98 590.63 131.49 590.84 129.00 Z" />
</g>
<g id="#4d5759fc">
<path fill="#4d5759" opacity="1.00" d=" M 589.09 131.66 C 589.38 133.27 589.77 134.86 590.13 136.47 C 590.04 139.56 589.79 142.64 589.48 145.71 L 591.11 145.78 C 591.32 144.28 590.54 142.48 591.61 141.18 C 591.52 142.85 591.47 144.53 591.40 146.20 C 590.91 146.41 589.92 146.84 589.42 147.05 C 589.24 151.42 588.85 155.77 588.60 160.13 C 588.53 161.16 588.47 162.18 588.42 163.21 L 587.93 164.43 C 587.86 159.95 587.77 155.46 587.42 150.99 C 587.76 144.55 587.86 138.00 589.09 131.66 Z" />
</g>
<g id="#2b2f35ff">
<path fill="#2b2f35" opacity="1.00" d=" M 692.45 134.33 C 693.48 133.56 694.42 132.66 695.39 131.78 C 695.80 133.31 696.22 134.83 696.68 136.35 C 694.70 139.89 693.08 143.61 691.45 147.32 L 690.86 148.36 C 688.36 148.53 685.85 148.49 683.38 148.18 C 684.56 142.78 688.00 138.32 689.86 133.16 C 690.67 133.63 691.56 133.97 692.45 134.33 Z" />
</g>
<g id="#cad2e0ff">
<path fill="#cad2e0" opacity="1.00" d=" M 597.34 138.45 C 599.30 137.49 600.20 141.80 598.16 142.12 C 596.71 141.68 596.56 139.52 597.34 138.45 Z" />
</g>
<g id="#91a5a9ff">
<path fill="#91a5a9" opacity="1.00" d=" M 591.61 141.18 C 592.25 140.05 593.07 139.07 594.08 138.24 C 593.74 140.84 593.90 143.48 594.48 146.03 C 594.96 148.40 595.36 150.78 595.67 153.17 C 594.76 153.78 593.85 154.39 592.96 155.01 C 593.97 155.20 595.00 155.38 596.03 155.55 C 594.93 155.97 593.86 156.43 592.81 156.92 C 591.34 157.91 589.97 159.03 588.60 160.13 C 588.85 155.77 589.24 151.42 589.42 147.05 C 589.92 146.84 590.91 146.41 591.40 146.20 C 591.47 144.53 591.52 142.85 591.61 141.18 Z" />
</g>
<g id="#c4cbdaff">
<path fill="#c4cbda" opacity="1.00" d=" M 594.48 146.03 C 596.60 147.38 598.78 148.65 600.99 149.84 C 600.33 151.20 599.67 152.56 599.02 153.93 C 603.61 155.32 608.48 154.77 613.21 154.96 C 607.65 157.05 601.77 155.82 596.03 155.55 C 595.00 155.38 593.97 155.20 592.96 155.01 C 593.85 154.39 594.76 153.78 595.67 153.17 C 595.36 150.78 594.96 148.40 594.48 146.03 Z" />
</g>
<g id="#dce5e4ff">
<path fill="#dce5e4" opacity="1.00" d=" M 675.77 155.92 C 677.68 152.62 678.10 147.98 682.11 146.40 C 680.89 150.59 678.02 154.09 677.20 158.42 C 680.26 158.75 683.34 158.82 686.42 158.71 C 686.63 158.02 687.06 156.64 687.27 155.95 C 686.89 154.93 686.52 153.91 686.16 152.90 C 687.76 151.43 689.41 150.00 690.86 148.36 L 691.45 147.32 C 693.71 150.95 690.01 154.81 690.06 158.67 C 695.99 159.05 702.08 159.39 707.89 157.89 C 710.15 157.41 710.03 154.53 710.94 152.83 C 713.22 152.33 715.64 151.10 717.99 151.92 C 719.21 154.41 719.08 157.31 720.15 159.86 C 721.16 160.98 722.94 160.78 724.27 161.34 C 724.66 165.19 722.99 168.66 721.71 172.16 C 720.79 177.13 722.52 182.12 722.40 187.12 L 720.92 186.92 C 718.72 186.24 716.63 185.29 714.54 184.37 C 714.41 182.25 714.27 180.14 714.13 178.03 C 713.99 176.38 713.87 174.73 713.76 173.08 C 708.87 171.12 704.86 175.36 700.38 176.47 C 697.99 177.26 695.78 175.59 693.43 175.47 C 690.42 175.26 687.42 175.59 684.43 175.79 C 684.84 175.23 685.25 174.67 685.68 174.12 C 681.47 175.41 678.20 171.92 674.14 171.84 C 674.27 172.35 674.52 173.38 674.64 173.89 L 675.11 175.62 C 671.79 174.05 671.08 170.17 669.52 167.21 C 670.40 165.60 670.34 162.41 672.94 162.73 C 679.29 162.62 685.65 162.66 692.01 162.66 C 702.00 163.82 712.11 163.75 722.14 163.33 C 715.99 159.86 708.76 160.87 702.02 160.52 C 697.30 160.29 692.69 161.56 687.99 161.55 C 683.99 161.54 680.00 161.66 676.01 161.48 C 670.57 161.26 665.57 157.98 660.04 158.86 C 655.18 159.55 650.28 159.70 645.39 159.40 C 642.81 158.25 640.35 156.89 637.80 155.71 C 644.12 156.40 650.50 158.15 656.88 157.08 C 657.54 156.23 658.18 155.35 658.79 154.45 C 659.53 155.25 660.27 156.08 661.08 156.83 C 663.59 156.62 666.08 156.16 668.56 155.61 C 668.58 156.35 668.60 157.10 668.63 157.84 C 671.01 157.45 673.94 157.78 675.77 155.92 Z" />
</g>
<g id="#555f74ff">
<path fill="#555f74" opacity="1.00" d=" M 683.38 148.18 C 685.85 148.49 688.36 148.53 690.86 148.36 C 689.41 150.00 687.76 151.43 686.16 152.90 L 685.55 153.49 C 685.09 154.93 684.71 156.39 684.34 157.85 C 682.61 157.89 680.89 157.95 679.17 158.03 C 680.09 154.55 681.98 151.47 683.38 148.18 Z" />
</g>
<g id="#000000ff">
<path fill="#000000" opacity="1.00" d=" M 587.88 210.69 C 586.57 190.82 585.92 170.87 587.42 150.99 C 587.77 155.46 587.86 159.95 587.93 164.43 C 587.57 170.49 587.68 176.58 587.73 182.65 C 587.63 189.32 588.30 195.97 588.47 202.63 C 588.59 204.76 588.78 206.90 588.99 209.03 C 589.32 213.00 589.62 216.98 590.10 220.94 C 590.41 223.84 590.75 226.73 591.28 229.60 C 592.20 236.70 593.40 243.76 594.72 250.80 C 595.40 254.66 596.27 258.50 597.27 262.29 C 598.33 267.02 599.56 271.71 600.98 276.34 C 601.71 278.80 602.36 281.27 602.94 283.78 C 601.00 281.75 600.49 278.97 599.75 276.39 C 598.36 271.32 596.92 266.27 595.94 261.10 C 594.50 262.07 593.71 263.66 592.72 265.02 C 586.01 274.20 575.62 281.20 564.04 281.87 C 553.75 283.06 543.36 279.13 535.84 272.15 C 528.69 266.40 524.45 257.76 522.55 248.93 C 519.81 236.32 523.45 222.54 532.12 212.98 C 539.64 204.12 551.28 198.72 562.95 199.38 C 572.36 199.68 581.16 204.28 587.88 210.69 M 557.98 213.95 C 547.73 214.66 539.91 223.16 536.70 232.40 C 535.00 238.60 535.14 245.39 537.48 251.42 C 540.12 257.99 545.70 263.17 552.14 265.98 C 559.84 268.76 569.17 268.00 575.72 262.82 C 582.77 257.15 587.12 248.12 586.41 239.00 C 586.24 224.68 572.38 211.96 557.98 213.95 Z" />
<path fill="#000000" opacity="1.00" d=" M 483.46 172.53 C 486.54 168.05 494.93 170.57 495.21 175.95 C 495.38 184.20 495.23 192.45 495.30 200.71 C 499.85 200.80 504.39 200.51 508.94 200.55 C 512.33 201.42 513.46 205.05 514.38 208.00 C 513.67 210.90 511.85 213.57 508.93 214.56 C 504.42 214.73 499.91 214.37 495.40 214.45 C 495.25 228.31 495.38 242.18 495.40 256.04 C 495.39 260.27 496.46 265.36 500.68 267.35 C 504.38 268.05 508.19 267.86 511.92 268.41 C 514.78 269.29 515.54 272.52 516.41 275.02 C 515.71 278.14 514.05 281.75 510.42 282.08 C 504.05 282.58 496.99 282.34 491.74 278.20 C 485.94 273.62 482.09 266.48 481.90 259.04 C 481.52 244.16 482.04 229.25 481.60 214.37 C 477.55 214.17 472.47 216.18 469.38 212.56 C 465.47 209.16 467.69 201.43 472.90 200.80 C 475.83 200.56 478.78 200.73 481.73 200.72 C 481.74 193.80 481.73 186.88 481.70 179.97 C 481.68 177.41 481.96 174.69 483.46 172.53 Z" />
<path fill="#000000" opacity="1.00" d=" M 445.38 179.42 C 448.54 177.25 452.96 179.22 454.91 182.13 C 457.33 186.58 454.43 192.90 449.04 192.84 C 444.72 193.76 442.63 189.32 441.61 185.97 C 442.36 183.57 443.07 180.82 445.38 179.42 Z" />
<path fill="#000000" opacity="1.00" d=" M 445.33 199.54 C 449.52 196.70 456.45 200.77 455.62 205.95 C 455.63 228.98 455.68 252.02 455.68 275.05 C 456.42 280.46 449.06 284.24 444.94 280.94 C 442.30 278.84 441.82 275.19 441.80 272.03 C 441.83 250.70 441.77 229.37 441.76 208.03 C 441.80 204.93 442.56 201.37 445.33 199.54 Z" />
</g>
<g id="#98b796ff">
<path fill="#98b796" opacity="1.00" d=" M 613.21 154.96 C 615.10 154.78 617.00 154.62 618.91 154.56 C 626.83 159.55 636.51 158.33 645.39 159.40 C 650.28 159.70 655.18 159.55 660.04 158.86 C 665.57 157.98 670.57 161.26 676.01 161.48 C 680.00 161.66 683.99 161.54 687.99 161.55 C 692.69 161.56 697.30 160.29 702.02 160.52 C 708.76 160.87 715.99 159.86 722.14 163.33 C 712.11 163.75 702.00 163.82 692.01 162.66 C 685.65 162.66 679.29 162.62 672.94 162.73 C 670.34 162.41 670.40 165.60 669.52 167.21 L 669.25 166.51 C 669.27 166.11 669.30 165.30 669.32 164.89 C 668.00 165.24 666.69 165.60 665.39 165.97 C 665.42 165.58 665.48 164.81 665.51 164.42 L 665.56 163.64 C 652.57 163.59 639.66 161.65 626.65 161.75 C 626.56 161.35 626.38 160.54 626.29 160.14 C 623.12 158.75 619.87 157.54 616.87 155.82 C 613.87 156.32 610.87 156.79 607.93 157.55 C 607.71 157.83 607.27 158.40 607.05 158.68 C 605.25 158.47 603.46 158.30 601.67 158.17 C 598.70 157.84 595.75 157.40 592.81 156.92 C 593.86 156.43 594.93 155.97 596.03 155.55 C 601.77 155.82 607.65 157.05 613.21 154.96 Z" />
</g>
<g id="#ceddd5ff">
<path fill="#ceddd5" opacity="1.00" d=" M 618.91 154.56 C 625.19 155.13 631.54 154.89 637.80 155.71 C 640.35 156.89 642.81 158.25 645.39 159.40 C 636.51 158.33 626.83 159.55 618.91 154.56 Z" />
</g>
<g id="#6a973fff">
<path fill="#6a973f" opacity="1.00" d=" M 607.93 157.55 C 610.87 156.79 613.87 156.32 616.87 155.82 C 619.87 157.54 623.12 158.75 626.29 160.14 C 626.38 160.54 626.56 161.35 626.65 161.75 C 626.90 163.00 627.17 164.27 627.46 165.52 C 627.51 169.19 628.24 173.11 626.62 176.57 C 624.98 180.11 624.68 184.17 622.61 187.52 C 621.46 189.34 620.50 191.28 620.22 193.44 C 618.07 194.36 615.87 195.13 613.63 195.75 C 613.58 196.27 613.47 197.32 613.41 197.85 C 613.38 198.18 613.31 198.84 613.28 199.17 C 611.60 199.79 610.08 200.73 608.64 201.76 C 606.06 202.87 603.27 203.83 600.46 203.00 C 602.10 202.17 603.69 201.24 605.26 200.26 C 602.82 198.96 600.18 198.14 597.49 197.56 C 596.39 196.10 595.30 194.64 594.20 193.18 C 594.62 193.11 595.44 192.96 595.85 192.88 C 595.85 190.80 595.75 188.71 595.77 186.63 L 596.07 185.20 C 599.68 187.98 596.79 192.50 598.70 195.91 C 601.26 192.64 603.91 189.36 605.50 185.47 C 604.40 185.83 603.32 186.20 602.23 186.57 C 601.95 186.29 601.40 185.72 601.13 185.44 C 603.65 184.19 606.35 183.26 608.74 181.76 C 611.32 178.08 614.13 174.33 615.36 169.93 C 613.59 171.55 611.99 173.37 610.06 174.80 C 607.56 173.99 608.76 170.28 607.95 168.16 C 609.51 167.48 611.07 166.81 612.66 166.15 C 611.77 165.20 611.39 163.60 610.13 163.09 C 608.47 163.02 606.83 163.21 605.19 163.36 C 605.23 162.83 605.30 161.76 605.34 161.22 C 605.87 160.35 606.44 159.50 607.05 158.68 C 607.27 158.40 607.71 157.83 607.93 157.55 Z" />
</g>
<g id="#cdddd5ff">
<path fill="#cdddd5" opacity="1.00" d=" M 588.60 160.13 C 589.97 159.03 591.34 157.91 592.81 156.92 C 595.75 157.40 598.70 157.84 601.67 158.17 C 599.69 158.44 597.71 158.72 595.74 158.95 C 590.61 166.40 591.43 175.72 591.53 184.28 C 588.19 177.75 589.06 170.27 588.42 163.21 C 588.47 162.18 588.53 161.16 588.60 160.13 Z" />
</g>
<g id="#acc0a0ff">
<path fill="#acc0a0" opacity="1.00" d=" M 601.67 158.17 C 603.46 158.30 605.25 158.47 607.05 158.68 C 606.44 159.50 605.87 160.35 605.34 161.22 C 604.44 162.57 603.93 164.12 603.35 165.61 C 603.57 162.88 601.59 161.37 599.17 160.82 C 597.35 163.03 594.54 165.02 594.39 168.13 C 594.66 171.08 595.56 174.00 594.94 176.98 C 594.31 179.14 595.37 181.08 596.65 182.75 C 596.56 183.13 596.36 183.89 596.26 184.27 C 596.21 184.50 596.12 184.96 596.07 185.20 L 595.77 186.63 C 595.33 188.40 594.87 190.17 594.43 191.94 C 590.51 190.38 589.10 186.27 587.73 182.65 C 587.68 176.58 587.57 170.49 587.93 164.43 L 588.42 163.21 C 589.06 170.27 588.19 177.75 591.53 184.28 C 591.43 175.72 590.61 166.40 595.74 158.95 C 597.71 158.72 599.69 158.44 601.67 158.17 Z" />
</g>
<g id="#ceddd2ff">
<path fill="#ceddd2" opacity="1.00" d=" M 594.39 168.13 C 594.54 165.02 597.35 163.03 599.17 160.82 C 601.59 161.37 603.57 162.88 603.35 165.61 C 601.88 168.73 601.25 172.16 599.79 175.28 C 598.62 177.71 597.52 180.19 596.65 182.75 C 595.37 181.08 594.31 179.14 594.94 176.98 C 595.56 174.00 594.66 171.08 594.39 168.13 Z" />
</g>
<g id="#8fb373ff">
<path fill="#8fb373" opacity="1.00" d=" M 603.35 165.61 C 603.93 164.12 604.44 162.57 605.34 161.22 C 605.30 161.76 605.23 162.83 605.19 163.36 C 605.29 167.65 603.48 171.86 604.47 176.13 C 604.97 177.57 603.26 178.23 602.51 179.13 C 601.60 177.84 600.69 176.56 599.79 175.28 C 601.25 172.16 601.88 168.73 603.35 165.61 Z" />
</g>
<g id="#d5e4dcff">
<path fill="#d5e4dc" opacity="1.00" d=" M 626.65 161.75 C 639.66 161.65 652.57 163.59 665.56 163.64 L 665.51 164.42 C 660.34 164.45 655.18 164.17 650.01 164.12 C 646.08 164.10 642.14 163.26 638.23 163.95 C 638.14 168.13 638.81 172.86 642.33 175.61 C 644.58 175.82 646.85 175.50 649.07 175.14 C 644.61 179.24 638.64 180.75 632.97 182.34 C 630.92 181.91 627.66 180.85 628.11 178.17 C 628.60 173.94 629.65 169.48 627.46 165.52 C 627.17 164.27 626.90 163.00 626.65 161.75 Z" />
</g>
<g id="#7ea352ff">
<path fill="#7ea352" opacity="1.00" d=" M 605.19 163.36 C 606.83 163.21 608.47 163.02 610.13 163.09 C 611.39 163.60 611.77 165.20 612.66 166.15 C 611.07 166.81 609.51 167.48 607.95 168.16 C 608.76 170.28 607.56 173.99 610.06 174.80 C 611.99 173.37 613.59 171.55 615.36 169.93 C 614.13 174.33 611.32 178.08 608.74 181.76 C 606.35 183.26 603.65 184.19 601.13 185.44 C 601.40 185.72 601.95 186.29 602.23 186.57 C 603.32 186.20 604.40 185.83 605.50 185.47 C 603.91 189.36 601.26 192.64 598.70 195.91 C 596.79 192.50 599.68 187.98 596.07 185.20 C 596.12 184.96 596.21 184.50 596.26 184.27 C 597.59 184.36 598.93 184.49 600.27 184.59 C 600.97 182.75 601.70 180.92 602.51 179.13 C 603.26 178.23 604.97 177.57 604.47 176.13 C 603.48 171.86 605.29 167.65 605.19 163.36 Z" />
</g>
<g id="#ebf4f3ff">
<path fill="#ebf4f3" opacity="1.00" d=" M 638.23 163.95 C 642.14 163.26 646.08 164.10 650.01 164.12 C 655.18 164.17 660.34 164.45 665.51 164.42 C 665.48 164.81 665.42 165.58 665.39 165.97 C 664.77 166.42 664.19 166.90 663.63 167.40 C 657.79 167.25 653.76 172.37 649.07 175.14 C 646.85 175.50 644.58 175.82 642.33 175.61 C 638.81 172.86 638.14 168.13 638.23 163.95 Z" />
</g>
<g id="#56853dff">
<path fill="#56853d" opacity="1.00" d=" M 665.39 165.97 C 666.69 165.60 668.00 165.24 669.32 164.89 C 669.30 165.30 669.27 166.11 669.25 166.51 C 669.15 168.46 669.08 170.41 669.12 172.37 C 668.75 174.91 668.97 177.36 671.11 179.01 C 671.32 181.54 670.00 183.82 669.23 186.15 C 669.32 187.29 669.41 188.44 669.54 189.58 C 668.52 190.42 667.52 191.27 666.52 192.12 C 666.67 193.10 666.83 194.09 667.00 195.08 C 665.80 195.95 664.60 196.82 663.40 197.68 C 662.93 198.04 662.00 198.74 661.53 199.09 C 660.65 202.04 659.76 205.23 656.94 206.93 C 656.63 207.20 656.00 207.73 655.69 207.99 C 654.90 211.99 650.83 213.97 649.86 217.84 C 649.06 218.14 648.26 218.45 647.47 218.76 C 645.65 219.47 643.84 220.23 642.12 221.15 C 640.20 220.16 638.30 219.12 636.45 218.02 C 638.44 216.03 640.77 214.43 643.18 212.97 C 639.66 212.92 636.39 214.19 633.03 215.00 C 627.92 215.39 623.00 213.63 618.36 211.70 C 616.07 210.76 613.69 210.08 611.30 209.49 C 611.92 208.61 612.52 207.72 613.17 206.85 C 615.41 205.70 617.71 203.27 620.43 204.42 C 623.71 205.12 626.11 207.51 627.90 210.22 C 632.21 206.31 638.75 208.28 643.15 204.48 C 638.46 204.48 633.72 206.45 629.12 204.84 C 625.91 203.56 622.09 204.45 619.28 202.20 C 623.76 197.44 630.03 195.10 634.98 190.93 C 637.77 188.69 640.72 186.61 643.09 183.89 C 649.13 177.41 657.63 173.93 663.63 167.40 C 664.19 166.90 664.77 166.42 665.39 165.97 Z" />
</g>
<g id="#bbd3b9ff">
<path fill="#bbd3b9" opacity="1.00" d=" M 627.46 165.52 C 629.65 169.48 628.60 173.94 628.11 178.17 C 627.66 180.85 630.92 181.91 632.97 182.34 C 638.64 180.75 644.61 179.24 649.07 175.14 C 653.76 172.37 657.79 167.25 663.63 167.40 C 657.63 173.93 649.13 177.41 643.09 183.89 C 635.62 187.01 630.47 193.80 623.01 197.00 C 619.78 196.33 616.56 197.21 613.41 197.85 C 613.47 197.32 613.58 196.27 613.63 195.75 C 615.87 195.13 618.07 194.36 620.22 193.44 C 620.50 191.28 621.46 189.34 622.61 187.52 C 624.68 184.17 624.98 180.11 626.62 176.57 C 628.24 173.11 627.51 169.19 627.46 165.52 Z" />
</g>
<g id="#78a540ff">
<path fill="#78a540" opacity="1.00" d=" M 364.25 167.94 C 368.18 165.21 374.95 167.98 375.17 172.97 C 375.43 191.60 375.03 210.25 375.44 228.87 C 390.00 218.63 404.52 208.29 419.49 198.66 C 424.61 196.71 429.14 202.24 428.38 207.09 C 426.67 211.60 422.00 213.69 418.28 216.23 C 411.23 221.12 404.34 226.22 397.18 230.94 C 407.15 244.25 417.13 257.55 427.12 270.85 C 431.07 275.33 426.02 283.64 420.10 281.71 C 415.09 279.73 412.64 274.41 409.45 270.41 C 401.38 260.00 393.60 249.36 385.29 239.14 C 382.11 241.65 378.50 243.57 375.39 246.15 C 375.11 256.10 375.47 266.06 375.27 276.01 C 375.25 281.18 368.06 284.33 364.20 280.97 C 362.28 279.20 361.26 276.59 361.42 273.99 C 361.42 241.00 361.33 208.00 361.32 175.01 C 361.27 172.39 362.23 169.67 364.25 167.94 Z" />
<path fill="#78a540" opacity="1.00" d=" M 312.60 199.97 C 325.56 196.94 339.59 201.73 348.55 211.42 C 351.72 215.84 347.67 223.56 341.94 222.38 C 337.39 220.95 334.39 216.81 329.91 215.25 C 322.85 212.59 314.43 212.87 307.89 216.82 C 297.56 223.48 292.29 237.07 295.77 248.93 C 297.88 256.61 303.94 262.64 310.93 266.13 C 319.51 269.89 329.92 268.13 336.97 262.03 C 339.19 259.77 342.48 258.58 345.59 259.68 C 349.73 261.51 351.14 267.69 347.93 271.02 C 343.64 275.77 337.53 278.30 331.77 280.78 C 321.86 283.74 310.57 282.91 301.74 277.26 C 295.17 273.03 289.09 267.48 285.81 260.25 C 281.28 251.54 280.13 241.34 281.93 231.74 C 285.18 216.59 297.36 203.45 312.60 199.97 Z" />
<path fill="#78a540" opacity="1.00" d=" M 84.88 206.90 C 91.36 202.74 99.07 200.00 106.84 201.22 C 115.00 202.09 122.16 207.03 127.32 213.20 C 129.54 211.88 130.97 209.64 133.01 208.09 C 139.32 203.38 147.17 200.50 155.09 200.95 C 171.09 202.14 183.89 217.27 184.15 233.00 C 184.21 247.34 184.23 261.68 184.21 276.01 C 184.47 280.76 178.44 284.06 174.45 281.75 C 172.19 280.79 170.70 278.45 170.71 276.01 C 170.55 261.47 170.75 246.93 170.57 232.39 C 170.50 222.85 161.46 214.65 152.01 215.24 C 142.75 214.54 135.49 223.53 134.60 232.06 C 134.48 246.37 134.66 260.69 134.58 275.01 C 134.56 277.99 133.00 281.16 130.15 282.36 C 126.49 283.40 121.58 281.14 121.30 277.03 C 120.74 261.67 121.94 246.23 120.46 230.90 C 120.16 225.45 116.62 220.74 112.23 217.76 C 108.07 215.02 102.75 214.86 98.00 215.81 C 89.74 218.01 84.85 226.84 84.80 234.99 C 84.65 248.67 84.85 262.34 84.77 276.02 C 85.29 280.91 79.03 284.20 75.00 281.94 C 72.37 280.28 71.27 277.02 71.40 274.03 C 71.40 252.66 71.35 231.29 71.33 209.92 C 71.26 206.89 72.15 203.48 74.88 201.81 C 78.80 199.80 84.22 202.51 84.88 206.90 Z" />
<path fill="#78a540" opacity="1.00" d=" M 224.61 200.95 C 234.06 198.40 244.43 200.13 252.71 205.29 C 262.84 211.32 269.93 221.94 272.18 233.46 C 273.86 243.73 272.34 254.77 266.58 263.60 C 260.50 272.76 251.03 280.08 240.02 281.99 C 233.91 282.92 227.48 282.79 221.61 280.70 C 214.02 277.98 207.51 272.73 202.44 266.54 C 197.08 258.84 193.91 249.46 194.27 240.02 C 194.21 222.21 207.37 205.35 224.61 200.95 M 225.32 215.54 C 217.14 218.30 211.46 225.93 208.92 233.92 C 207.49 241.24 207.79 249.43 212.01 255.84 C 215.50 261.16 220.83 265.46 226.98 267.26 C 233.93 268.58 241.82 268.27 247.64 263.77 C 254.59 258.46 259.33 249.89 258.85 240.99 C 259.46 231.41 253.65 222.41 245.64 217.56 C 239.56 214.05 231.97 213.43 225.32 215.54 Z" />
</g>
<g id="#c5d5cdff">
<path fill="#c5d5cd" opacity="1.00" d=" M 669.25 166.51 L 669.52 167.21 C 671.08 170.17 671.79 174.05 675.11 175.62 C 675.87 177.46 676.76 179.25 677.62 181.06 C 678.70 183.47 679.97 185.79 681.23 188.12 C 681.07 188.53 680.73 189.37 680.56 189.78 C 678.64 189.36 676.61 189.07 674.93 188.02 C 672.63 185.98 672.41 182.71 671.90 179.89 C 671.52 177.46 669.98 175.33 670.16 172.80 C 669.90 172.69 669.38 172.47 669.12 172.37 C 669.08 170.41 669.15 168.46 669.25 166.51 Z" />
</g>
<g id="#b6cab6ff">
<path fill="#b6cab6" opacity="1.00" d=" M 669.12 172.37 C 669.38 172.47 669.90 172.69 670.16 172.80 C 669.98 175.33 671.52 177.46 671.90 179.89 C 672.41 182.71 672.63 185.98 674.93 188.02 C 676.61 189.07 678.64 189.36 680.56 189.78 C 680.73 189.37 681.07 188.53 681.23 188.12 C 683.63 192.36 686.79 196.15 690.66 199.12 C 689.18 199.32 687.70 199.59 686.21 199.61 C 684.53 198.53 683.20 196.98 681.47 195.99 C 678.36 194.75 675.02 194.16 671.70 193.84 C 670.75 192.54 670.01 191.11 669.54 189.58 C 669.41 188.44 669.32 187.29 669.23 186.15 C 670.00 183.82 671.32 181.54 671.11 179.01 C 668.97 177.36 668.75 174.91 669.12 172.37 Z" />
</g>
<g id="#cfddd0ff">
<path fill="#cfddd0" opacity="1.00" d=" M 674.14 171.84 C 678.20 171.92 681.47 175.41 685.68 174.12 C 685.25 174.67 684.84 175.23 684.43 175.79 C 687.42 175.59 690.42 175.26 693.43 175.47 C 695.78 175.59 697.99 177.26 700.38 176.47 C 704.86 175.36 708.87 171.12 713.76 173.08 C 713.87 174.73 713.99 176.38 714.13 178.03 C 712.82 178.18 711.51 178.33 710.22 178.48 C 709.72 180.45 709.41 182.52 708.40 184.32 C 706.36 186.82 702.51 187.60 701.66 191.05 C 703.27 190.82 704.89 190.58 706.51 190.33 C 706.26 191.24 706.02 192.15 705.79 193.06 C 707.47 194.66 711.98 195.73 710.60 198.63 C 709.08 199.56 707.38 200.10 705.74 200.72 C 705.41 200.59 704.74 200.31 704.41 200.18 C 705.11 198.46 705.80 196.73 706.45 194.99 C 703.62 195.42 700.97 196.51 698.63 198.13 C 698.16 197.71 697.23 196.87 696.76 196.45 C 697.10 190.11 703.60 186.93 705.15 181.17 C 702.94 182.36 700.76 183.59 698.57 184.82 C 698.15 187.83 698.68 192.14 695.05 193.32 C 692.39 192.21 690.10 190.40 687.58 189.04 C 685.70 187.08 685.29 184.41 685.27 181.81 C 681.45 180.14 679.28 176.52 676.72 173.46 C 676.20 173.57 675.16 173.79 674.64 173.89 C 674.52 173.38 674.27 172.35 674.14 171.84 Z" />
</g>
<g id="#adc798ff">
<path fill="#adc798" opacity="1.00" d=" M 674.64 173.89 C 675.16 173.79 676.20 173.57 676.72 173.46 C 679.28 176.52 681.45 180.14 685.27 181.81 C 685.29 184.41 685.70 187.08 687.58 189.04 C 689.19 192.08 692.13 193.75 695.38 194.57 C 695.82 195.20 696.28 195.83 696.76 196.45 C 697.23 196.87 698.16 197.71 698.63 198.13 C 702.34 201.17 707.03 202.89 711.85 202.66 C 711.74 204.06 711.63 205.47 711.59 206.88 C 709.00 206.77 706.39 206.66 703.86 206.11 C 704.64 205.38 705.42 204.66 706.21 203.93 C 702.54 201.97 698.44 200.62 695.42 197.63 C 692.31 194.69 687.95 193.06 685.90 189.09 C 683.79 185.25 681.76 181.16 677.80 178.89 C 677.75 179.43 677.66 180.52 677.62 181.06 C 676.76 179.25 675.87 177.46 675.11 175.62 L 674.64 173.89 Z" />
</g>
<g id="#a3c289ff">
<path fill="#a3c289" opacity="1.00" d=" M 596.65 182.75 C 597.52 180.19 598.62 177.71 599.79 175.28 C 600.69 176.56 601.60 177.84 602.51 179.13 C 601.70 180.92 600.97 182.75 600.27 184.59 C 598.93 184.49 597.59 184.36 596.26 184.27 C 596.36 183.89 596.56 183.13 596.65 182.75 Z" />
</g>
<g id="#c2d5c3ff">
<path fill="#c2d5c3" opacity="1.00" d=" M 710.22 178.48 C 711.51 178.33 712.82 178.18 714.13 178.03 C 714.27 180.14 714.41 182.25 714.54 184.37 C 716.63 185.29 718.72 186.24 720.92 186.92 C 717.91 190.49 720.50 195.06 720.29 199.11 C 719.36 204.38 716.09 208.88 712.45 212.65 C 712.05 210.74 711.67 208.83 711.59 206.88 C 711.63 205.47 711.74 204.06 711.85 202.66 C 707.03 202.89 702.34 201.17 698.63 198.13 C 700.97 196.51 703.62 195.42 706.45 194.99 C 705.80 196.73 705.11 198.46 704.41 200.18 C 704.74 200.31 705.41 200.59 705.74 200.72 C 707.38 200.10 709.08 199.56 710.60 198.63 C 711.98 195.73 707.47 194.66 705.79 193.06 C 706.02 192.15 706.26 191.24 706.51 190.33 C 704.89 190.58 703.27 190.82 701.66 191.05 C 702.51 187.60 706.36 186.82 708.40 184.32 C 709.41 182.52 709.72 180.45 710.22 178.48 M 714.49 190.42 C 713.29 193.06 713.25 196.04 712.50 198.82 C 713.04 198.77 714.14 198.66 714.69 198.61 C 715.38 196.51 716.26 194.43 716.49 192.22 C 716.14 191.31 715.70 189.98 714.49 190.42 Z" />
</g>
<g id="#899b5cff">
<path fill="#899b5c" opacity="1.00" d=" M 677.80 178.89 C 681.76 181.16 683.79 185.25 685.90 189.09 C 687.95 193.06 692.31 194.69 695.42 197.63 C 698.44 200.62 702.54 201.97 706.21 203.93 C 705.42 204.66 704.64 205.38 703.86 206.11 C 700.45 204.84 697.10 203.36 694.00 201.45 C 693.42 201.08 692.85 200.70 692.30 200.32 C 691.89 200.02 691.07 199.42 690.66 199.12 C 686.79 196.15 683.63 192.36 681.23 188.12 C 679.97 185.79 678.70 183.47 677.62 181.06 C 677.66 180.52 677.75 179.43 677.80 178.89 Z" />
</g>
<g id="#baceb2ff">
<path fill="#baceb2" opacity="1.00" d=" M 698.57 184.82 C 700.76 183.59 702.94 182.36 705.15 181.17 C 703.60 186.93 697.10 190.11 696.76 196.45 C 696.28 195.83 695.82 195.20 695.38 194.57 C 692.13 193.75 689.19 192.08 687.58 189.04 C 690.10 190.40 692.39 192.21 695.05 193.32 C 698.68 192.14 698.15 187.83 698.57 184.82 Z" />
</g>
<g id="#7da269ff">
<path fill="#7da269" opacity="1.00" d=" M 587.73 182.65 C 589.10 186.27 590.51 190.38 594.43 191.94 C 594.87 190.17 595.33 188.40 595.77 186.63 C 595.75 188.71 595.85 190.80 595.85 192.88 C 595.44 192.96 594.62 193.11 594.20 193.18 C 593.50 193.29 592.10 193.50 591.40 193.61 C 591.29 197.32 591.93 200.98 593.01 204.52 C 595.30 203.20 597.80 202.27 600.46 203.00 C 603.27 203.83 606.06 202.87 608.64 201.76 C 610.74 201.51 612.86 201.35 614.98 201.20 C 613.94 203.41 612.71 205.54 611.17 207.44 C 610.98 207.59 610.59 207.89 610.40 208.04 C 610.30 207.23 610.10 205.61 610.00 204.80 C 605.36 204.64 600.71 204.70 596.08 205.06 C 595.83 205.42 595.32 206.14 595.07 206.49 L 594.81 206.91 C 594.50 207.38 593.89 208.32 593.58 208.79 C 591.71 206.88 590.00 204.82 588.47 202.63 C 588.30 195.97 587.63 189.32 587.73 182.65 Z" />
</g>
<g id="#77a255ff">
<path fill="#77a255" opacity="1.00" d=" M 623.01 197.00 C 630.47 193.80 635.62 187.01 643.09 183.89 C 640.72 186.61 637.77 188.69 634.98 190.93 C 630.03 195.10 623.76 197.44 619.28 202.20 C 622.09 204.45 625.91 203.56 629.12 204.84 C 633.72 206.45 638.46 204.48 643.15 204.48 C 638.75 208.28 632.21 206.31 627.90 210.22 C 626.11 207.51 623.71 205.12 620.43 204.42 C 617.71 203.27 615.41 205.70 613.17 206.85 C 612.67 207.00 611.67 207.30 611.17 207.44 C 612.71 205.54 613.94 203.41 614.98 201.20 C 612.86 201.35 610.74 201.51 608.64 201.76 C 610.08 200.73 611.60 199.79 613.28 199.17 C 613.31 198.84 613.38 198.18 613.41 197.85 C 616.56 197.21 619.78 196.33 623.01 197.00 Z" />
</g>
<g id="#e4ebf2ff">
<path fill="#e4ebf2" opacity="1.00" d=" M 720.92 186.92 L 722.40 187.12 C 722.52 188.90 722.81 190.67 723.08 192.44 C 721.05 213.38 716.23 233.99 710.01 254.07 L 709.70 254.28 C 706.71 256.18 703.85 258.30 701.33 260.81 C 696.95 263.77 691.83 265.23 686.95 267.12 C 682.08 268.07 677.06 266.12 672.22 267.47 C 668.04 268.50 663.20 270.19 659.38 267.26 C 663.55 266.19 668.12 266.06 671.77 263.53 C 672.77 262.82 673.78 262.10 674.81 261.41 C 677.12 259.90 679.58 258.54 681.49 256.51 C 683.67 254.08 685.75 251.55 687.59 248.85 C 689.55 247.94 691.48 247.00 693.43 246.04 C 692.87 243.29 692.20 240.57 691.66 237.83 C 691.71 237.26 691.82 236.12 691.88 235.56 C 691.81 235.30 691.67 234.79 691.60 234.53 C 687.63 233.03 686.15 228.83 686.40 224.87 C 689.40 223.74 692.71 223.67 695.64 222.34 C 698.00 220.95 700.25 219.36 702.79 218.28 C 704.57 217.64 705.93 216.35 707.14 214.94 C 708.36 214.76 709.58 214.58 710.82 214.41 C 711.23 213.97 712.04 213.09 712.45 212.65 C 716.09 208.88 719.36 204.38 720.29 199.11 C 720.50 195.06 717.91 190.49 720.92 186.92 Z" />
</g>
<g id="#8eb37aff">
<path fill="#8eb37a" opacity="1.00" d=" M 666.52 192.12 C 667.52 191.27 668.52 190.42 669.54 189.58 C 670.01 191.11 670.75 192.54 671.70 193.84 C 673.41 196.32 675.40 198.57 677.60 200.63 C 672.72 201.58 667.05 201.61 663.40 197.68 C 664.60 196.82 665.80 195.95 667.00 195.08 C 666.83 194.09 666.67 193.10 666.52 192.12 Z" />
</g>
<g id="#9db78cff">
<path fill="#9db78c" opacity="1.00" d=" M 714.49 190.42 C 715.70 189.98 716.14 191.31 716.49 192.22 C 716.26 194.43 715.38 196.51 714.69 198.61 C 714.14 198.66 713.04 198.77 712.50 198.82 C 713.25 196.04 713.29 193.06 714.49 190.42 Z" />
</g>
<g id="#597e3bff">
<path fill="#597e3b" opacity="1.00" d=" M 591.40 193.61 C 592.10 193.50 593.50 193.29 594.20 193.18 C 595.30 194.64 596.39 196.10 597.49 197.56 C 600.18 198.14 602.82 198.96 605.26 200.26 C 603.69 201.24 602.10 202.17 600.46 203.00 C 597.80 202.27 595.30 203.20 593.01 204.52 C 591.93 200.98 591.29 197.32 591.40 193.61 Z" />
</g>
<g id="#acc899ff">
<path fill="#acc899" opacity="1.00" d=" M 671.70 193.84 C 675.02 194.16 678.36 194.75 681.47 195.99 C 683.20 196.98 684.53 198.53 686.21 199.61 C 687.70 199.59 689.18 199.32 690.66 199.12 C 691.07 199.42 691.89 200.02 692.30 200.32 C 689.16 200.88 686.01 201.45 683.01 202.55 C 678.32 207.30 671.27 207.60 665.81 211.08 C 664.97 210.57 664.15 210.06 663.33 209.56 C 665.12 208.56 666.93 207.57 668.75 206.61 C 667.21 206.05 665.54 205.75 664.19 204.81 C 662.82 203.18 662.30 201.03 661.53 199.09 C 662.00 198.74 662.93 198.04 663.40 197.68 C 667.05 201.61 672.72 201.58 677.60 200.63 C 675.40 198.57 673.41 196.32 671.70 193.84 Z" />
</g>
<g id="#99ba7aff">
<path fill="#99ba7a" opacity="1.00" d=" M 656.94 206.93 C 659.76 205.23 660.65 202.04 661.53 199.09 C 662.30 201.03 662.82 203.18 664.19 204.81 C 665.54 205.75 667.21 206.05 668.75 206.61 C 666.93 207.57 665.12 208.56 663.33 209.56 C 664.15 210.06 664.97 210.57 665.81 211.08 C 665.20 211.77 664.61 212.47 664.03 213.19 C 662.81 213.41 661.60 213.61 660.40 213.83 C 659.88 212.87 659.38 211.91 658.89 210.95 C 658.23 209.61 657.58 208.27 656.94 206.93 Z" />
</g>
<g id="#aacb8bff">
<path fill="#aacb8b" opacity="1.00" d=" M 692.30 200.32 C 692.85 200.70 693.42 201.08 694.00 201.45 C 693.45 202.94 692.92 204.43 692.39 205.92 C 694.32 206.96 696.24 208.00 698.18 209.04 C 694.40 209.17 690.63 209.25 686.86 209.42 C 688.75 213.88 694.41 213.43 698.34 214.52 C 692.09 215.34 685.93 213.57 679.69 213.60 C 680.92 212.85 682.15 212.10 683.39 211.35 C 682.24 209.84 681.11 208.32 680.00 206.79 C 682.17 205.46 684.67 206.34 686.98 206.67 C 686.36 204.68 685.02 203.19 683.01 202.55 C 686.01 201.45 689.16 200.88 692.30 200.32 Z" />
</g>
<g id="#b9d5a6ff">
<path fill="#b9d5a6" opacity="1.00" d=" M 692.39 205.92 C 692.92 204.43 693.45 202.94 694.00 201.45 C 697.10 203.36 700.45 204.84 703.86 206.11 C 706.39 206.66 709.00 206.77 711.59 206.88 C 711.67 208.83 712.05 210.74 712.45 212.65 C 712.04 213.09 711.23 213.97 710.82 214.41 C 709.58 214.58 708.36 214.76 707.14 214.94 C 705.93 216.35 704.57 217.64 702.79 218.28 C 702.67 216.97 702.56 215.67 702.45 214.37 C 701.07 214.41 699.70 214.47 698.34 214.52 C 694.41 213.43 688.75 213.88 686.86 209.42 C 690.63 209.25 694.40 209.17 698.18 209.04 C 696.24 208.00 694.32 206.96 692.39 205.92 Z" />
</g>
<g id="#95b582ff">
<path fill="#95b582" opacity="1.00" d=" M 588.47 202.63 C 590.00 204.82 591.71 206.88 593.58 208.79 C 593.89 208.32 594.50 207.38 594.81 206.91 C 595.00 208.57 595.27 210.21 595.54 211.87 C 600.01 211.87 603.72 209.19 607.19 206.70 C 603.15 206.46 599.11 206.51 595.07 206.49 C 595.32 206.14 595.83 205.42 596.08 205.06 C 600.71 204.70 605.36 204.64 610.00 204.80 C 610.10 205.61 610.30 207.23 610.40 208.04 C 606.62 211.68 600.46 212.12 597.71 216.90 C 598.52 218.22 599.42 219.50 600.43 220.70 C 599.40 221.70 599.25 223.13 599.16 224.49 C 594.03 221.34 595.14 214.39 592.20 209.76 C 591.40 209.58 589.79 209.21 588.99 209.03 C 588.78 206.90 588.59 204.76 588.47 202.63 Z" />
</g>
<g id="#8db468ff">
<path fill="#8db468" opacity="1.00" d=" M 665.81 211.08 C 671.27 207.60 678.32 207.30 683.01 202.55 C 685.02 203.19 686.36 204.68 686.98 206.67 C 684.67 206.34 682.17 205.46 680.00 206.79 C 681.11 208.32 682.24 209.84 683.39 211.35 C 682.15 212.10 680.92 212.85 679.69 213.60 C 685.93 213.57 692.09 215.34 698.34 214.52 C 699.70 214.47 701.07 214.41 702.45 214.37 C 702.56 215.67 702.67 216.97 702.79 218.28 C 700.25 219.36 698.00 220.95 695.64 222.34 C 692.71 223.67 689.40 223.74 686.40 224.87 C 685.95 225.10 685.04 225.56 684.59 225.79 C 685.17 228.14 685.75 230.50 686.16 232.90 L 684.99 233.29 C 684.60 230.71 684.09 228.16 683.52 225.63 C 680.20 225.48 676.83 225.12 673.79 223.68 C 671.41 222.95 670.21 221.03 670.20 218.61 C 668.51 217.93 666.83 217.27 665.14 216.64 C 666.61 215.83 669.27 216.14 669.80 214.22 C 669.61 213.71 669.22 212.70 669.03 212.19 C 667.37 212.55 665.70 212.88 664.03 213.19 C 664.61 212.47 665.20 211.77 665.81 211.08 Z" />
</g>
<g id="#c3d6ceff">
<path fill="#c3d6ce" opacity="1.00" d=" M 595.07 206.49 C 599.11 206.51 603.15 206.46 607.19 206.70 C 603.72 209.19 600.01 211.87 595.54 211.87 C 595.27 210.21 595.00 208.57 594.81 206.91 L 595.07 206.49 Z" />
</g>
<g id="#6b9848ff">
<path fill="#6b9848" opacity="1.00" d=" M 611.17 207.44 C 611.67 207.30 612.67 207.00 613.17 206.85 C 612.52 207.72 611.92 208.61 611.30 209.49 C 613.69 210.08 616.07 210.76 618.36 211.70 C 616.28 211.57 614.22 211.52 612.15 211.45 C 613.53 212.87 614.88 214.33 616.21 215.80 C 614.22 217.03 612.32 218.37 610.52 219.86 C 612.38 222.97 615.70 224.25 619.12 224.80 C 619.43 225.30 620.05 226.30 620.36 226.81 C 617.29 226.88 614.23 227.04 611.17 227.14 C 611.22 228.09 611.28 229.04 611.34 230.00 C 609.86 229.34 608.38 228.69 606.90 228.05 C 607.73 227.76 608.57 227.47 609.42 227.19 C 609.50 226.88 609.67 226.27 609.75 225.96 C 605.97 222.65 602.25 219.17 597.71 216.90 C 600.46 212.12 606.62 211.68 610.40 208.04 C 610.59 207.89 610.98 207.59 611.17 207.44 Z" />
</g>
<g id="#1d242dff">
<path fill="#1d242d" opacity="1.00" d=" M 655.69 207.99 C 656.00 207.73 656.63 207.20 656.94 206.93 C 657.58 208.27 658.23 209.61 658.89 210.95 C 658.75 212.19 658.30 213.30 657.55 214.29 C 657.14 214.62 656.33 215.27 655.92 215.59 C 657.34 216.31 658.87 216.75 660.44 217.08 C 657.64 221.13 655.75 225.68 654.01 230.26 L 653.58 230.78 C 653.25 231.22 652.57 232.09 652.24 232.52 C 651.80 233.12 651.39 233.72 650.99 234.34 C 649.32 237.02 647.34 239.51 646.04 242.40 C 645.61 242.46 645.19 242.51 644.78 242.58 C 643.82 244.89 643.03 247.27 642.11 249.60 C 640.20 249.38 640.64 251.58 640.28 252.81 C 639.86 253.06 639.02 253.55 638.60 253.80 C 638.46 254.28 638.18 255.25 638.04 255.73 C 637.68 256.92 637.32 258.11 636.99 259.31 C 636.47 259.44 635.44 259.70 634.92 259.83 C 634.78 258.51 634.64 257.20 634.51 255.90 C 633.24 255.07 631.99 254.24 630.73 253.41 C 630.58 252.96 630.27 252.06 630.12 251.61 C 634.85 246.46 637.52 239.90 640.67 233.76 C 642.55 230.08 646.11 227.65 648.16 224.08 C 649.26 222.18 649.42 219.94 649.86 217.84 C 650.83 213.97 654.90 211.99 655.69 207.99 Z" />
</g>
<g id="#9bbaa5ff">
<path fill="#9bbaa5" opacity="1.00" d=" M 588.99 209.03 C 589.79 209.21 591.40 209.58 592.20 209.76 C 595.14 214.39 594.03 221.34 599.16 224.49 C 599.25 225.59 599.35 226.69 599.48 227.79 C 600.74 227.88 602.19 228.61 603.34 227.68 C 603.71 226.49 604.04 225.29 604.34 224.08 C 604.69 224.39 605.41 225.01 605.76 225.31 C 605.29 226.66 604.82 228.00 604.37 229.35 C 601.47 228.91 598.59 228.48 595.70 228.12 C 598.36 234.07 601.64 240.00 606.69 244.27 C 609.23 246.52 612.55 248.07 614.01 251.34 C 608.33 248.15 603.72 243.52 599.25 238.87 C 596.56 235.97 594.67 232.33 593.54 228.56 C 594.63 225.49 595.00 222.32 593.78 219.20 C 592.39 219.40 590.97 219.71 590.10 220.94 C 589.62 216.98 589.32 213.00 588.99 209.03 Z" />
</g>
<g id="#6c9a55ff">
<path fill="#6c9a55" opacity="1.00" d=" M 612.15 211.45 C 614.22 211.52 616.28 211.57 618.36 211.70 C 623.00 213.63 627.92 215.39 633.03 215.00 C 636.39 214.19 639.66 212.92 643.18 212.97 C 640.77 214.43 638.44 216.03 636.45 218.02 C 638.30 219.12 640.20 220.16 642.12 221.15 C 639.79 222.54 637.70 224.27 635.47 225.82 C 634.64 226.17 633.81 226.49 632.98 226.80 C 632.33 226.97 631.03 227.33 630.38 227.51 C 627.04 227.23 623.71 226.79 620.36 226.81 C 620.05 226.30 619.43 225.30 619.12 224.80 C 615.70 224.25 612.38 222.97 610.52 219.86 C 612.32 218.37 614.22 217.03 616.21 215.80 C 614.88 214.33 613.53 212.87 612.15 211.45 Z" />
</g>
<g id="#769f4cff">
<path fill="#769f4c" opacity="1.00" d=" M 658.89 210.95 C 659.38 211.91 659.88 212.87 660.40 213.83 C 661.60 213.61 662.81 213.41 664.03 213.19 C 665.70 212.88 667.37 212.55 669.03 212.19 C 669.22 212.70 669.61 213.71 669.80 214.22 C 669.27 216.14 666.61 215.83 665.14 216.64 C 666.83 217.27 668.51 217.93 670.20 218.61 C 670.21 221.03 671.41 222.95 673.79 223.68 C 672.53 224.79 671.29 225.90 670.05 227.02 C 671.07 230.49 673.98 232.43 677.35 233.29 C 674.65 233.19 671.96 233.11 669.28 232.92 C 664.07 231.76 658.99 228.53 653.58 230.78 L 654.01 230.26 C 658.30 226.93 659.00 220.30 664.71 218.70 C 664.05 217.63 663.39 216.56 662.75 215.49 C 661.00 215.09 659.27 214.70 657.55 214.29 C 658.30 213.30 658.75 212.19 658.89 210.95 Z" />
</g>
<g id="#507036ff">
<path fill="#507036" opacity="1.00" d=" M 655.92 215.59 C 656.33 215.27 657.14 214.62 657.55 214.29 C 659.27 214.70 661.00 215.09 662.75 215.49 C 663.39 216.56 664.05 217.63 664.71 218.70 C 659.00 220.30 658.30 226.93 654.01 230.26 C 655.75 225.68 657.64 221.13 660.44 217.08 C 658.87 216.75 657.34 216.31 655.92 215.59 Z" />
</g>
<g id="#7aa86aff">
<path fill="#7aa86a" opacity="1.00" d=" M 597.71 216.90 C 602.25 219.17 605.97 222.65 609.75 225.96 C 609.67 226.27 609.50 226.88 609.42 227.19 C 608.57 227.47 607.73 227.76 606.90 228.05 C 608.38 228.69 609.86 229.34 611.34 230.00 C 611.28 229.04 611.22 228.09 611.17 227.14 C 614.23 227.04 617.29 226.88 620.36 226.81 C 623.71 226.79 627.04 227.23 630.38 227.51 C 629.94 227.62 629.06 227.86 628.62 227.97 C 623.40 228.62 618.04 226.90 612.96 228.71 C 615.90 230.45 618.83 232.29 621.11 234.89 C 620.00 240.26 617.37 245.34 617.51 250.93 C 613.97 247.66 610.65 244.18 607.22 240.80 C 608.08 239.80 608.93 238.80 609.80 237.80 C 609.62 237.44 609.27 236.70 609.09 236.33 C 607.35 236.72 605.52 238.04 603.74 237.35 C 601.98 235.51 601.02 233.09 599.86 230.87 C 601.36 230.36 602.86 229.86 604.37 229.35 C 604.82 228.00 605.29 226.66 605.76 225.31 C 605.41 225.01 604.69 224.39 604.34 224.08 C 603.02 222.96 601.71 221.83 600.43 220.70 C 599.42 219.50 598.52 218.22 597.71 216.90 Z" />
</g>
<g id="#535d6eff">
<path fill="#535d6e" opacity="1.00" d=" M 647.47 218.76 C 648.26 218.45 649.06 218.14 649.86 217.84 C 649.42 219.94 649.26 222.18 648.16 224.08 C 646.11 227.65 642.55 230.08 640.67 233.76 C 637.52 239.90 634.85 246.46 630.12 251.61 C 629.93 251.03 629.55 249.88 629.36 249.31 C 630.22 248.44 631.09 247.58 631.92 246.69 C 636.05 239.83 639.52 232.55 644.27 226.08 C 645.96 223.96 646.89 221.39 647.47 218.76 Z" />
</g>
<g id="#b2c9c3ff">
<path fill="#b2c9c3" opacity="1.00" d=" M 590.10 220.94 C 590.97 219.71 592.39 219.40 593.78 219.20 C 595.00 222.32 594.63 225.49 593.54 228.56 C 594.67 232.33 596.56 235.97 599.25 238.87 C 603.72 243.52 608.33 248.15 614.01 251.34 C 617.14 255.11 621.92 256.72 625.55 259.89 C 620.21 259.57 616.42 255.63 612.56 252.43 C 607.00 248.02 600.78 244.26 596.34 238.63 C 594.38 235.77 593.64 232.22 591.28 229.60 C 590.75 226.73 590.41 223.84 590.10 220.94 Z" />
</g>
<g id="#88969eff">
<path fill="#88969e" opacity="1.00" d=" M 642.12 221.15 C 643.84 220.23 645.65 219.47 647.47 218.76 C 646.89 221.39 645.96 223.96 644.27 226.08 C 644.25 225.49 644.22 224.32 644.20 223.73 C 642.01 225.60 639.68 227.31 637.14 228.68 C 636.72 227.96 635.89 226.53 635.47 225.82 C 637.70 224.27 639.79 222.54 642.12 221.15 Z" />
</g>
<g id="#c0d4cfff">
<path fill="#c0d4cf" opacity="1.00" d=" M 599.16 224.49 C 599.25 223.13 599.40 221.70 600.43 220.70 C 601.71 221.83 603.02 222.96 604.34 224.08 C 604.04 225.29 603.71 226.49 603.34 227.68 C 602.19 228.61 600.74 227.88 599.48 227.79 C 599.35 226.69 599.25 225.59 599.16 224.49 Z" />
</g>
<g id="#abc1bbff">
<path fill="#abc1bb" opacity="1.00" d=" M 637.14 228.68 C 639.68 227.31 642.01 225.60 644.20 223.73 C 644.22 224.32 644.25 225.49 644.27 226.08 C 639.52 232.55 636.05 239.83 631.92 246.69 C 631.37 245.16 630.88 243.63 630.25 242.14 C 630.06 241.78 629.68 241.05 629.49 240.69 C 631.19 236.28 633.13 231.96 634.78 227.53 C 634.33 227.35 633.43 226.98 632.98 226.80 C 633.81 226.49 634.64 226.17 635.47 225.82 C 635.89 226.53 636.72 227.96 637.14 228.68 Z" />
<path fill="#abc1bb" opacity="1.00" d=" M 698.23 280.16 C 700.48 275.94 702.18 271.44 704.07 267.05 L 704.68 268.16 C 703.08 273.21 700.66 277.97 698.55 282.83 C 696.82 286.25 695.52 290.19 692.38 292.62 C 689.55 294.67 686.58 296.55 683.43 298.07 C 682.77 298.01 681.44 297.90 680.77 297.85 C 686.16 294.63 693.11 291.89 695.16 285.38 C 694.05 285.02 692.94 284.66 691.85 284.31 C 694.20 283.40 697.05 282.66 698.23 280.16 Z" />
</g>
<g id="#618e3fff">
<path fill="#618e3f" opacity="1.00" d=" M 670.05 227.02 C 671.29 225.90 672.53 224.79 673.79 223.68 C 676.83 225.12 680.20 225.48 683.52 225.63 C 684.09 228.16 684.60 230.71 684.99 233.29 C 682.44 233.46 679.89 233.42 677.35 233.29 C 673.98 232.43 671.07 230.49 670.05 227.02 Z" />
</g>
<g id="#aac59aff">
<path fill="#aac59a" opacity="1.00" d=" M 684.59 225.79 C 685.04 225.56 685.95 225.10 686.40 224.87 C 686.15 228.83 687.63 233.03 691.60 234.53 C 691.67 234.79 691.81 235.30 691.88 235.56 C 690.81 235.40 689.76 235.26 688.71 235.11 C 688.16 237.50 687.57 239.89 686.61 242.15 C 686.41 239.31 683.47 238.22 681.08 237.86 C 677.67 237.48 674.26 237.88 670.86 237.87 L 669.72 237.60 C 667.50 237.07 665.29 236.51 663.09 235.97 C 663.54 236.83 664.01 237.69 664.48 238.56 C 662.28 239.01 659.51 241.54 657.60 239.28 C 655.58 237.40 653.47 235.59 650.99 234.34 C 651.39 233.72 651.80 233.12 652.24 232.52 C 653.86 232.45 655.52 232.38 657.16 232.31 C 657.29 232.68 657.56 233.41 657.69 233.78 C 661.53 233.32 665.39 232.86 669.28 232.92 C 671.96 233.11 674.65 233.19 677.35 233.29 C 679.89 233.42 682.44 233.46 684.99 233.29 L 686.16 232.90 C 685.75 230.50 685.17 228.14 684.59 225.79 Z" />
</g>
<g id="#d5e2dcff">
<path fill="#d5e2dc" opacity="1.00" d=" M 630.38 227.51 C 631.03 227.33 632.33 226.97 632.98 226.80 C 633.43 226.98 634.33 227.35 634.78 227.53 C 633.13 231.96 631.19 236.28 629.49 240.69 C 626.47 236.98 627.69 232.20 628.62 227.97 C 629.06 227.86 629.94 227.62 630.38 227.51 Z" />
</g>
<g id="#8db68cff">
<path fill="#8db68c" opacity="1.00" d=" M 595.70 228.12 C 598.59 228.48 601.47 228.91 604.37 229.35 C 602.86 229.86 601.36 230.36 599.86 230.87 C 601.02 233.09 601.98 235.51 603.74 237.35 C 605.52 238.04 607.35 236.72 609.09 236.33 C 609.27 236.70 609.62 237.44 609.80 237.80 C 608.93 238.80 608.08 239.80 607.22 240.80 C 610.65 244.18 613.97 247.66 617.51 250.93 C 617.37 245.34 620.00 240.26 621.11 234.89 C 624.07 237.42 627.31 239.58 630.25 242.14 C 630.88 243.63 631.37 245.16 631.92 246.69 C 631.09 247.58 630.22 248.44 629.36 249.31 C 629.19 248.70 628.84 247.49 628.66 246.88 C 628.85 246.18 629.05 245.49 629.28 244.81 C 627.64 244.00 626.41 242.68 625.34 241.24 C 625.65 245.17 624.83 249.54 627.05 253.06 C 629.28 255.71 631.97 258.00 634.92 259.83 C 635.44 259.70 636.47 259.44 636.99 259.31 C 637.32 258.11 637.68 256.92 638.04 255.73 C 640.59 259.03 644.64 260.45 647.95 262.78 C 644.90 263.61 641.69 264.43 638.57 263.45 C 639.13 263.18 640.25 262.64 640.81 262.36 C 640.06 261.47 639.23 260.30 637.97 260.25 C 637.01 260.88 637.76 262.32 637.71 263.26 C 637.74 264.87 637.68 266.49 637.66 268.10 C 636.76 267.38 635.87 266.68 634.99 265.97 C 634.06 265.21 633.11 264.50 632.14 263.82 C 630.01 262.38 627.78 261.14 625.55 259.89 C 621.92 256.72 617.14 255.11 614.01 251.34 C 612.55 248.07 609.23 246.52 606.69 244.27 C 601.64 240.00 598.36 234.07 595.70 228.12 Z" />
</g>
<g id="#aabb98ff">
<path fill="#aabb98" opacity="1.00" d=" M 612.96 228.71 C 618.04 226.90 623.40 228.62 628.62 227.97 C 627.69 232.20 626.47 236.98 629.49 240.69 C 629.68 241.05 630.06 241.78 630.25 242.14 C 627.31 239.58 624.07 237.42 621.11 234.89 C 618.83 232.29 615.90 230.45 612.96 228.71 M 618.98 229.46 C 620.30 231.65 622.02 233.57 624.06 235.14 C 624.15 232.97 624.02 230.80 623.73 228.66 C 622.14 228.93 620.55 229.18 618.98 229.46 Z" />
</g>
<g id="#dae7efff">
<path fill="#dae7ef" opacity="1.00" d=" M 618.98 229.46 C 620.55 229.18 622.14 228.93 623.73 228.66 C 624.02 230.80 624.15 232.97 624.06 235.14 C 622.02 233.57 620.30 231.65 618.98 229.46 Z" />
</g>
<g id="#d6e6ecff">
<path fill="#d6e6ec" opacity="1.00" d=" M 591.28 229.60 C 593.64 232.22 594.38 235.77 596.34 238.63 C 600.78 244.26 607.00 248.02 612.56 252.43 C 616.42 255.63 620.21 259.57 625.55 259.89 C 627.78 261.14 630.01 262.38 632.14 263.82 C 629.60 263.30 627.01 263.32 624.44 263.38 C 624.52 264.61 624.61 265.84 624.70 267.07 C 620.89 266.54 616.81 265.85 613.94 263.05 C 612.00 261.17 609.43 260.36 606.97 259.43 C 603.88 256.02 600.64 252.74 596.93 249.99 C 596.38 250.19 595.27 250.60 594.72 250.80 C 593.40 243.76 592.20 236.70 591.28 229.60 Z" />
</g>
<g id="#8aad75ff">
<path fill="#8aad75" opacity="1.00" d=" M 653.58 230.78 C 658.99 228.53 664.07 231.76 669.28 232.92 C 665.39 232.86 661.53 233.32 657.69 233.78 C 657.56 233.41 657.29 232.68 657.16 232.31 C 655.52 232.38 653.86 232.45 652.24 232.52 C 652.57 232.09 653.25 231.22 653.58 230.78 Z" />
</g>
<g id="#ccdacaff">
<path fill="#ccdaca" opacity="1.00" d=" M 646.04 242.40 C 647.34 239.51 649.32 237.02 650.99 234.34 C 653.47 235.59 655.58 237.40 657.60 239.28 C 659.51 241.54 662.28 239.01 664.48 238.56 C 664.01 237.69 663.54 236.83 663.09 235.97 C 665.29 236.51 667.50 237.07 669.72 237.60 C 670.52 243.61 676.57 246.16 681.33 248.55 L 680.77 249.37 C 680.38 249.46 679.60 249.65 679.20 249.74 C 676.86 247.43 673.59 247.15 670.48 247.07 C 670.46 246.07 670.45 245.07 670.45 244.08 C 668.36 244.42 666.29 244.84 664.25 245.40 C 663.47 245.09 662.69 244.79 661.93 244.49 C 663.13 248.54 665.38 252.15 666.92 256.06 C 666.46 256.09 665.54 256.15 665.08 256.18 C 662.37 252.78 661.60 248.18 658.52 244.99 C 658.35 247.44 658.18 249.88 657.92 252.33 C 655.59 248.33 653.14 243.72 654.59 238.99 C 651.08 242.07 649.13 246.57 645.50 249.49 C 644.65 249.51 642.96 249.57 642.11 249.60 C 643.03 247.27 643.82 244.89 644.78 242.58 C 645.19 242.51 645.61 242.46 646.04 242.40 Z" />
</g>
<g id="#879b5dff">
<path fill="#879b5d" opacity="1.00" d=" M 688.71 235.11 C 689.76 235.26 690.81 235.40 691.88 235.56 C 691.82 236.12 691.71 237.26 691.66 237.83 C 690.79 241.66 689.57 245.44 687.59 248.85 C 685.75 251.55 683.67 254.08 681.49 256.51 C 679.75 254.11 680.34 251.09 682.28 249.01 C 684.13 247.01 685.60 244.68 686.61 242.15 C 687.57 239.89 688.16 237.50 688.71 235.11 Z" />
</g>
<g id="#d8e6dcff">
<path fill="#d8e6dc" opacity="1.00" d=" M 669.72 237.60 L 670.86 237.87 C 672.22 239.11 673.50 240.44 674.80 241.75 C 678.04 238.84 681.58 242.18 683.66 244.79 C 682.88 246.04 682.12 247.31 681.33 248.55 C 676.57 246.16 670.52 243.61 669.72 237.60 Z" />
</g>
<g id="#c3d9c0ff">
<path fill="#c3d9c0" opacity="1.00" d=" M 670.86 237.87 C 674.26 237.88 677.67 237.48 681.08 237.86 C 683.47 238.22 686.41 239.31 686.61 242.15 C 685.60 244.68 684.13 247.01 682.28 249.01 L 680.77 249.37 L 681.33 248.55 C 682.12 247.31 682.88 246.04 683.66 244.79 C 681.58 242.18 678.04 238.84 674.80 241.75 C 673.50 240.44 672.22 239.11 670.86 237.87 Z" />
</g>
<g id="#bdd2ccff">
<path fill="#bdd2cc" opacity="1.00" d=" M 687.59 248.85 C 689.57 245.44 690.79 241.66 691.66 237.83 C 692.20 240.57 692.87 243.29 693.43 246.04 C 691.48 247.00 689.55 247.94 687.59 248.85 Z" />
</g>
<g id="#dbe8e3ff">
<path fill="#dbe8e3" opacity="1.00" d=" M 645.50 249.49 C 649.13 246.57 651.08 242.07 654.59 238.99 C 653.14 243.72 655.59 248.33 657.92 252.33 C 658.18 249.88 658.35 247.44 658.52 244.99 C 661.60 248.18 662.37 252.78 665.08 256.18 C 665.54 256.15 666.46 256.09 666.92 256.06 C 665.38 252.15 663.13 248.54 661.93 244.49 C 662.69 244.79 663.47 245.09 664.25 245.40 C 666.29 244.84 668.36 244.42 670.45 244.08 C 670.45 245.07 670.46 246.07 670.48 247.07 C 673.59 247.15 676.86 247.43 679.20 249.74 C 678.96 252.86 677.39 255.54 674.73 257.19 C 672.43 258.14 670.03 258.78 667.65 259.47 C 668.79 261.04 670.19 262.39 671.77 263.53 C 668.12 266.06 663.55 266.19 659.38 267.26 C 657.63 267.42 656.04 266.60 654.50 265.92 C 655.90 265.65 657.33 265.44 658.75 265.24 C 658.72 264.86 658.66 264.10 658.63 263.73 C 655.59 262.73 652.36 262.57 649.28 261.78 C 645.27 260.11 641.01 257.49 640.28 252.81 C 640.64 251.58 640.20 249.38 642.11 249.60 C 642.96 249.57 644.65 249.51 645.50 249.49 Z" />
</g>
<g id="#51773dff">
<path fill="#51773d" opacity="1.00" d=" M 625.34 241.24 C 626.41 242.68 627.64 244.00 629.28 244.81 C 629.05 245.49 628.85 246.18 628.66 246.88 C 628.84 247.49 629.19 248.70 629.36 249.31 C 629.55 249.88 629.93 251.03 630.12 251.61 C 630.27 252.06 630.58 252.96 630.73 253.41 C 631.99 254.24 633.24 255.07 634.51 255.90 C 634.64 257.20 634.78 258.51 634.92 259.83 C 631.97 258.00 629.28 255.71 627.05 253.06 C 624.83 249.54 625.65 245.17 625.34 241.24 Z" />
</g>
<g id="#aab589ff">
<path fill="#aab589" opacity="1.00" d=" M 679.20 249.74 C 679.60 249.65 680.38 249.46 680.77 249.37 L 682.28 249.01 C 680.34 251.09 679.75 254.11 681.49 256.51 C 679.58 258.54 677.12 259.90 674.81 261.41 C 674.77 260.00 674.75 258.60 674.73 257.19 C 677.39 255.54 678.96 252.86 679.20 249.74 Z" />
</g>
<g id="#bacdd3ff">
<path fill="#bacdd3" opacity="1.00" d=" M 594.72 250.80 C 595.27 250.60 596.38 250.19 596.93 249.99 C 600.64 252.74 603.88 256.02 606.97 259.43 C 606.74 260.38 606.51 261.33 606.29 262.29 C 605.26 262.61 604.23 262.93 603.21 263.26 C 601.47 262.07 599.73 260.88 597.95 259.76 C 597.78 260.39 597.44 261.66 597.27 262.29 C 596.27 258.50 595.40 254.66 594.72 250.80 Z" />
</g>
<g id="#a9c3aeff">
<path fill="#a9c3ae" opacity="1.00" d=" M 638.60 253.80 C 639.02 253.55 639.86 253.06 640.28 252.81 C 641.01 257.49 645.27 260.11 649.28 261.78 C 652.36 262.57 655.59 262.73 658.63 263.73 C 658.66 264.10 658.72 264.86 658.75 265.24 C 657.33 265.44 655.90 265.65 654.50 265.92 C 651.54 266.76 648.70 267.95 645.74 268.79 C 647.05 267.47 649.68 266.60 649.59 264.47 C 649.18 264.05 648.36 263.21 647.95 262.78 C 644.64 260.45 640.59 259.03 638.04 255.73 C 638.18 255.25 638.46 254.28 638.60 253.80 Z" />
</g>
<g id="#bbd0d7ff">
<path fill="#bbd0d7" opacity="1.00" d=" M 701.33 260.81 C 703.85 258.30 706.71 256.18 709.70 254.28 C 708.40 259.03 706.64 263.65 704.68 268.16 L 704.07 267.05 C 703.98 266.89 703.80 266.58 703.72 266.43 C 703.35 266.52 702.62 266.70 702.25 266.79 C 699.77 267.37 697.29 267.95 694.82 268.55 C 697.17 266.13 699.67 263.79 701.33 260.81 Z" />
</g>
<g id="#c9d6c6ff">
<path fill="#c9d6c6" opacity="1.00" d=" M 667.65 259.47 C 670.03 258.78 672.43 258.14 674.73 257.19 C 674.75 258.60 674.77 260.00 674.81 261.41 C 673.78 262.10 672.77 262.82 671.77 263.53 C 670.19 262.39 668.79 261.04 667.65 259.47 Z" />
</g>
<g id="#cae0deff">
<path fill="#cae0de" opacity="1.00" d=" M 606.97 259.43 C 609.43 260.36 612.00 261.17 613.94 263.05 C 616.81 265.85 620.89 266.54 624.70 267.07 C 628.17 267.51 631.77 267.55 634.99 265.97 C 635.87 266.68 636.76 267.38 637.66 268.10 C 639.10 269.27 640.51 270.48 641.93 271.69 C 642.59 271.10 643.28 270.52 643.98 269.95 C 644.26 269.76 644.82 269.39 645.10 269.20 L 645.74 268.79 C 648.70 267.95 651.54 266.76 654.50 265.92 C 656.04 266.60 657.63 267.42 659.38 267.26 C 663.20 270.19 668.04 268.50 672.22 267.47 C 677.06 266.12 682.08 268.07 686.95 267.12 C 691.83 265.23 696.95 263.77 701.33 260.81 C 699.67 263.79 697.17 266.13 694.82 268.55 C 697.29 267.95 699.77 267.37 702.25 266.79 C 697.58 270.56 691.46 271.17 685.90 272.88 C 682.36 273.94 678.67 274.51 674.98 274.47 C 660.15 274.93 645.10 275.90 630.49 272.66 C 623.30 271.55 616.65 268.53 609.78 266.30 C 607.48 265.54 605.22 264.61 603.21 263.26 C 604.23 262.93 605.26 262.61 606.29 262.29 C 606.51 261.33 606.74 260.38 606.97 259.43 Z" />
</g>
<g id="#e5f3f6ff">
<path fill="#e5f3f6" opacity="1.00" d=" M 597.95 259.76 C 599.73 260.88 601.47 262.07 603.21 263.26 C 605.22 264.61 607.48 265.54 609.78 266.30 C 616.65 268.53 623.30 271.55 630.49 272.66 C 645.10 275.90 660.15 274.93 674.98 274.47 C 678.67 274.51 682.36 273.94 685.90 272.88 C 691.46 271.17 697.58 270.56 702.25 266.79 C 702.62 266.70 703.35 266.52 703.72 266.43 C 703.80 266.58 703.98 266.89 704.07 267.05 C 702.18 271.44 700.48 275.94 698.23 280.16 C 697.05 282.66 694.20 283.40 691.85 284.31 C 691.12 284.56 690.40 284.83 689.69 285.11 C 684.77 282.89 677.71 280.92 673.44 285.40 C 670.85 288.77 666.47 286.00 663.16 285.46 C 662.29 286.37 661.41 287.27 660.57 288.18 C 650.75 287.96 640.81 288.81 631.11 286.86 C 628.62 286.32 626.05 286.40 623.60 287.10 C 626.92 289.77 631.46 288.64 635.33 289.69 C 636.63 290.97 634.63 291.96 634.01 293.00 C 631.93 293.15 629.87 293.43 627.84 293.90 C 630.45 296.41 633.66 298.13 636.92 299.65 C 635.39 300.09 633.86 300.52 632.34 300.93 C 624.94 299.45 617.76 296.63 611.65 292.16 C 611.96 291.84 612.58 291.20 612.89 290.88 C 613.81 291.22 614.73 291.57 615.65 291.95 C 615.55 289.81 615.85 287.69 616.45 285.65 C 614.95 284.96 613.45 284.29 611.96 283.63 C 607.69 282.02 605.75 276.81 600.98 276.34 C 599.56 271.71 598.33 267.02 597.27 262.29 C 597.44 261.66 597.78 260.39 597.95 259.76 Z" />
</g>
<g id="#9cb8acff">
<path fill="#9cb8ac" opacity="1.00" d=" M 637.97 260.25 C 639.23 260.30 640.06 261.47 640.81 262.36 C 640.25 262.64 639.13 263.18 638.57 263.45 L 637.71 263.26 C 637.76 262.32 637.01 260.88 637.97 260.25 Z" />
</g>
<g id="#f3f9f2ff">
<path fill="#f3f9f2" opacity="1.00" d=" M 624.44 263.38 C 627.01 263.32 629.60 263.30 632.14 263.82 C 633.11 264.50 634.06 265.21 634.99 265.97 C 631.77 267.55 628.17 267.51 624.70 267.07 C 624.61 265.84 624.52 264.61 624.44 263.38 Z" />
</g>
<g id="#6e9767ff">
<path fill="#6e9767" opacity="1.00" d=" M 637.71 263.26 L 638.57 263.45 C 641.69 264.43 644.90 263.61 647.95 262.78 C 648.36 263.21 649.18 264.05 649.59 264.47 C 649.68 266.60 647.05 267.47 645.74 268.79 L 645.10 269.20 C 644.83 267.99 644.56 266.79 644.29 265.59 C 642.49 265.62 639.51 264.44 639.10 267.07 C 638.90 269.77 642.18 269.53 643.98 269.95 C 643.28 270.52 642.59 271.10 641.93 271.69 C 640.51 270.48 639.10 269.27 637.66 268.10 C 637.68 266.49 637.74 264.87 637.71 263.26 Z" />
</g>
<g id="#51783bff">
<path fill="#51783b" opacity="1.00" d=" M 639.10 267.07 C 639.51 264.44 642.49 265.62 644.29 265.59 C 644.56 266.79 644.83 267.99 645.10 269.20 C 644.82 269.39 644.26 269.76 643.98 269.95 C 642.18 269.53 638.90 269.77 639.10 267.07 Z" />
</g>
<g id="#cde1e1ff">
<path fill="#cde1e1" opacity="1.00" d=" M 600.98 276.34 C 605.75 276.81 607.69 282.02 611.96 283.63 C 608.25 284.95 612.03 288.69 612.89 290.88 C 612.58 291.20 611.96 291.84 611.65 292.16 C 611.02 291.76 609.78 290.97 609.15 290.57 C 609.00 290.47 608.70 290.26 608.55 290.16 C 607.70 289.09 606.74 288.12 605.77 287.17 C 605.13 286.10 604.82 284.69 603.63 284.07 C 603.57 283.66 603.45 282.85 603.39 282.45 C 603.28 282.78 603.05 283.45 602.94 283.78 C 602.36 281.27 601.71 278.80 600.98 276.34 Z" />
</g>
<g id="#dcebf3ff">
<path fill="#dcebf3" opacity="1.00" d=" M 673.44 285.40 C 677.71 280.92 684.77 282.89 689.69 285.11 C 685.73 287.14 681.63 289.47 676.99 288.95 C 672.86 288.52 668.86 289.86 665.80 292.64 C 669.25 293.33 673.05 293.15 676.04 295.30 C 672.45 297.20 668.86 299.10 665.51 301.40 C 657.01 303.07 648.32 302.60 639.72 302.33 C 637.24 301.95 634.78 301.45 632.34 300.93 C 633.86 300.52 635.39 300.09 636.92 299.65 C 633.66 298.13 630.45 296.41 627.84 293.90 C 629.87 293.43 631.93 293.15 634.01 293.00 C 637.03 292.79 639.98 291.99 643.00 291.82 C 648.38 292.01 653.70 293.16 659.10 293.07 C 661.74 292.70 663.80 290.76 665.97 289.35 C 664.17 288.92 662.38 288.49 660.57 288.18 C 661.41 287.27 662.29 286.37 663.16 285.46 C 666.47 286.00 670.85 288.77 673.44 285.40 Z" />
</g>
<g id="#292b2b2f">
<path fill="#292b2b" opacity="0.18" d=" M 596.55 287.61 C 598.80 286.45 600.98 285.16 603.20 283.95 C 603.14 284.39 603.02 285.28 602.96 285.73 C 601.06 287.75 598.42 290.36 599.69 293.42 C 601.17 295.55 603.28 297.13 605.29 298.73 C 604.90 298.95 604.12 299.38 603.73 299.60 C 601.10 298.60 598.89 296.79 596.56 295.27 C 596.41 292.72 596.39 290.16 596.55 287.61 Z" />
<path fill="#292b2b" opacity="0.18" d=" M 683.43 298.07 C 686.58 296.55 689.55 294.67 692.38 292.62 C 692.36 294.26 692.35 295.90 692.36 297.55 C 688.12 302.88 681.20 304.49 674.84 305.66 C 662.41 308.48 649.56 307.86 636.92 307.43 C 626.33 306.20 615.43 304.87 605.65 300.41 C 605.56 299.99 605.38 299.15 605.29 298.73 C 619.96 305.09 636.17 306.90 652.03 306.73 C 657.26 306.63 662.72 306.88 667.56 304.56 C 669.36 304.53 671.18 304.59 673.00 304.66 C 670.50 304.18 668.02 303.61 665.54 303.13 C 671.75 302.59 677.87 300.90 683.43 298.07 Z" />
</g>
<g id="#acc7cbff">
<path fill="#acc7cb" opacity="1.00" d=" M 612.89 290.88 C 612.03 288.69 608.25 284.95 611.96 283.63 C 613.45 284.29 614.95 284.96 616.45 285.65 C 615.85 287.69 615.55 289.81 615.65 291.95 C 614.73 291.57 613.81 291.22 612.89 290.88 Z" />
</g>
<g id="#cde5e1ff">
<path fill="#cde5e1" opacity="1.00" d=" M 689.69 285.11 C 690.40 284.83 691.12 284.56 691.85 284.31 C 692.94 284.66 694.05 285.02 695.16 285.38 C 693.11 291.89 686.16 294.63 680.77 297.85 C 675.78 299.39 670.70 300.70 665.51 301.40 C 668.86 299.10 672.45 297.20 676.04 295.30 C 673.05 293.15 669.25 293.33 665.80 292.64 C 668.86 289.86 672.86 288.52 676.99 288.95 C 681.63 289.47 685.73 287.14 689.69 285.11 Z" />
</g>
<g id="#3e414249">
<path fill="#3e4142" opacity="0.29" d=" M 599.69 293.42 C 598.42 290.36 601.06 287.75 602.96 285.73 L 603.70 285.83 C 604.11 286.47 604.93 287.76 605.34 288.40 C 604.87 290.72 605.12 293.07 605.59 295.37 C 617.72 303.46 632.79 304.74 646.97 305.39 C 653.86 305.83 660.67 304.29 667.56 304.56 C 662.72 306.88 657.26 306.63 652.03 306.73 C 636.17 306.90 619.96 305.09 605.29 298.73 C 603.28 297.13 601.17 295.55 599.69 293.42 Z" />
</g>
<g id="#62696b7a">
<path fill="#62696b" opacity="0.48" d=" M 605.34 288.40 L 606.31 287.74 C 607.26 289.11 608.16 290.52 609.27 291.78 C 613.37 296.09 619.12 298.37 624.61 300.36 C 636.46 303.96 649.12 304.89 661.40 303.37 C 662.77 303.27 664.15 303.19 665.54 303.13 C 668.02 303.61 670.50 304.18 673.00 304.66 C 671.18 304.59 669.36 304.53 667.56 304.56 C 660.67 304.29 653.86 305.83 646.97 305.39 C 632.79 304.74 617.72 303.46 605.59 295.37 C 605.12 293.07 604.87 290.72 605.34 288.40 Z" />
</g>
<g id="#8e9698e2">
<path fill="#8e9698" opacity="0.89" d=" M 665.51 301.40 C 670.70 300.70 675.78 299.39 680.77 297.85 C 681.44 297.90 682.77 298.01 683.43 298.07 C 677.87 300.90 671.75 302.59 665.54 303.13 C 664.15 303.19 662.77 303.27 661.40 303.37 C 654.16 303.45 646.83 304.00 639.72 302.33 C 648.32 302.60 657.01 303.07 665.51 301.40 Z" />
</g>
</svg>
