<?xml version="1.0" encoding="UTF-8" ?>
<!DOCTYPE svg PUBLIC "-//W3C//DTD SVG 1.1//EN" "http://www.w3.org/Graphics/SVG/1.1/DTD/svg11.dtd">
<svg width="400pt" height="170pt" viewBox="0 0 400 170" version="1.1" xmlns="http://www.w3.org/2000/svg">
<g id="#ffffffff">
</g>
<g id="#de6e11ff">
<path fill="#de6e11" opacity="1.00" d=" M 22.23 31.75 C 27.24 31.74 32.25 31.74 37.26 31.74 C 37.25 59.84 37.27 87.95 37.25 116.05 C 37.05 123.06 36.45 130.50 32.48 136.53 C 28.23 143.05 21.52 147.59 14.33 150.33 C 11.96 147.52 9.57 144.72 7.20 141.91 C 12.71 138.66 18.19 134.37 20.40 128.14 C 22.29 122.31 21.95 116.09 22.21 110.05 C 22.25 83.95 22.22 57.85 22.23 31.75 Z" />
<path fill="#de6e11" opacity="1.00" d=" M 50.81 60.69 C 61.15 56.17 72.66 53.93 83.92 55.43 C 89.27 56.28 94.85 58.44 98.11 62.99 C 100.86 66.73 101.82 71.47 101.78 76.04 C 101.76 92.44 101.77 108.85 101.77 125.25 C 97.98 125.26 94.19 125.27 90.41 125.23 C 90.09 122.86 89.76 120.49 89.45 118.12 C 83.94 122.75 77.29 126.50 69.93 126.75 C 63.34 127.08 55.93 125.79 51.41 120.56 C 47.21 115.45 46.52 108.18 47.94 101.91 C 49.25 95.55 54.24 90.52 60.04 87.93 C 68.59 83.95 78.24 83.81 87.49 84.01 C 87.37 79.10 88.23 73.39 84.73 69.38 C 81.27 65.66 75.75 65.60 71.04 65.76 C 64.85 66.01 58.84 67.68 53.02 69.70 C 52.29 66.70 51.54 63.69 50.81 60.69 M 66.97 95.87 C 59.37 99.59 59.93 113.18 68.33 115.56 C 75.39 117.54 82.21 113.53 87.50 109.24 C 87.47 103.91 87.48 98.59 87.48 93.27 C 80.62 93.33 73.26 92.52 66.97 95.87 Z" />
<path fill="#de6e11" opacity="1.00" d=" M 179.41 60.65 C 190.08 56.09 201.97 53.73 213.53 55.61 C 219.13 56.52 224.73 59.39 227.64 64.45 C 229.72 67.89 230.37 72.00 230.29 75.97 C 230.22 92.40 230.28 108.83 230.26 125.26 C 226.53 125.26 222.80 125.26 219.07 125.27 C 218.68 122.90 218.32 120.51 217.98 118.14 C 212.62 122.73 206.12 126.35 198.95 126.73 C 192.55 127.11 185.43 126.04 180.69 121.35 C 175.93 116.55 175.37 109.20 176.30 102.85 C 177.34 96.30 182.22 90.88 188.13 88.16 C 196.78 83.98 206.59 83.79 216.00 84.00 C 216.23 77.98 216.71 69.79 209.98 67.01 C 200.64 63.96 190.60 66.73 181.57 69.66 C 180.84 66.66 180.13 63.65 179.41 60.65 M 195.08 96.15 C 187.90 100.26 188.76 113.33 197.04 115.62 C 204.04 117.43 210.80 113.58 216.01 109.26 C 215.99 103.92 216.01 98.59 215.99 93.26 C 209.00 93.34 201.41 92.50 195.08 96.15 Z" />
<path fill="#de6e11" opacity="1.00" d=" M 109.72 56.23 C 114.96 56.23 120.21 56.23 125.46 56.23 C 130.72 74.46 137.55 92.27 141.37 110.88 C 147.74 93.19 152.42 74.87 154.92 56.23 C 159.99 56.23 165.06 56.22 170.13 56.24 C 165.97 80.00 159.07 103.35 148.92 125.26 C 142.92 125.26 136.92 125.27 130.92 125.25 C 123.88 102.23 116.78 79.24 109.72 56.23 Z" />
</g>
<g id="#5c819eff">
<path fill="#5c819e" opacity="1.00" d=" M 264.46 35.44 C 268.68 32.50 273.94 31.71 278.97 31.74 C 295.31 31.76 311.64 31.75 327.97 31.75 C 326.86 37.09 325.74 42.42 324.62 47.76 C 310.06 47.75 295.50 47.74 280.94 47.75 C 277.56 47.71 273.33 48.38 272.03 52.04 C 269.86 58.51 269.06 65.37 267.45 72.00 C 279.51 72.03 291.57 71.95 303.62 72.03 C 307.22 77.19 310.87 82.32 314.54 87.42 C 297.71 87.61 280.87 87.44 264.03 87.51 C 261.46 100.02 258.80 112.50 256.16 125.00 C 250.46 125.00 244.76 125.01 239.06 124.99 C 244.19 100.67 249.36 76.37 254.51 52.06 C 255.88 45.67 258.87 39.18 264.46 35.44 Z" />
<path fill="#5c819e" opacity="1.00" d=" M 302.99 56.26 C 309.28 56.23 315.57 56.27 321.86 56.23 C 326.67 63.20 331.45 70.18 336.27 77.14 C 342.82 70.09 349.51 63.18 356.15 56.22 C 363.49 56.31 370.83 56.16 378.17 56.32 C 367.27 67.73 356.35 79.12 345.52 90.60 C 353.39 102.07 361.34 113.49 369.17 124.99 C 362.86 125.01 356.55 125.01 350.24 124.98 C 345.04 117.31 339.75 109.70 334.49 102.06 C 327.26 109.73 319.95 117.33 312.71 124.99 C 305.43 124.96 298.15 125.13 290.87 124.87 C 302.09 112.53 313.97 100.79 325.23 88.48 C 317.71 77.81 310.38 67.01 302.99 56.26 Z" />
</g>
</svg>
