<?xml version="1.0" encoding="UTF-8" ?>
<!DOCTYPE svg PUBLIC "-//W3C//DTD SVG 1.1//EN" "http://www.w3.org/Graphics/SVG/1.1/DTD/svg11.dtd">
<svg width="299pt" height="299pt" viewBox="0 0 299 299" version="1.1" xmlns="http://www.w3.org/2000/svg">
<g id="#dc524aff">
<path fill="#dc524a" opacity="1.00" d=" M 146.48 0.00 L 154.95 0.00 C 170.55 1.03 186.05 4.01 200.76 9.35 C 200.90 17.31 200.76 25.26 200.85 33.22 C 200.79 37.20 200.81 41.17 200.86 45.15 C 165.68 45.12 130.50 45.13 95.32 45.15 C 92.73 78.17 90.15 111.20 87.55 144.23 C 92.38 147.13 97.25 149.98 102.10 152.86 C 118.13 149.74 134.70 146.86 150.97 149.91 C 160.06 151.53 169.34 155.38 175.01 162.98 C 181.18 171.20 182.15 182.10 180.95 192.01 C 179.92 201.01 175.59 209.85 168.12 215.20 C 158.35 222.34 145.75 223.87 133.97 223.62 C 116.43 222.96 98.87 218.73 83.36 210.39 C 83.44 220.21 83.32 230.04 83.44 239.86 C 83.59 253.99 83.46 268.13 83.51 282.27 C 68.74 274.92 55.18 265.11 43.66 253.29 C 18.86 228.27 3.63 194.11 1.33 158.97 C -0.36 134.51 4.25 109.63 14.41 87.31 C 27.61 58.26 50.44 33.72 78.46 18.45 C 99.24 6.97 122.81 0.88 146.48 0.00 Z" />
</g>
<g id="#25a162ff">
<path fill="#25a162" opacity="1.00" d=" M 200.97 9.50 C 230.96 20.04 257.04 41.02 274.42 67.57 C 289.79 90.86 298.14 118.53 299.00 146.36 L 299.00 151.55 C 298.37 172.08 293.85 192.58 285.22 211.26 C 272.63 238.72 251.46 262.15 225.40 277.43 C 203.28 290.57 177.68 297.52 152.01 298.03 C 128.36 298.22 104.68 292.83 83.51 282.27 C 83.46 268.13 83.59 253.99 83.44 239.86 C 94.57 246.21 107.37 248.86 120.00 250.11 C 140.26 251.82 161.62 251.25 180.28 242.29 C 196.09 234.83 208.25 220.16 212.43 203.16 C 216.04 188.41 216.23 172.39 211.00 158.00 C 205.28 142.33 191.57 130.36 175.82 125.36 C 157.61 119.56 138.01 120.83 119.50 124.41 C 121.00 107.65 122.54 90.89 124.08 74.14 C 149.67 74.12 175.26 74.15 200.85 74.13 C 200.87 64.47 200.86 54.81 200.86 45.15 C 200.81 41.17 200.79 37.20 200.85 33.22 C 201.10 25.32 200.92 17.41 200.97 9.50 Z" />
</g>
<g id="#ffffffff">
<path fill="#ffffff" opacity="1.00" d=" M 95.32 45.15 C 130.50 45.13 165.68 45.12 200.86 45.15 C 200.86 54.81 200.87 64.47 200.85 74.13 C 175.26 74.15 149.67 74.12 124.08 74.14 C 122.54 90.89 121.00 107.65 119.50 124.41 C 138.01 120.83 157.61 119.56 175.82 125.36 C 191.57 130.36 205.28 142.33 211.00 158.00 C 216.23 172.39 216.04 188.41 212.43 203.16 C 208.25 220.16 196.09 234.83 180.28 242.29 C 161.62 251.25 140.26 251.82 120.00 250.11 C 107.37 248.86 94.57 246.21 83.44 239.86 C 83.32 230.04 83.44 220.21 83.36 210.39 C 98.87 218.73 116.43 222.96 133.97 223.62 C 145.75 223.87 158.35 222.34 168.12 215.20 C 175.59 209.85 179.92 201.01 180.95 192.01 C 182.15 182.10 181.18 171.20 175.01 162.98 C 169.34 155.38 160.06 151.53 150.97 149.91 C 134.70 146.86 118.13 149.74 102.10 152.86 C 97.25 149.98 92.38 147.13 87.55 144.23 C 90.15 111.20 92.73 78.17 95.32 45.15 Z" />
</g>
</svg>
