<?xml version="1.0" encoding="UTF-8" ?>
<!DOCTYPE svg PUBLIC "-//W3C//DTD SVG 1.1//EN" "http://www.w3.org/Graphics/SVG/1.1/DTD/svg11.dtd">
<svg width="162pt" height="260pt" viewBox="0 0 162 260" version="1.1" xmlns="http://www.w3.org/2000/svg">
<g id="#668a3bfc">
<path fill="#668a3b" opacity="1.00" d=" M 69.13 3.29 C 72.30 3.83 74.90 1.49 77.93 1.00 C 77.54 4.00 76.02 6.95 76.73 10.01 C 77.28 12.01 74.71 13.87 76.39 15.70 C 75.22 17.10 73.79 18.81 74.83 20.71 C 73.68 21.91 72.33 23.12 72.88 24.97 C 72.08 25.62 71.29 26.27 70.49 26.92 C 71.33 28.82 69.63 30.12 68.17 30.97 C 62.89 32.08 57.55 34.48 52.07 33.18 C 50.58 32.99 49.43 32.02 48.56 30.87 C 55.17 30.07 63.22 32.24 67.98 26.14 C 62.94 28.76 57.43 30.55 51.70 29.31 C 52.57 25.25 57.35 26.07 60.37 25.03 C 63.72 23.69 67.13 22.34 70.05 20.18 C 66.86 20.79 64.20 22.86 61.06 23.59 C 59.50 23.37 57.99 22.92 56.48 22.51 C 52.92 26.60 48.89 30.25 44.76 33.75 C 44.61 32.60 44.45 31.44 44.30 30.29 C 43.53 30.32 42.76 30.34 41.99 30.37 C 41.38 27.98 40.65 25.33 42.07 23.07 C 43.15 21.52 42.34 19.75 41.96 18.12 C 41.16 18.93 40.37 19.74 39.58 20.55 C 39.00 20.50 37.84 20.41 37.26 20.36 C 37.62 18.88 37.92 17.24 39.78 17.27 C 41.49 15.11 43.17 12.66 45.88 11.69 C 48.24 10.72 50.43 9.39 52.27 7.61 C 54.47 9.76 56.28 5.98 58.40 5.28 C 59.00 5.32 60.21 5.41 60.81 5.45 C 62.06 5.01 63.40 3.41 64.81 4.24 C 66.30 5.11 67.66 3.47 69.13 3.29 Z" />
</g>
<g id="#262c3efb">
<path fill="#262c3e" opacity="1.00" d=" M 126.52 12.23 C 127.74 12.41 128.95 12.62 130.16 12.87 C 128.23 16.93 127.98 22.26 123.66 24.69 C 125.39 30.53 121.32 35.81 119.82 41.27 C 118.64 40.98 117.44 40.81 116.22 40.75 C 117.64 36.99 118.71 33.08 120.49 29.48 C 121.72 28.76 122.52 27.38 121.99 25.96 C 122.60 21.25 125.03 16.78 126.52 12.23 Z" />
</g>
<g id="#15181cfe">
<path fill="#15181c" opacity="1.00" d=" M 130.16 12.87 C 131.14 13.26 132.11 13.66 133.09 14.07 C 133.08 14.76 133.06 16.14 133.06 16.83 C 133.31 18.16 132.94 19.24 131.96 20.08 C 130.95 20.71 130.57 21.62 130.80 22.80 C 130.76 23.50 130.69 24.90 130.66 25.61 L 129.94 26.05 C 128.17 26.90 127.65 29.13 128.14 30.90 L 128.23 31.44 C 126.36 34.49 125.09 37.91 124.82 41.50 L 124.67 42.63 C 124.05 42.56 122.82 42.43 122.21 42.37 C 121.61 42.09 120.42 41.54 119.82 41.27 C 121.32 35.81 125.39 30.53 123.66 24.69 C 127.98 22.26 128.23 16.93 130.16 12.87 Z" />
</g>
<g id="#292e39b4">
<path fill="#292e39" opacity="0.71" d=" M 133.09 14.07 C 134.68 13.59 134.64 17.27 133.06 16.83 C 133.06 16.14 133.08 14.76 133.09 14.07 Z" />
</g>
<g id="#4d7a38fe">
<path fill="#4d7a38" opacity="1.00" d=" M 39.58 20.55 C 40.37 19.74 41.16 18.93 41.96 18.12 C 42.34 19.75 43.15 21.52 42.07 23.07 C 40.65 25.33 41.38 27.98 41.99 30.37 C 42.76 30.34 43.53 30.32 44.30 30.29 C 44.45 31.44 44.61 32.60 44.76 33.75 C 44.26 34.15 43.75 34.54 43.24 34.93 C 40.45 32.63 39.29 29.10 37.44 26.10 C 37.76 28.86 36.77 31.39 35.09 33.55 C 33.29 30.99 32.48 27.87 34.22 25.05 C 34.72 25.28 35.72 25.74 36.22 25.98 C 35.97 24.04 36.27 22.14 36.99 20.34 L 37.26 20.36 C 37.84 20.41 39.00 20.50 39.58 20.55 Z" />
</g>
<g id="#3c5929fa">
<path fill="#3c5929" opacity="0.98" d=" M 61.06 23.59 C 64.20 22.86 66.86 20.79 70.05 20.18 C 67.13 22.34 63.72 23.69 60.37 25.03 C 57.35 26.07 52.57 25.25 51.70 29.31 C 57.43 30.55 62.94 28.76 67.98 26.14 C 63.22 32.24 55.17 30.07 48.56 30.87 C 49.43 32.02 50.58 32.99 52.07 33.18 C 57.55 34.48 62.89 32.08 68.17 30.97 C 67.32 33.83 64.39 34.66 62.33 36.40 C 62.03 36.79 61.74 37.18 61.46 37.59 C 66.27 38.78 71.27 38.12 76.14 38.87 C 74.59 38.79 73.04 38.75 71.50 38.76 C 64.25 38.32 57.00 38.51 49.83 39.66 C 47.50 38.12 44.76 37.51 42.01 38.06 C 43.67 40.76 46.74 41.72 49.20 43.47 C 48.68 43.46 47.63 43.43 47.11 43.41 C 44.25 43.25 41.29 43.88 38.57 42.70 C 36.88 41.74 35.50 43.33 34.74 44.68 C 34.40 46.33 34.22 48.04 34.61 49.71 C 36.22 50.88 38.19 51.41 40.01 52.18 C 39.82 52.60 39.44 53.45 39.25 53.87 C 38.41 55.75 37.59 57.63 36.80 59.53 C 36.41 57.64 35.99 55.76 35.62 53.87 C 35.03 53.56 34.44 53.26 33.85 52.96 C 32.89 49.74 31.95 46.39 32.72 43.02 C 32.16 43.61 31.60 44.21 31.04 44.80 C 30.23 45.17 29.41 45.53 28.60 45.89 C 27.11 45.55 25.63 45.21 24.14 44.89 C 25.01 44.14 25.89 43.40 26.70 42.59 C 26.15 41.23 24.39 41.32 23.27 40.68 C 22.96 40.51 22.36 40.18 22.05 40.02 C 24.17 39.86 26.30 39.73 28.42 39.84 C 29.99 40.13 31.58 40.40 33.15 39.95 C 32.28 38.50 30.70 37.89 29.24 37.24 C 28.65 34.81 30.83 33.99 32.81 33.69 C 33.66 35.01 34.67 36.26 36.00 37.13 C 35.80 35.91 35.56 34.70 35.09 33.55 C 36.77 31.39 37.76 28.86 37.44 26.10 C 39.29 29.10 40.45 32.63 43.24 34.93 C 43.75 34.54 44.26 34.15 44.76 33.75 C 48.89 30.25 52.92 26.60 56.48 22.51 C 57.99 22.92 59.50 23.37 61.06 23.59 Z" />
</g>
<g id="#2a2f3ab3">
<path fill="#2a2f3a" opacity="0.70" d=" M 130.80 22.80 C 130.57 21.62 130.95 20.71 131.96 20.08 C 132.69 21.59 132.31 22.49 130.80 22.80 Z" />
</g>
<g id="#15181dfe">
<path fill="#15181d" opacity="1.00" d=" M 154.27 22.18 C 156.99 22.51 159.62 23.45 161.74 25.21 L 160.69 25.92 C 159.24 26.63 158.30 28.22 158.72 29.83 C 159.04 31.23 157.94 32.39 157.48 33.61 C 155.57 37.34 153.86 41.17 151.85 44.85 C 151.04 46.52 150.28 48.25 148.91 49.55 C 148.08 49.15 146.42 48.33 145.59 47.93 C 146.94 42.67 151.04 38.26 150.93 32.68 C 151.54 30.66 153.89 29.71 155.33 28.26 C 154.54 27.12 153.76 25.98 152.97 24.84 C 153.40 23.95 153.83 23.06 154.27 22.18 Z" />
</g>
<g id="#5d833afd">
<path fill="#5d833a" opacity="1.00" d=" M 20.37 22.29 C 22.94 21.91 25.58 23.36 28.01 22.19 C 29.58 22.90 31.17 24.02 32.97 23.33 C 33.28 23.76 33.91 24.62 34.22 25.05 C 32.48 27.87 33.29 30.99 35.09 33.55 C 35.56 34.70 35.80 35.91 36.00 37.13 C 34.67 36.26 33.66 35.01 32.81 33.69 C 31.34 31.27 29.12 29.51 26.71 28.12 C 25.34 29.21 23.99 30.34 22.66 31.47 C 22.32 30.99 21.65 30.03 21.31 29.55 C 21.86 27.07 20.65 24.73 20.37 22.29 Z" />
</g>
<g id="#2c3242fc">
<path fill="#2c3242" opacity="1.00" d=" M 146.09 39.13 C 147.47 34.11 150.59 29.53 152.97 24.84 C 153.76 25.98 154.54 27.12 155.33 28.26 C 153.89 29.71 151.54 30.66 150.93 32.68 C 151.04 38.26 146.94 42.67 145.59 47.93 C 144.52 47.55 143.46 47.16 142.40 46.77 C 142.49 46.31 142.68 45.40 142.78 44.94 C 142.87 44.54 143.04 43.73 143.13 43.33 L 143.99 42.98 C 145.75 42.60 146.34 40.73 146.09 39.13 Z" />
</g>
<g id="#363c4cb5">
<path fill="#363c4c" opacity="0.71" d=" M 121.44 25.88 L 121.99 25.96 C 122.52 27.38 121.72 28.76 120.49 29.48 C 120.17 28.14 120.49 26.94 121.44 25.88 Z" />
</g>
<g id="#2d323cc2">
<path fill="#2d323c" opacity="0.76" d=" M 128.14 30.90 C 127.65 29.13 128.17 26.90 129.94 26.05 C 130.33 27.52 129.54 30.41 128.14 30.90 Z" />
</g>
<g id="#474f5fff">
<path fill="#474f5f" opacity="1.00" d=" M 158.72 29.83 C 158.30 28.22 159.24 26.63 160.69 25.92 C 161.04 27.23 160.34 29.89 158.72 29.83 Z" />
<path fill="#474f5f" opacity="1.00" d=" M 103.59 76.57 C 105.70 71.35 106.90 65.82 109.11 60.63 C 109.09 62.19 109.11 63.74 109.18 65.30 C 109.20 69.59 109.92 73.89 112.27 77.56 C 112.25 77.88 112.20 78.51 112.17 78.83 C 111.29 80.69 110.38 82.54 109.72 84.50 C 109.56 82.20 109.32 79.78 107.70 78.00 C 107.07 79.70 106.42 81.39 105.67 83.05 C 104.89 80.92 104.18 78.76 103.59 76.57 Z" />
</g>
<g id="#4f7133fc">
<path fill="#4f7133" opacity="1.00" d=" M 22.66 31.47 C 23.99 30.34 25.34 29.21 26.71 28.12 C 29.12 29.51 31.34 31.27 32.81 33.69 C 30.83 33.99 28.65 34.81 29.24 37.24 C 30.70 37.89 32.28 38.50 33.15 39.95 C 31.58 40.40 29.99 40.13 28.42 39.84 C 27.00 37.11 23.72 37.87 21.19 37.73 C 22.56 37.11 24.13 37.63 25.58 37.47 C 24.63 35.41 22.63 33.93 22.66 31.47 Z" />
</g>
<g id="#292d38ae">
<path fill="#292d38" opacity="0.68" d=" M 124.82 41.50 C 125.09 37.91 126.36 34.49 128.23 31.44 C 127.60 34.92 126.48 38.38 124.82 41.50 Z" />
</g>
<g id="#5a647aff">
<path fill="#5a647a" opacity="1.00" d=" M 61.46 37.59 C 61.74 37.18 62.03 36.79 62.33 36.40 L 62.14 37.57 C 77.79 37.25 93.43 38.53 108.98 40.20 C 111.39 40.46 113.78 41.16 116.22 40.75 C 117.44 40.81 118.64 40.98 119.82 41.27 C 120.42 41.54 121.61 42.09 122.21 42.37 C 120.83 42.35 119.45 42.33 118.07 42.31 C 119.08 43.73 120.11 45.16 121.03 46.65 C 118.48 46.04 115.99 46.87 113.61 47.74 C 114.28 45.96 114.94 44.17 115.58 42.38 C 102.61 39.98 89.30 39.58 76.14 38.87 C 71.27 38.12 66.27 38.78 61.46 37.59 Z" />
</g>
<g id="#6d953cfa">
<path fill="#6d953c" opacity="0.98" d=" M 16.22 39.49 C 17.84 38.80 19.50 38.22 21.19 37.73 C 23.72 37.87 27.00 37.11 28.42 39.84 C 26.30 39.73 24.17 39.86 22.05 40.02 C 22.36 40.18 22.96 40.51 23.27 40.68 C 23.34 41.18 23.49 42.18 23.56 42.68 C 20.06 43.86 16.55 45.01 13.09 46.30 C 13.36 46.70 13.91 47.50 14.18 47.90 C 17.98 46.79 21.88 45.73 25.88 46.28 C 23.86 48.47 21.71 50.90 18.62 51.46 C 15.37 52.12 12.18 53.27 9.89 55.79 C 12.96 55.12 16.01 54.35 19.13 53.97 C 15.18 58.66 9.17 60.50 3.83 63.04 C 0.70 61.48 6.86 59.00 3.49 57.32 C 4.71 55.50 6.62 53.85 6.36 51.43 C 6.78 50.99 7.62 50.11 8.03 49.66 C 7.99 47.82 9.09 46.50 10.59 45.59 C 10.79 45.04 11.19 43.94 11.40 43.39 C 13.35 42.54 14.89 41.11 16.22 39.49 Z" />
</g>
<g id="#769643ff">
<path fill="#769643" opacity="1.00" d=" M 42.01 38.06 C 44.76 37.51 47.50 38.12 49.83 39.66 C 50.77 40.77 51.66 41.92 52.55 43.07 C 52.31 43.50 51.84 44.36 51.61 44.79 C 51.92 48.91 51.11 53.00 50.39 57.03 C 48.48 56.60 46.70 55.79 45.01 54.83 C 43.06 54.71 41.08 54.66 39.25 53.87 C 39.44 53.45 39.82 52.60 40.01 52.18 C 38.19 51.41 36.22 50.88 34.61 49.71 C 34.22 48.04 34.40 46.33 34.74 44.68 C 35.64 44.51 36.54 44.35 37.44 44.18 C 37.26 46.70 37.73 49.35 40.45 50.24 C 40.43 48.82 40.40 47.40 40.39 45.97 C 41.96 46.82 43.15 48.12 43.87 49.75 C 44.95 50.08 46.03 50.40 47.12 50.72 C 46.54 49.59 45.96 48.46 45.38 47.33 C 46.59 47.11 47.80 46.90 49.02 46.69 C 47.59 46.00 45.41 46.01 44.85 44.25 C 45.42 44.04 46.54 43.62 47.11 43.41 C 47.63 43.43 48.68 43.46 49.20 43.47 C 46.74 41.72 43.67 40.76 42.01 38.06 Z" />
</g>
<g id="#eff0f6ff">
<path fill="#eff0f6" opacity="1.00" d=" M 49.83 39.66 C 57.00 38.51 64.25 38.32 71.50 38.76 C 69.09 40.09 66.33 40.04 63.67 40.02 C 64.64 42.37 62.86 44.57 62.17 46.72 C 63.42 48.95 64.66 51.36 64.50 53.99 C 63.98 55.49 62.39 56.40 62.03 57.98 C 61.53 61.32 61.77 64.73 61.29 68.08 C 60.75 73.12 58.24 77.83 58.69 83.00 C 58.99 88.16 57.82 93.84 60.55 98.52 C 62.40 100.47 64.89 99.25 67.03 98.71 C 71.73 98.79 76.77 100.09 81.29 98.37 C 83.20 95.22 83.51 91.14 82.35 87.66 C 80.64 81.94 79.85 75.06 84.30 70.36 C 85.29 71.47 86.28 72.59 87.26 73.71 C 88.75 72.93 90.23 72.14 91.71 71.32 C 92.15 73.03 92.64 74.76 93.70 76.20 C 94.56 75.01 95.43 73.82 96.31 72.64 C 97.14 74.73 97.45 76.97 98.15 79.10 C 99.88 78.11 101.30 75.67 103.57 76.61 C 102.58 80.46 101.03 84.14 100.18 88.04 C 100.03 88.19 99.73 88.49 99.58 88.64 C 99.16 89.91 98.73 91.19 98.29 92.46 C 95.52 97.01 95.17 102.40 95.10 107.59 C 92.91 108.16 90.84 109.11 88.73 109.91 C 85.65 110.59 82.47 110.55 79.40 109.89 C 75.41 108.31 71.41 106.16 67.01 106.21 C 62.35 106.20 57.70 105.85 53.05 105.62 C 49.16 104.04 44.78 105.67 40.94 103.97 C 38.27 103.09 38.01 99.46 35.32 98.61 C 32.86 97.64 30.09 96.21 29.59 93.32 C 29.60 89.70 31.38 86.38 31.90 82.83 C 32.23 80.42 33.03 78.12 33.78 75.82 C 33.70 71.64 34.96 67.43 33.70 63.32 C 33.95 62.91 34.43 62.10 34.67 61.70 C 35.11 61.42 35.98 60.86 36.41 60.58 C 36.51 60.32 36.70 59.79 36.80 59.53 C 39.16 57.39 41.94 55.73 45.01 54.83 C 46.70 55.79 48.48 56.60 50.39 57.03 C 51.11 53.00 51.92 48.91 51.61 44.79 C 51.84 44.36 52.31 43.50 52.55 43.07 C 51.66 41.92 50.77 40.77 49.83 39.66 M 31.30 89.45 C 30.41 90.51 30.67 92.71 32.14 93.11 C 34.14 92.79 33.22 88.55 31.30 89.45 Z" />
</g>
<g id="#ffffffff">
<path fill="#ffffff" opacity="1.00" d=" M 71.50 38.76 C 73.04 38.75 74.59 38.79 76.14 38.87 C 89.30 39.58 102.61 39.98 115.58 42.38 C 114.94 44.17 114.28 45.96 113.61 47.74 C 112.04 52.01 110.51 56.30 109.11 60.63 C 106.90 65.82 105.70 71.35 103.59 76.57 L 103.57 76.61 C 101.30 75.67 99.88 78.11 98.15 79.10 C 97.45 76.97 97.14 74.73 96.31 72.64 C 95.43 73.82 94.56 75.01 93.70 76.20 C 92.64 74.76 92.15 73.03 91.71 71.32 C 90.23 72.14 88.75 72.93 87.26 73.71 C 86.28 72.59 85.29 71.47 84.30 70.36 C 79.85 75.06 80.64 81.94 82.35 87.66 C 83.51 91.14 83.20 95.22 81.29 98.37 C 76.77 100.09 71.73 98.79 67.03 98.71 C 64.89 99.25 62.40 100.47 60.55 98.52 C 57.82 93.84 58.99 88.16 58.69 83.00 C 58.24 77.83 60.75 73.12 61.29 68.08 C 61.77 64.73 61.53 61.32 62.03 57.98 C 62.39 56.40 63.98 55.49 64.50 53.99 C 64.66 51.36 63.42 48.95 62.17 46.72 C 62.86 44.57 64.64 42.37 63.67 40.02 C 66.33 40.04 69.09 40.09 71.50 38.76 Z" />
<path fill="#ffffff" opacity="1.00" d=" M 57.96 238.94 C 58.99 236.58 62.27 237.37 64.29 237.71 C 75.96 240.53 88.15 237.63 99.80 240.45 C 97.39 241.83 95.11 244.16 92.12 243.87 C 87.53 243.66 82.86 243.69 78.37 242.55 C 76.09 242.01 73.89 240.96 71.50 241.04 C 71.46 241.55 71.39 242.58 71.35 243.09 C 70.40 242.22 69.47 241.34 68.55 240.44 C 65.03 239.86 61.49 239.48 57.96 238.94 Z" />
</g>
<g id="#434a5dd0">
<path fill="#434a5d" opacity="0.82" d=" M 143.99 42.98 C 143.68 41.71 144.68 39.18 146.09 39.13 C 146.34 40.73 145.75 42.60 143.99 42.98 Z" />
</g>
<g id="#5b8038fb">
<path fill="#5b8038" opacity="1.00" d=" M 23.27 40.68 C 24.39 41.32 26.15 41.23 26.70 42.59 C 25.89 43.40 25.01 44.14 24.14 44.89 C 25.63 45.21 27.11 45.55 28.60 45.89 C 26.87 49.02 24.04 51.26 21.86 54.03 C 23.23 55.64 25.38 55.64 27.31 55.80 C 26.99 51.68 29.89 48.54 31.04 44.80 C 31.60 44.21 32.16 43.61 32.72 43.02 C 31.95 46.39 32.89 49.74 33.85 52.96 C 34.44 53.26 35.03 53.56 35.62 53.87 C 35.99 55.76 36.41 57.64 36.80 59.53 C 36.70 59.79 36.51 60.32 36.41 60.58 C 35.98 60.86 35.11 61.42 34.67 61.70 C 34.43 62.10 33.95 62.91 33.70 63.32 C 32.83 64.18 31.88 64.97 30.83 65.61 C 30.41 65.83 29.59 66.26 29.17 66.48 C 26.46 67.90 23.85 69.50 21.09 70.83 C 19.95 71.44 18.89 72.20 17.83 72.95 C 17.18 72.88 15.88 72.75 15.23 72.68 C 12.62 75.32 9.09 74.39 5.83 74.94 C 9.34 73.99 10.03 69.73 13.30 68.32 C 13.90 66.53 14.43 64.71 14.94 62.89 C 10.86 66.62 7.12 70.73 2.68 74.07 C 3.16 74.41 4.12 75.09 4.59 75.44 L 4.71 75.52 C 3.50 75.64 2.29 75.75 1.08 75.85 C 1.87 73.19 2.51 70.48 3.37 67.83 C 1.23 66.90 2.84 64.87 3.18 63.32 L 3.83 63.04 C 9.17 60.50 15.18 58.66 19.13 53.97 C 16.01 54.35 12.96 55.12 9.89 55.79 C 12.18 53.27 15.37 52.12 18.62 51.46 C 21.71 50.90 23.86 48.47 25.88 46.28 C 21.88 45.73 17.98 46.79 14.18 47.90 C 13.91 47.50 13.36 46.70 13.09 46.30 C 16.55 45.01 20.06 43.86 23.56 42.68 C 23.49 42.18 23.34 41.18 23.27 40.68 Z" />
</g>
<g id="#587f38f9">
<path fill="#587f38" opacity="0.98" d=" M 34.74 44.68 C 35.50 43.33 36.88 41.74 38.57 42.70 C 41.29 43.88 44.25 43.25 47.11 43.41 C 46.54 43.62 45.42 44.04 44.85 44.25 C 45.41 46.01 47.59 46.00 49.02 46.69 C 47.80 46.90 46.59 47.11 45.38 47.33 C 45.96 48.46 46.54 49.59 47.12 50.72 C 46.03 50.40 44.95 50.08 43.87 49.75 C 43.15 48.12 41.96 46.82 40.39 45.97 C 40.40 47.40 40.43 48.82 40.45 50.24 C 37.73 49.35 37.26 46.70 37.44 44.18 C 36.54 44.35 35.64 44.51 34.74 44.68 Z" />
</g>
<g id="#b1b6bfff">
<path fill="#b1b6bf" opacity="1.00" d=" M 122.21 42.37 C 122.82 42.43 124.05 42.56 124.67 42.63 C 129.85 43.52 134.98 44.71 140.05 46.09 C 141.25 46.55 142.15 46.16 142.78 44.94 C 142.68 45.40 142.49 46.31 142.40 46.77 C 143.46 47.16 144.52 47.55 145.59 47.93 C 146.16 50.72 148.63 52.14 150.64 53.84 C 149.19 53.77 147.75 53.71 146.30 53.60 C 145.41 50.88 143.74 48.58 140.79 47.94 C 140.25 49.57 139.70 51.19 138.98 52.75 L 138.05 52.87 C 138.37 51.47 138.67 50.06 138.94 48.65 C 134.14 46.47 129.08 44.72 123.82 44.13 C 123.67 46.76 121.39 48.50 120.98 51.05 C 119.78 56.53 117.39 61.63 115.93 67.03 C 114.66 70.96 114.04 75.12 112.17 78.83 C 112.20 78.51 112.25 77.88 112.27 77.56 C 114.17 68.15 117.75 59.20 120.43 50.01 C 120.68 48.90 120.88 47.78 121.03 46.65 C 120.11 45.16 119.08 43.73 118.07 42.31 C 119.45 42.33 120.83 42.35 122.21 42.37 Z" />
</g>
<g id="#779b3efe">
<path fill="#779b3e" opacity="1.00" d=" M 28.60 45.89 C 29.41 45.53 30.23 45.17 31.04 44.80 C 29.89 48.54 26.99 51.68 27.31 55.80 C 25.38 55.64 23.23 55.64 21.86 54.03 C 24.04 51.26 26.87 49.02 28.60 45.89 Z" />
</g>
<g id="#f4f4faff">
<path fill="#f4f4fa" opacity="1.00" d=" M 123.82 44.13 C 129.08 44.72 134.14 46.47 138.94 48.65 C 138.67 50.06 138.37 51.47 138.05 52.87 C 136.09 58.70 132.77 63.95 130.24 69.53 C 128.93 72.07 127.77 74.68 126.61 77.29 C 122.33 82.75 120.96 89.91 116.64 95.37 C 116.47 96.12 116.32 96.88 116.13 97.63 C 111.71 98.79 111.94 104.32 109.53 107.35 C 107.49 108.75 104.93 108.62 102.58 108.75 C 102.56 108.02 102.55 107.29 102.53 106.56 C 102.48 104.59 102.44 102.62 102.47 100.64 C 103.64 99.52 104.71 98.29 105.47 96.85 C 107.15 92.83 108.24 88.60 109.72 84.50 C 110.38 82.54 111.29 80.69 112.17 78.83 C 114.04 75.12 114.66 70.96 115.93 67.03 C 117.39 61.63 119.78 56.53 120.98 51.05 C 121.39 48.50 123.67 46.76 123.82 44.13 Z" />
</g>
<g id="#ebebf3ff">
<path fill="#ebebf3" opacity="1.00" d=" M 148.91 49.55 C 150.28 48.25 151.04 46.52 151.85 44.85 C 151.21 46.50 150.71 48.20 150.17 49.89 C 152.46 50.80 154.56 52.09 156.53 53.56 C 156.79 55.73 157.00 57.90 157.22 60.08 C 154.75 58.88 152.32 57.62 149.84 56.46 C 150.85 57.48 151.88 58.48 152.93 59.46 C 152.61 62.32 152.03 65.19 152.34 68.08 C 153.90 79.21 154.97 90.59 153.46 101.79 C 155.15 102.97 158.18 103.43 158.13 105.99 C 158.32 108.06 158.22 110.13 158.15 112.21 C 156.67 111.93 155.20 111.66 153.73 111.39 C 152.89 108.30 152.08 105.12 150.04 102.57 C 146.76 103.58 145.42 106.90 143.06 109.03 C 139.71 110.44 135.90 109.65 132.37 109.94 C 129.62 109.93 126.87 109.84 124.12 109.74 C 123.79 105.86 128.11 101.93 125.36 98.44 C 127.05 94.70 128.69 90.94 130.66 87.34 C 131.53 85.71 132.50 84.13 133.34 82.49 C 136.75 73.36 141.26 64.71 145.20 55.82 C 145.48 55.26 146.03 54.15 146.30 53.60 C 147.75 53.71 149.19 53.77 150.64 53.84 C 148.63 52.14 146.16 50.72 145.59 47.93 C 146.42 48.33 148.08 49.15 148.91 49.55 M 144.61 63.84 C 147.14 63.78 151.86 64.10 151.78 60.41 C 149.12 60.58 146.43 61.88 144.61 63.84 Z" />
</g>
<g id="#333a49ff">
<path fill="#333a49" opacity="1.00" d=" M 113.61 47.74 C 115.99 46.87 118.48 46.04 121.03 46.65 C 120.88 47.78 120.68 48.90 120.43 50.01 C 119.18 49.78 117.94 49.55 116.69 49.33 C 114.88 54.79 112.27 59.96 111.05 65.63 C 110.59 65.55 109.65 65.38 109.18 65.30 C 109.11 63.74 109.09 62.19 109.11 60.63 C 110.51 56.30 112.04 52.01 113.61 47.74 Z" />
</g>
<g id="#1a1d27ff">
<path fill="#1a1d27" opacity="1.00" d=" M 116.69 49.33 C 117.94 49.55 119.18 49.78 120.43 50.01 C 117.75 59.20 114.17 68.15 112.27 77.56 C 109.92 73.89 109.20 69.59 109.18 65.30 C 109.65 65.38 110.59 65.55 111.05 65.63 C 112.27 59.96 114.88 54.79 116.69 49.33 Z" />
</g>
<g id="#5c667bff">
<path fill="#5c667b" opacity="1.00" d=" M 140.79 47.94 C 143.74 48.58 145.41 50.88 146.30 53.60 C 146.03 54.15 145.48 55.26 145.20 55.82 C 145.11 54.67 145.00 53.53 144.88 52.39 C 142.91 52.48 140.94 52.57 138.98 52.75 C 139.70 51.19 140.25 49.57 140.79 47.94 Z" />
</g>
<g id="#222831ff">
<path fill="#222831" opacity="1.00" d=" M 138.98 52.75 C 140.94 52.57 142.91 52.48 144.88 52.39 C 145.00 53.53 145.11 54.67 145.20 55.82 C 141.26 64.71 136.75 73.36 133.34 82.49 C 130.71 78.83 131.29 73.81 130.24 69.53 C 132.77 63.95 136.09 58.70 138.05 52.87 L 138.98 52.75 Z" />
</g>
<g id="#b3bdbbfa">
<path fill="#b3bdbb" opacity="0.98" d=" M 39.25 53.87 C 41.08 54.66 43.06 54.71 45.01 54.83 C 41.94 55.73 39.16 57.39 36.80 59.53 C 37.59 57.63 38.41 55.75 39.25 53.87 Z" />
</g>
<g id="#fdfdfeff">
<path fill="#fdfdfe" opacity="1.00" d=" M 149.84 56.46 C 152.32 57.62 154.75 58.88 157.22 60.08 C 159.86 87.76 160.47 115.79 156.96 143.41 C 155.88 139.68 157.38 135.43 154.92 132.14 C 155.41 128.93 155.34 125.67 155.70 122.45 C 156.57 119.05 158.20 115.80 158.15 112.21 C 158.22 110.13 158.32 108.06 158.13 105.99 C 158.18 103.43 155.15 102.97 153.46 101.79 C 154.97 90.59 153.90 79.21 152.34 68.08 C 152.03 65.19 152.61 62.32 152.93 59.46 C 151.88 58.48 150.85 57.48 149.84 56.46 Z" />
</g>
<g id="#a2aabdff">
<path fill="#a2aabd" opacity="1.00" d=" M 144.61 63.84 C 146.43 61.88 149.12 60.58 151.78 60.41 C 151.86 64.10 147.14 63.78 144.61 63.84 Z" />
</g>
<g id="#769745f9">
<path fill="#769745" opacity="0.98" d=" M 2.68 74.07 C 7.12 70.73 10.86 66.62 14.94 62.89 C 14.43 64.71 13.90 66.53 13.30 68.32 C 10.03 69.73 9.34 73.99 5.83 74.94 L 4.59 75.44 C 4.12 75.09 3.16 74.41 2.68 74.07 Z" />
</g>
<g id="#d7dce9ff">
<path fill="#d7dce9" opacity="1.00" d=" M 30.83 65.61 C 31.88 64.97 32.83 64.18 33.70 63.32 C 34.96 67.43 33.70 71.64 33.78 75.82 C 33.03 78.12 32.23 80.42 31.90 82.83 C 31.38 86.38 29.60 89.70 29.59 93.32 C 30.09 96.21 32.86 97.64 35.32 98.61 C 38.01 99.46 38.27 103.09 40.94 103.97 C 44.78 105.67 49.16 104.04 53.05 105.62 C 51.09 105.55 49.13 105.67 47.20 105.95 C 42.88 105.78 38.54 105.94 34.24 105.52 C 32.21 104.39 34.58 102.26 34.99 100.79 C 32.79 99.76 30.70 98.54 28.79 97.03 C 28.24 94.65 28.05 92.19 28.16 89.75 C 28.48 84.37 29.77 79.10 29.83 73.70 C 30.37 71.03 30.53 68.31 30.83 65.61 Z" />
</g>
<g id="#303742ff">
<path fill="#303742" opacity="1.00" d=" M 21.09 70.83 C 23.85 69.50 26.46 67.90 29.17 66.48 C 28.71 68.68 28.52 70.94 27.92 73.11 C 27.51 74.47 25.86 75.06 25.63 76.50 C 24.88 81.13 24.28 85.80 23.87 90.49 C 23.55 94.48 23.90 98.52 22.49 102.36 C 21.86 99.95 21.89 97.47 22.04 95.00 C 22.16 93.38 21.98 91.73 22.29 90.13 C 23.25 88.31 23.33 86.26 23.12 84.25 C 23.55 79.55 24.34 74.85 25.43 70.25 C 23.97 70.33 22.53 70.52 21.09 70.83 Z" />
</g>
<g id="#5c6578ff">
<path fill="#5c6578" opacity="1.00" d=" M 29.17 66.48 C 29.59 66.26 30.41 65.83 30.83 65.61 C 30.53 68.31 30.37 71.03 29.83 73.70 C 28.62 76.63 27.25 79.53 26.50 82.63 C 26.07 85.44 27.59 89.40 23.87 90.49 C 24.28 85.80 24.88 81.13 25.63 76.50 C 25.86 75.06 27.51 74.47 27.92 73.11 C 28.52 70.94 28.71 68.68 29.17 66.48 Z" />
</g>
<g id="#475062ff">
<path fill="#475062" opacity="1.00" d=" M 126.61 77.29 C 127.77 74.68 128.93 72.07 130.24 69.53 C 131.29 73.81 130.71 78.83 133.34 82.49 C 132.50 84.13 131.53 85.71 130.66 87.34 C 130.30 85.76 129.93 84.18 129.16 82.75 C 128.27 83.69 127.39 84.63 126.51 85.58 C 125.62 85.06 124.73 84.54 123.85 84.03 C 124.89 81.83 126.25 79.74 126.61 77.29 Z" />
</g>
<g id="#899f9bff">
<path fill="#899f9b" opacity="1.00" d=" M 26.50 82.63 C 27.25 79.53 28.62 76.63 29.83 73.70 C 29.77 79.10 28.48 84.37 28.16 89.75 C 24.82 91.18 26.83 95.08 26.25 97.79 C 25.80 99.50 26.01 101.24 26.51 102.91 C 26.29 103.68 26.08 104.45 25.89 105.22 C 25.57 108.24 22.94 110.33 22.57 113.38 L 22.13 114.48 C 22.14 110.44 22.44 106.41 22.49 102.36 C 23.90 98.52 23.55 94.48 23.87 90.49 C 27.59 89.40 26.07 85.44 26.50 82.63 Z" />
</g>
<g id="#2c3239ff">
<path fill="#2c3239" opacity="1.00" d=" M 103.57 76.61 L 103.59 76.57 C 104.18 78.76 104.89 80.92 105.67 83.05 C 106.42 81.39 107.07 79.70 107.70 78.00 C 109.32 79.78 109.56 82.20 109.72 84.50 C 108.24 88.60 107.15 92.83 105.47 96.85 C 103.14 96.75 100.81 96.67 98.48 96.57 C 98.41 95.20 98.34 93.83 98.29 92.46 C 98.73 91.19 99.16 89.91 99.58 88.64 C 99.73 88.49 100.03 88.19 100.18 88.04 C 101.03 84.14 102.58 80.46 103.57 76.61 Z" />
<path fill="#2c3239" opacity="1.00" d=" M 36.90 233.18 C 37.15 233.14 37.65 233.06 37.90 233.01 C 38.21 237.43 42.46 240.51 45.65 243.22 C 55.84 250.61 68.66 253.32 81.03 253.87 C 85.57 254.84 90.10 253.66 94.65 253.48 C 96.31 253.66 97.96 253.92 99.60 254.23 C 99.52 254.46 99.37 254.92 99.29 255.15 C 97.49 253.53 95.11 254.50 93.01 254.48 C 83.04 255.35 72.96 254.83 63.15 252.85 C 55.74 250.32 48.19 247.58 42.26 242.27 C 41.08 241.05 39.96 239.78 38.87 238.50 C 38.06 237.33 37.36 236.07 36.71 234.82 C 36.75 234.41 36.85 233.59 36.90 233.18 Z" />
</g>
<g id="#8891a2ff">
<path fill="#8891a2" opacity="1.00" d=" M 116.64 95.37 C 120.96 89.91 122.33 82.75 126.61 77.29 C 126.25 79.74 124.89 81.83 123.85 84.03 C 122.27 89.30 118.43 93.62 117.45 99.09 C 116.31 102.49 113.80 105.29 113.22 108.92 C 114.95 109.05 116.69 109.05 118.42 108.84 C 118.80 107.20 119.19 105.57 119.58 103.94 C 119.90 104.53 120.54 105.71 120.86 106.30 C 120.71 107.43 120.57 108.57 120.43 109.70 C 117.45 109.87 114.46 109.76 111.50 109.38 C 111.54 105.04 115.21 101.79 116.13 97.63 C 116.32 96.88 116.47 96.12 116.64 95.37 Z" />
</g>
<g id="#2b2f35ff">
<path fill="#2b2f35" opacity="1.00" d=" M 126.51 85.58 C 127.39 84.63 128.27 83.69 129.16 82.75 C 129.93 84.18 130.30 85.76 130.66 87.34 C 128.69 90.94 127.05 94.70 125.36 98.44 L 124.81 99.30 C 122.36 99.62 119.87 99.65 117.45 99.09 C 118.43 93.62 122.27 89.30 123.85 84.03 C 124.73 84.54 125.62 85.06 126.51 85.58 Z" />
</g>
<g id="#49484992">
<path fill="#494849" opacity="0.57" d=" M 22.29 90.13 C 21.54 88.55 21.26 84.93 23.12 84.25 C 23.33 86.26 23.25 88.31 22.29 90.13 Z" />
</g>
<g id="#cad2e0ff">
<path fill="#cad2e0" opacity="1.00" d=" M 31.30 89.45 C 33.22 88.55 34.14 92.79 32.14 93.11 C 30.67 92.71 30.41 90.51 31.30 89.45 Z" />
</g>
<g id="#9eacbaff">
<path fill="#9eacba" opacity="1.00" d=" M 26.25 97.79 C 26.83 95.08 24.82 91.18 28.16 89.75 C 28.05 92.19 28.24 94.65 28.79 97.03 C 29.05 99.86 31.25 103.83 28.14 105.80 C 27.58 105.66 26.45 105.37 25.89 105.22 C 26.08 104.45 26.29 103.68 26.51 102.91 C 26.01 101.24 25.80 99.50 26.25 97.79 Z" />
</g>
<g id="#576077ff">
<path fill="#576077" opacity="1.00" d=" M 95.10 107.59 C 95.17 102.40 95.52 97.01 98.29 92.46 C 98.34 93.83 98.41 95.20 98.48 96.57 C 100.81 96.67 103.14 96.75 105.47 96.85 C 104.71 98.29 103.64 99.52 102.47 100.64 C 102.44 102.62 102.48 104.59 102.53 106.56 C 100.13 107.36 97.61 107.50 95.10 107.59 Z" />
</g>
<g id="#000000ff">
<path fill="#000000" opacity="1.00" d=" M 21.34 100.02 C 21.63 98.46 20.30 95.86 22.04 95.00 C 21.89 97.47 21.86 99.95 22.49 102.36 C 22.44 106.41 22.14 110.44 22.13 114.48 C 21.36 120.86 21.77 127.31 21.74 133.72 C 21.62 140.37 22.29 146.99 22.51 153.63 C 22.92 159.83 23.32 166.05 24.17 172.21 C 24.48 175.06 24.73 177.92 25.28 180.74 C 26.22 187.79 27.42 194.81 28.71 201.81 C 29.48 206.00 30.38 210.16 31.48 214.28 C 32.55 218.69 33.63 223.11 35.03 227.44 C 35.53 229.21 35.94 231.00 36.20 232.83 C 35.96 233.00 35.50 233.35 35.26 233.52 C 34.77 229.54 33.20 225.81 32.33 221.91 C 30.05 211.38 25.96 201.28 24.59 190.54 C 23.11 186.14 23.77 181.43 22.28 177.05 C 22.63 165.35 21.33 153.72 20.96 142.04 C 20.23 128.03 21.03 114.02 21.34 100.02 Z" />
</g>
<g id="#c4cbdaff">
<path fill="#c4cbda" opacity="1.00" d=" M 28.79 97.03 C 30.70 98.54 32.79 99.76 34.99 100.79 C 34.58 102.26 32.21 104.39 34.24 105.52 C 38.54 105.94 42.88 105.78 47.20 105.95 C 41.98 107.37 36.52 106.86 31.20 106.46 C 30.17 106.26 29.15 106.04 28.14 105.80 C 31.25 103.83 29.05 99.86 28.79 97.03 Z" />
</g>
<g id="#d6e2e2ff">
<path fill="#d6e2e2" opacity="1.00" d=" M 109.53 107.35 C 111.94 104.32 111.71 98.79 116.13 97.63 C 115.21 101.79 111.54 105.04 111.50 109.38 C 114.46 109.76 117.45 109.87 120.43 109.70 C 120.57 108.57 120.71 107.43 120.86 106.30 C 121.43 106.39 122.57 106.57 123.14 106.66 C 123.19 104.83 123.22 103.00 123.22 101.18 C 123.78 100.57 124.30 99.94 124.81 99.30 L 125.36 98.44 C 128.11 101.93 123.79 105.86 124.12 109.74 C 126.87 109.84 129.62 109.93 132.37 109.94 C 131.18 110.55 130.04 111.22 128.87 111.85 C 123.01 112.98 117.01 112.39 111.09 112.49 C 105.89 112.57 101.21 109.71 96.03 109.72 C 93.59 109.66 91.16 109.74 88.73 109.91 C 90.84 109.11 92.91 108.16 95.10 107.59 C 97.61 107.50 100.13 107.36 102.53 106.56 C 102.55 107.29 102.56 108.02 102.58 108.75 C 104.93 108.62 107.49 108.75 109.53 107.35 Z" />
</g>
<g id="#555f74ff">
<path fill="#555f74" opacity="1.00" d=" M 117.45 99.09 C 119.87 99.65 122.36 99.62 124.81 99.30 C 124.30 99.94 123.78 100.57 123.22 101.18 C 122.02 102.12 120.80 103.02 119.58 103.94 C 119.19 105.57 118.80 107.20 118.42 108.84 C 116.69 109.05 114.95 109.05 113.22 108.92 C 113.80 105.29 116.31 102.49 117.45 99.09 Z" />
</g>
<g id="#aeb9c9ff">
<path fill="#aeb9c9" opacity="1.00" d=" M 119.58 103.94 C 120.80 103.02 122.02 102.12 123.22 101.18 C 123.22 103.00 123.19 104.83 123.14 106.66 C 122.57 106.57 121.43 106.39 120.86 106.30 C 120.54 105.71 119.90 104.53 119.58 103.94 Z" />
</g>
<g id="#dce4ecff">
<path fill="#dce4ec" opacity="1.00" d=" M 143.06 109.03 C 145.42 106.90 146.76 103.58 150.04 102.57 C 152.08 105.12 152.89 108.30 153.73 111.39 C 155.20 111.66 156.67 111.93 158.15 112.21 C 158.20 115.80 156.57 119.05 155.70 122.45 C 155.34 125.67 155.41 128.93 154.92 132.14 C 157.38 135.43 155.88 139.68 156.96 143.41 C 155.78 156.85 153.28 170.24 149.97 183.34 C 147.53 178.68 144.72 173.73 145.67 168.20 C 141.12 168.73 137.16 171.51 132.49 171.59 C 133.88 170.64 135.36 169.83 136.86 169.08 C 140.27 167.00 144.45 166.08 147.19 163.00 C 150.55 159.39 153.42 155.03 154.34 150.12 C 154.06 146.19 152.71 142.05 154.67 138.29 C 153.47 137.16 152.27 136.03 151.08 134.90 C 150.91 133.63 150.74 132.37 150.56 131.11 C 148.66 129.82 148.93 127.37 148.46 125.39 C 148.03 122.87 147.16 120.47 146.32 118.06 C 148.61 117.36 150.89 116.59 153.11 115.68 C 154.47 115.13 155.80 114.52 157.15 113.92 C 148.77 111.10 139.83 111.43 131.12 111.57 C 130.56 111.64 129.43 111.78 128.87 111.85 C 130.04 111.22 131.18 110.55 132.37 109.94 C 135.90 109.65 139.71 110.44 143.06 109.03 Z" />
</g>
<g id="#cfded6ff">
<path fill="#cfded6" opacity="1.00" d=" M 25.89 105.22 C 26.45 105.37 27.58 105.66 28.14 105.80 C 29.15 106.04 30.17 106.26 31.20 106.46 C 29.51 106.44 27.82 106.46 26.13 106.54 C 27.82 109.71 32.58 108.39 35.62 109.38 C 33.58 109.92 31.48 110.05 29.40 110.40 C 24.75 117.80 25.10 126.83 25.60 135.21 C 21.92 128.54 23.08 120.67 22.57 113.38 C 22.94 110.33 25.57 108.24 25.89 105.22 Z" />
</g>
<g id="#9ebd9dff">
<path fill="#9ebd9d" opacity="1.00" d=" M 47.20 105.95 C 49.13 105.67 51.09 105.55 53.05 105.62 C 57.34 107.93 62.13 109.35 67.03 109.37 C 71.17 109.37 75.26 110.52 79.40 109.89 C 82.47 110.55 85.65 110.59 88.73 109.91 C 91.16 109.74 93.59 109.66 96.03 109.72 C 101.21 109.71 105.89 112.57 111.09 112.49 C 117.01 112.39 123.01 112.98 128.87 111.85 C 129.43 111.78 130.56 111.64 131.12 111.57 C 130.78 112.16 130.09 113.33 129.75 113.92 C 121.55 113.47 113.31 113.69 105.10 113.86 C 104.96 114.26 104.67 115.06 104.53 115.46 C 104.29 116.19 103.81 117.65 103.57 118.39 L 103.38 117.53 C 103.40 116.95 103.44 115.79 103.47 115.21 C 102.39 115.88 101.31 116.55 100.24 117.22 C 99.88 117.13 99.16 116.96 98.80 116.87 C 96.94 113.47 92.56 115.11 89.42 114.70 L 88.65 113.74 C 93.13 113.93 97.61 113.96 102.08 114.20 C 102.59 113.81 103.63 113.03 104.15 112.63 C 103.22 112.03 102.21 111.78 101.12 111.91 C 96.43 112.35 91.71 112.25 87.01 112.36 C 82.59 112.41 77.70 110.22 73.64 112.79 C 69.42 114.66 63.87 110.55 60.59 114.56 C 60.52 113.38 60.54 112.19 60.55 111.02 C 57.23 109.91 54.06 108.43 50.96 106.82 C 47.83 107.06 44.77 107.91 41.68 108.43 C 41.54 108.78 41.26 109.47 41.12 109.81 C 39.30 109.51 37.46 109.32 35.62 109.38 C 32.58 108.39 27.82 109.71 26.13 106.54 C 27.82 106.46 29.51 106.44 31.20 106.46 C 36.52 106.86 41.98 107.37 47.20 105.95 Z" />
</g>
<g id="#ceddd5ff">
<path fill="#ceddd5" opacity="1.00" d=" M 53.05 105.62 C 57.70 105.85 62.35 106.20 67.01 106.21 C 71.41 106.16 75.41 108.31 79.40 109.89 C 75.26 110.52 71.17 109.37 67.03 109.37 C 62.13 109.35 57.34 107.93 53.05 105.62 Z" />
</g>
<g id="#6a973fff">
<path fill="#6a973f" opacity="1.00" d=" M 41.68 108.43 C 44.77 107.91 47.83 107.06 50.96 106.82 C 54.06 108.43 57.23 109.91 60.55 111.02 C 60.54 112.19 60.52 113.38 60.59 114.56 C 60.82 115.05 61.27 116.05 61.50 116.55 C 61.33 120.21 62.43 124.20 60.62 127.58 C 58.83 131.08 58.85 135.25 56.64 138.57 C 55.25 140.44 54.69 142.71 53.68 144.77 C 51.77 145.73 49.62 146.09 47.58 146.73 C 47.55 147.26 47.49 148.31 47.46 148.83 C 47.44 149.21 47.39 149.99 47.37 150.37 C 45.52 150.48 44.06 151.59 42.72 152.76 C 40.18 153.60 37.54 154.91 34.81 154.23 C 36.22 153.34 37.62 152.45 39.02 151.54 C 36.99 149.57 34.11 149.24 31.50 148.56 C 30.43 147.05 29.31 145.58 28.11 144.19 C 28.54 144.12 29.42 143.98 29.86 143.91 C 29.88 141.84 29.76 139.78 29.73 137.73 L 30.01 136.42 C 34.49 138.74 29.78 144.18 32.95 146.76 C 35.17 143.37 38.28 140.42 39.40 136.43 C 37.94 136.90 36.14 138.36 35.14 136.44 C 38.26 134.45 42.87 134.24 44.44 130.41 C 46.05 127.26 48.71 124.56 49.28 120.96 C 47.15 122.27 45.54 126.54 42.76 125.35 C 42.41 123.32 42.83 121.10 41.67 119.26 C 43.35 118.69 44.96 117.93 46.49 117.04 C 45.92 116.09 45.32 115.17 44.67 114.28 C 42.86 114.04 41.02 114.24 39.19 114.32 C 39.22 113.81 39.27 112.78 39.30 112.26 C 39.99 111.51 40.60 110.69 41.12 109.81 C 41.26 109.47 41.54 108.78 41.68 108.43 Z" />
</g>
<g id="#abbf9eff">
<path fill="#abbf9e" opacity="1.00" d=" M 35.62 109.38 C 37.46 109.32 39.30 109.51 41.12 109.81 C 40.60 110.69 39.99 111.51 39.30 112.26 C 38.00 113.42 38.01 115.27 37.46 116.80 C 37.47 114.25 36.07 111.73 33.18 112.11 C 31.22 113.50 29.71 115.49 28.59 117.61 C 27.61 120.75 30.07 123.85 28.97 127.01 C 28.24 129.40 28.75 131.97 30.70 133.62 C 30.59 134.02 30.37 134.82 30.26 135.23 C 30.20 135.52 30.07 136.12 30.01 136.42 L 29.73 137.73 C 29.32 139.43 28.91 141.14 28.53 142.86 C 24.43 141.57 23.25 137.24 21.74 133.72 C 21.77 127.31 21.36 120.86 22.13 114.48 L 22.57 113.38 C 23.08 120.67 21.92 128.54 25.60 135.21 C 25.10 126.83 24.75 117.80 29.40 110.40 C 31.48 110.05 33.58 109.92 35.62 109.38 Z" />
</g>
<g id="#77a255ff">
<path fill="#77a255" opacity="1.00" d=" M 73.64 112.79 C 77.70 110.22 82.59 112.41 87.01 112.36 C 91.71 112.25 96.43 112.35 101.12 111.91 C 102.21 111.78 103.22 112.03 104.15 112.63 C 103.63 113.03 102.59 113.81 102.08 114.20 C 97.61 113.96 93.13 113.93 88.65 113.74 C 83.61 113.85 78.67 112.34 73.64 112.79 Z" />
<path fill="#77a255" opacity="1.00" d=" M 56.92 148.09 C 64.37 144.85 69.53 137.97 77.05 134.94 C 74.33 138.31 70.34 140.29 67.38 143.43 C 62.73 146.62 57.25 148.80 53.47 153.17 C 55.81 155.93 59.54 154.10 62.38 155.65 C 67.11 157.73 72.15 155.36 77.04 155.50 C 72.82 159.54 65.99 157.06 61.90 161.32 C 59.88 157.79 56.25 155.22 52.12 155.19 C 50.24 155.68 48.70 156.97 47.05 157.94 C 46.58 158.04 45.62 158.24 45.14 158.34 C 46.68 156.45 48.12 154.46 48.94 152.15 C 46.86 152.31 44.78 152.50 42.72 152.76 C 44.06 151.59 45.52 150.48 47.37 150.37 C 47.39 149.99 47.44 149.21 47.46 148.83 C 50.59 148.47 53.79 146.98 56.92 148.09 Z" />
</g>
<g id="#ceddd2ff">
<path fill="#ceddd2" opacity="1.00" d=" M 28.59 117.61 C 29.71 115.49 31.22 113.50 33.18 112.11 C 36.07 111.73 37.47 114.25 37.46 116.80 C 35.28 119.58 35.69 123.37 33.77 126.31 C 32.59 128.68 31.54 131.11 30.70 133.62 C 28.75 131.97 28.24 129.40 28.97 127.01 C 30.07 123.85 27.61 120.75 28.59 117.61 Z" />
</g>
<g id="#8fb373ff">
<path fill="#8fb373" opacity="1.00" d=" M 37.46 116.80 C 38.01 115.27 38.00 113.42 39.30 112.26 C 39.27 112.78 39.22 113.81 39.19 114.32 C 39.58 118.65 37.14 122.90 38.56 127.15 C 39.16 128.58 37.27 129.19 36.50 130.04 C 35.61 128.78 34.70 127.54 33.77 126.31 C 35.69 123.37 35.28 119.58 37.46 116.80 Z" />
</g>
<g id="#9ab5aaff">
<path fill="#9ab5aa" opacity="1.00" d=" M 131.12 111.57 C 139.83 111.43 148.77 111.10 157.15 113.92 C 155.80 114.52 154.47 115.13 153.11 115.68 C 150.40 115.44 147.74 114.85 145.04 114.51 C 142.44 114.09 139.94 115.32 137.35 115.22 C 134.79 114.94 132.29 114.27 129.75 113.92 C 130.09 113.33 130.78 112.16 131.12 111.57 Z" />
</g>
<g id="#d5e4dcff">
<path fill="#d5e4dc" opacity="1.00" d=" M 60.59 114.56 C 63.87 110.55 69.42 114.66 73.64 112.79 C 78.67 112.34 83.61 113.85 88.65 113.74 L 89.42 114.70 C 83.70 115.56 77.97 114.72 72.25 114.40 C 72.07 118.57 72.53 123.16 75.75 126.20 C 78.01 127.40 80.72 126.38 83.11 126.07 C 79.03 130.31 73.14 131.15 67.92 133.24 C 65.76 133.30 62.74 132.33 62.04 130.06 C 62.34 125.59 64.00 120.69 61.50 116.55 C 61.27 116.05 60.82 115.05 60.59 114.56 Z" />
</g>
<g id="#7ea352ff">
<path fill="#7ea352" opacity="1.00" d=" M 39.19 114.32 C 41.02 114.24 42.86 114.04 44.67 114.28 C 45.32 115.17 45.92 116.09 46.49 117.04 C 44.96 117.93 43.35 118.69 41.67 119.26 C 42.83 121.10 42.41 123.32 42.76 125.35 C 45.54 126.54 47.15 122.27 49.28 120.96 C 48.71 124.56 46.05 127.26 44.44 130.41 C 42.87 134.24 38.26 134.45 35.14 136.44 C 36.14 138.36 37.94 136.90 39.40 136.43 C 38.28 140.42 35.17 143.37 32.95 146.76 C 29.78 144.18 34.49 138.74 30.01 136.42 C 30.07 136.12 30.20 135.52 30.26 135.23 C 31.54 135.29 33.01 136.11 34.18 135.29 C 35.07 133.59 35.72 131.78 36.50 130.04 C 37.27 129.19 39.16 128.58 38.56 127.15 C 37.14 122.90 39.58 118.65 39.19 114.32 Z" />
</g>
<g id="#ebf4f3ff">
<path fill="#ebf4f3" opacity="1.00" d=" M 72.25 114.40 C 77.97 114.72 83.70 115.56 89.42 114.70 C 92.56 115.11 96.94 113.47 98.80 116.87 C 94.20 118.87 89.82 121.45 85.94 124.65 C 85.00 125.13 84.06 125.60 83.11 126.07 C 80.72 126.38 78.01 127.40 75.75 126.20 C 72.53 123.16 72.07 118.57 72.25 114.40 Z" />
</g>
<g id="#cfded2ff">
<path fill="#cfded2" opacity="1.00" d=" M 105.10 113.86 C 113.31 113.69 121.55 113.47 129.75 113.92 C 132.29 114.27 134.79 114.94 137.35 115.22 C 139.94 115.32 142.44 114.09 145.04 114.51 C 147.74 114.85 150.40 115.44 153.11 115.68 C 150.89 116.59 148.61 117.36 146.32 118.06 C 147.16 120.47 148.03 122.87 148.46 125.39 C 148.93 127.37 148.66 129.82 150.56 131.11 C 150.74 132.37 150.91 133.63 151.08 134.90 C 152.27 136.03 153.47 137.16 154.67 138.29 C 152.71 142.05 154.06 146.19 154.34 150.12 C 153.42 155.03 150.55 159.39 147.19 163.00 C 147.74 160.36 147.57 157.67 147.21 155.03 C 148.75 154.03 151.32 153.80 151.71 151.67 C 151.81 149.08 151.69 146.48 151.88 143.88 C 152.26 142.53 151.01 141.73 150.23 140.89 C 149.53 141.18 148.14 141.75 147.44 142.04 C 145.17 140.26 144.57 137.30 143.31 134.84 C 140.97 137.31 136.97 138.29 135.87 141.78 C 137.57 141.67 139.21 141.18 140.76 140.49 C 140.49 141.61 140.22 142.73 139.95 143.86 C 141.82 145.46 146.01 146.70 144.72 149.73 C 142.91 151.42 140.35 151.84 137.97 151.99 C 138.88 150.12 139.77 148.22 140.25 146.19 C 137.53 146.46 135.13 147.76 132.91 149.27 C 132.05 148.24 130.42 147.51 130.46 145.98 C 131.79 140.49 137.44 137.49 139.00 132.24 C 136.92 133.66 134.80 135.04 132.63 136.34 C 132.73 139.43 132.48 143.37 128.99 144.54 C 126.09 143.74 123.85 141.28 121.45 139.49 C 119.22 137.77 119.96 134.60 118.75 132.43 C 115.84 131.28 114.29 128.49 113.31 125.68 L 113.15 124.55 C 115.70 124.42 118.35 124.00 120.80 124.94 C 123.04 125.56 125.38 126.96 127.71 125.86 C 131.68 124.44 135.83 123.66 139.96 122.86 C 142.36 122.57 142.24 119.60 142.86 117.83 C 139.29 117.33 135.66 118.56 132.12 117.70 C 130.11 116.80 128.44 114.94 126.09 115.04 C 118.91 114.90 111.66 114.36 104.53 115.46 C 104.67 115.06 104.96 114.26 105.10 113.86 Z" />
</g>
<g id="#e0e9e6ff">
<path fill="#e0e9e6" opacity="1.00" d=" M 104.53 115.46 C 111.66 114.36 118.91 114.90 126.09 115.04 C 128.44 114.94 130.11 116.80 132.12 117.70 C 135.66 118.56 139.29 117.33 142.86 117.83 C 142.24 119.60 142.36 122.57 139.96 122.86 C 135.83 123.66 131.68 124.44 127.71 125.86 C 125.38 126.96 123.04 125.56 120.80 124.94 C 118.35 124.00 115.70 124.42 113.15 124.55 C 112.04 123.43 110.53 123.00 109.04 122.70 C 108.82 124.49 108.60 126.28 108.35 128.06 C 105.26 125.81 104.54 121.84 103.57 118.39 C 103.81 117.65 104.29 116.19 104.53 115.46 Z" />
</g>
<g id="#56853dff">
<path fill="#56853d" opacity="1.00" d=" M 100.24 117.22 C 101.31 116.55 102.39 115.88 103.47 115.21 C 103.44 115.79 103.40 116.95 103.38 117.53 C 102.37 121.09 103.38 124.71 103.24 128.32 C 106.93 128.28 105.03 132.27 104.43 134.40 C 104.11 135.08 103.46 136.45 103.13 137.14 C 103.29 138.09 103.46 139.05 103.63 140.00 C 102.61 141.10 101.58 142.19 100.55 143.29 C 100.73 144.19 100.92 145.10 101.11 146.00 C 99.95 146.88 98.79 147.76 97.59 148.59 C 97.07 148.94 96.03 149.63 95.51 149.97 C 94.66 152.99 93.89 156.24 90.94 157.94 C 90.61 158.17 89.94 158.63 89.60 158.86 C 88.87 160.63 88.66 162.78 86.94 163.94 C 84.70 165.51 84.52 168.93 81.80 169.92 C 79.80 170.44 77.80 171.05 76.05 172.17 C 74.14 171.21 72.30 170.14 70.52 168.96 C 72.37 166.93 74.78 165.56 77.07 164.09 C 73.56 163.67 70.38 165.23 67.06 166.04 C 61.98 166.29 57.02 164.79 52.40 162.79 C 50.13 161.72 47.73 160.98 45.29 160.43 C 45.87 159.60 46.45 158.76 47.05 157.94 C 48.70 156.97 50.24 155.68 52.12 155.19 C 56.25 155.22 59.88 157.79 61.90 161.32 C 65.99 157.06 72.82 159.54 77.04 155.50 C 72.15 155.36 67.11 157.73 62.38 155.65 C 59.54 154.10 55.81 155.93 53.47 153.17 C 57.25 148.80 62.73 146.62 67.38 143.43 C 70.34 140.29 74.33 138.31 77.05 134.94 C 77.23 134.74 77.59 134.33 77.77 134.12 C 85.41 128.69 93.05 123.24 100.24 117.22 Z" />
</g>
<g id="#bcd3bbff">
<path fill="#bcd3bb" opacity="1.00" d=" M 61.50 116.55 C 64.00 120.69 62.34 125.59 62.04 130.06 C 62.74 132.33 65.76 133.30 67.92 133.24 C 73.14 131.15 79.03 130.31 83.11 126.07 C 84.06 125.60 85.00 125.13 85.94 124.65 C 83.90 128.43 79.34 130.05 77.77 134.12 C 77.59 134.33 77.23 134.74 77.05 134.94 C 69.53 137.97 64.37 144.85 56.92 148.09 C 53.79 146.98 50.59 148.47 47.46 148.83 C 47.49 148.31 47.55 147.26 47.58 146.73 C 49.62 146.09 51.77 145.73 53.68 144.77 C 54.69 142.71 55.25 140.44 56.64 138.57 C 58.85 135.25 58.83 131.08 60.62 127.58 C 62.43 124.20 61.33 120.21 61.50 116.55 Z" />
</g>
<g id="#9cbc84ff">
<path fill="#9cbc84" opacity="1.00" d=" M 85.94 124.65 C 89.82 121.45 94.20 118.87 98.80 116.87 C 99.16 116.96 99.88 117.13 100.24 117.22 C 93.05 123.24 85.41 128.69 77.77 134.12 C 79.34 130.05 83.90 128.43 85.94 124.65 Z" />
</g>
<g id="#c4d5ccff">
<path fill="#c4d5cc" opacity="1.00" d=" M 103.38 117.53 L 103.57 118.39 C 104.54 121.84 105.26 125.81 108.35 128.06 C 108.60 126.28 108.82 124.49 109.04 122.70 C 110.53 123.00 112.04 123.43 113.15 124.55 L 113.31 125.68 C 112.41 125.72 110.61 125.80 109.71 125.84 C 109.70 128.07 110.49 130.13 111.57 132.05 C 113.43 135.86 115.33 139.68 117.67 143.23 C 114.81 144.11 113.13 140.86 110.55 140.26 C 107.58 139.40 106.84 136.01 104.43 134.40 C 105.03 132.27 106.93 128.28 103.24 128.32 C 103.38 124.71 102.37 121.09 103.38 117.53 Z" />
</g>
<g id="#b0bf99ff">
<path fill="#b0bf99" opacity="1.00" d=" M 109.71 125.84 C 110.61 125.80 112.41 125.72 113.31 125.68 C 114.29 128.49 115.84 131.28 118.75 132.43 C 119.96 134.60 119.22 137.77 121.45 139.49 C 123.85 141.28 126.09 143.74 128.99 144.54 C 132.48 143.37 132.73 139.43 132.63 136.34 C 134.80 135.04 136.92 133.66 139.00 132.24 C 137.44 137.49 131.79 140.49 130.46 145.98 C 130.42 147.51 132.05 148.24 132.91 149.27 C 134.33 150.48 135.78 151.65 137.25 152.79 C 131.88 152.52 129.15 147.46 124.84 145.09 C 118.58 141.84 118.24 133.29 111.94 130.03 C 111.85 130.54 111.66 131.54 111.57 132.05 C 110.49 130.13 109.70 128.07 109.71 125.84 Z" />
</g>
<g id="#a3c289ff">
<path fill="#a3c289" opacity="1.00" d=" M 30.70 133.62 C 31.54 131.11 32.59 128.68 33.77 126.31 C 34.70 127.54 35.61 128.78 36.50 130.04 C 35.72 131.78 35.07 133.59 34.18 135.29 C 33.01 136.11 31.54 135.29 30.26 135.23 C 30.37 134.82 30.59 134.02 30.70 133.62 Z" />
</g>
<g id="#899c5dff">
<path fill="#899c5d" opacity="1.00" d=" M 111.94 130.03 C 118.24 133.29 118.58 141.84 124.84 145.09 C 129.15 147.46 131.88 152.52 137.25 152.79 L 138.07 153.03 C 138.66 153.69 139.25 154.36 139.82 155.04 C 139.64 155.61 139.27 156.75 139.08 157.32 C 135.26 156.15 131.49 154.73 128.09 152.60 C 126.88 151.73 125.71 150.81 124.55 149.89 C 121.99 147.95 119.77 145.64 117.67 143.23 C 115.33 139.68 113.43 135.86 111.57 132.05 C 111.66 131.54 111.85 130.54 111.94 130.03 Z" />
</g>
<g id="#7da269ff">
<path fill="#7da269" opacity="1.00" d=" M 21.74 133.72 C 23.25 137.24 24.43 141.57 28.53 142.86 C 28.91 141.14 29.32 139.43 29.73 137.73 C 29.76 139.78 29.88 141.84 29.86 143.91 C 29.42 143.98 28.54 144.12 28.11 144.19 C 27.44 144.28 26.10 144.47 25.44 144.56 C 25.29 148.33 25.69 152.16 27.35 155.59 C 29.51 153.77 32.14 153.31 34.81 154.23 C 37.54 154.91 40.18 153.60 42.72 152.76 C 44.78 152.50 46.86 152.31 48.94 152.15 C 48.12 154.46 46.68 156.45 45.14 158.34 C 41.66 162.98 35.11 163.35 31.59 168.02 C 30.95 167.35 30.33 166.67 29.72 165.98 C 34.34 162.52 41.17 162.17 44.28 156.84 C 39.88 154.45 34.59 156.32 29.80 155.82 C 29.06 157.15 28.31 158.48 27.57 159.82 C 25.40 158.19 23.84 155.96 22.51 153.63 C 22.29 146.99 21.62 140.37 21.74 133.72 Z" />
</g>
<g id="#b6cab2ff">
<path fill="#b6cab2" opacity="1.00" d=" M 104.43 134.40 C 106.84 136.01 107.58 139.40 110.55 140.26 C 113.13 140.86 114.81 144.11 117.67 143.23 C 119.77 145.64 121.99 147.95 124.55 149.89 C 123.92 150.26 122.65 151.01 122.02 151.39 C 119.67 150.16 117.80 148.23 115.56 146.88 C 112.26 146.26 109.09 144.84 105.68 145.02 C 104.35 143.66 103.94 141.80 103.63 140.00 C 103.46 139.05 103.29 138.09 103.13 137.14 C 103.46 136.45 104.11 135.08 104.43 134.40 Z" />
</g>
<g id="#bcd2b8ff">
<path fill="#bcd2b8" opacity="1.00" d=" M 135.87 141.78 C 136.97 138.29 140.97 137.31 143.31 134.84 C 144.57 137.30 145.17 140.26 147.44 142.04 C 147.52 144.76 146.92 147.42 146.45 150.08 C 150.83 150.00 150.50 144.08 150.23 140.89 C 151.01 141.73 152.26 142.53 151.88 143.88 C 151.69 146.48 151.81 149.08 151.71 151.67 C 151.32 153.80 148.75 154.03 147.21 155.03 C 146.83 154.62 146.07 153.81 145.69 153.41 C 145.24 153.47 144.35 153.58 143.90 153.64 C 141.94 153.59 139.99 153.37 138.07 153.03 L 137.25 152.79 C 135.78 151.65 134.33 150.48 132.91 149.27 C 135.13 147.76 137.53 146.46 140.25 146.19 C 139.77 148.22 138.88 150.12 137.97 151.99 C 140.35 151.84 142.91 151.42 144.72 149.73 C 146.01 146.70 141.82 145.46 139.95 143.86 C 140.22 142.73 140.49 141.61 140.76 140.49 C 139.21 141.18 137.57 141.67 135.87 141.78 Z" />
</g>
<g id="#8fb37aff">
<path fill="#8fb37a" opacity="1.00" d=" M 100.55 143.29 C 101.58 142.19 102.61 141.10 103.63 140.00 C 103.94 141.80 104.35 143.66 105.68 145.02 C 107.66 147.29 109.75 149.47 111.73 151.75 C 109.14 152.31 106.58 153.09 103.93 153.37 C 101.36 152.53 99.52 150.37 97.59 148.59 C 98.79 147.76 99.95 146.88 101.11 146.00 C 100.92 145.10 100.73 144.19 100.55 143.29 Z" />
</g>
<g id="#abc3a2ff">
<path fill="#abc3a2" opacity="1.00" d=" M 147.44 142.04 C 148.14 141.75 149.53 141.18 150.23 140.89 C 150.50 144.08 150.83 150.00 146.45 150.08 C 146.92 147.42 147.52 144.76 147.44 142.04 Z" />
</g>
<g id="#5a7e3cff">
<path fill="#5a7e3c" opacity="1.00" d=" M 25.44 144.56 C 26.10 144.47 27.44 144.28 28.11 144.19 C 29.31 145.58 30.43 147.05 31.50 148.56 C 34.11 149.24 36.99 149.57 39.02 151.54 C 37.62 152.45 36.22 153.34 34.81 154.23 C 32.14 153.31 29.51 153.77 27.35 155.59 C 25.69 152.16 25.29 148.33 25.44 144.56 Z" />
</g>
<g id="#aac798ff">
<path fill="#aac798" opacity="1.00" d=" M 105.68 145.02 C 109.09 144.84 112.26 146.26 115.56 146.88 C 117.80 148.23 119.67 150.16 122.02 151.39 C 121.11 151.92 120.21 152.46 119.29 152.96 C 113.63 154.96 108.57 158.26 103.00 160.50 C 100.11 161.90 97.16 163.80 93.79 163.37 L 93.38 161.64 C 93.76 160.98 94.16 160.32 94.56 159.68 C 96.42 159.69 98.26 159.39 100.04 158.86 C 97.77 156.32 95.66 153.54 95.51 149.97 C 96.03 149.63 97.07 148.94 97.59 148.59 C 99.52 150.37 101.36 152.53 103.93 153.37 C 106.58 153.09 109.14 152.31 111.73 151.75 C 109.75 149.47 107.66 147.29 105.68 145.02 Z" />
</g>
<g id="#95b879ff">
<path fill="#95b879" opacity="1.00" d=" M 90.94 157.94 C 93.89 156.24 94.66 152.99 95.51 149.97 C 95.66 153.54 97.77 156.32 100.04 158.86 C 98.26 159.39 96.42 159.69 94.56 159.68 C 94.16 160.32 93.76 160.98 93.38 161.64 L 92.94 162.40 C 92.31 160.90 91.62 159.42 90.94 157.94 Z" />
</g>
<g id="#aacb8cff">
<path fill="#aacb8c" opacity="1.00" d=" M 124.55 149.89 C 125.71 150.81 126.88 151.73 128.09 152.60 C 127.95 154.09 127.81 155.58 127.67 157.07 C 129.60 158.09 131.53 159.09 133.41 160.20 C 129.74 160.94 126.00 159.86 122.30 160.29 C 122.04 160.61 121.52 161.25 121.26 161.57 C 124.49 163.16 127.79 164.68 131.30 165.56 C 127.53 166.10 123.76 165.51 120.01 165.13 C 118.39 162.99 117.01 160.67 116.07 158.15 C 117.64 157.94 119.22 157.74 120.80 157.54 C 120.77 156.23 120.76 154.92 120.69 153.62 C 120.34 153.46 119.64 153.12 119.29 152.96 C 120.21 152.46 121.11 151.92 122.02 151.39 C 122.65 151.01 123.92 150.26 124.55 149.89 Z" />
</g>
<g id="#98bb78ff">
<path fill="#98bb78" opacity="1.00" d=" M 119.29 152.96 C 119.64 153.12 120.34 153.46 120.69 153.62 C 120.76 154.92 120.77 156.23 120.80 157.54 C 119.22 157.74 117.64 157.94 116.07 158.15 C 117.01 160.67 118.39 162.99 120.01 165.13 C 117.38 165.09 114.67 165.63 112.12 164.79 C 108.79 163.93 106.50 160.91 103.00 160.50 C 108.57 158.26 113.63 154.96 119.29 152.96 Z" />
</g>
<g id="#b9d5a7ff">
<path fill="#b9d5a7" opacity="1.00" d=" M 128.09 152.60 C 131.49 154.73 135.26 156.15 139.08 157.32 C 141.44 158.67 146.34 156.46 143.90 153.64 C 144.35 153.58 145.24 153.47 145.69 153.41 C 146.07 153.81 146.83 154.62 147.21 155.03 C 147.57 157.67 147.74 160.36 147.19 163.00 C 144.45 166.08 140.27 167.00 136.86 169.08 C 136.71 167.84 136.57 166.60 136.43 165.36 C 134.72 165.40 133.01 165.47 131.30 165.56 C 127.79 164.68 124.49 163.16 121.26 161.57 C 121.52 161.25 122.04 160.61 122.30 160.29 C 126.00 159.86 129.74 160.94 133.41 160.20 C 131.53 159.09 129.60 158.09 127.67 157.07 C 127.81 155.58 127.95 154.09 128.09 152.60 Z" />
</g>
<g id="#a7bd88ff">
<path fill="#a7bd88" opacity="1.00" d=" M 138.07 153.03 C 139.99 153.37 141.94 153.59 143.90 153.64 C 146.34 156.46 141.44 158.67 139.08 157.32 C 139.27 156.75 139.64 155.61 139.82 155.04 C 139.25 154.36 138.66 153.69 138.07 153.03 Z" />
</g>
<g id="#98b997ff">
<path fill="#98b997" opacity="1.00" d=" M 22.51 153.63 C 23.84 155.96 25.40 158.19 27.57 159.82 C 28.31 158.48 29.06 157.15 29.80 155.82 C 34.59 156.32 39.88 154.45 44.28 156.84 C 41.17 162.17 34.34 162.52 29.72 165.98 C 30.33 166.67 30.95 167.35 31.59 168.02 C 32.31 168.71 33.03 169.39 33.78 170.06 C 34.49 170.90 35.19 171.76 35.89 172.61 C 32.61 173.48 32.85 177.79 34.79 179.85 C 33.94 180.26 33.09 180.68 32.26 181.11 C 33.76 184.13 35.17 187.21 36.84 190.14 C 38.79 191.90 41.15 193.13 43.13 194.86 C 46.38 197.44 48.77 201.10 52.61 202.90 C 52.83 200.53 53.14 198.17 53.61 195.84 C 54.45 196.48 55.29 197.12 56.13 197.76 C 55.63 194.65 54.31 191.63 54.62 188.43 C 55.45 183.84 49.74 182.60 47.17 179.97 C 51.74 177.24 57.62 179.75 62.72 178.94 C 61.35 182.89 60.33 188.00 63.27 191.51 C 64.17 192.90 66.14 194.50 64.29 196.04 C 61.83 195.20 60.33 193.15 58.99 191.05 C 58.34 195.95 59.12 201.33 61.50 205.68 C 64.66 208.33 67.11 211.78 70.49 214.13 C 70.39 213.76 70.20 213.01 70.10 212.63 C 71.52 210.53 72.57 208.22 73.60 205.91 C 74.32 206.60 75.02 207.30 75.73 208.01 C 76.00 208.29 76.54 208.84 76.81 209.11 C 78.28 210.89 80.11 212.30 81.92 213.71 C 78.56 214.56 75.10 214.90 71.63 214.62 C 71.30 215.79 70.96 216.97 70.63 218.14 C 70.03 217.76 69.45 217.37 68.86 216.98 C 67.69 216.15 66.55 215.28 65.35 214.50 C 63.40 213.21 61.35 212.10 59.33 210.95 C 56.78 208.60 53.33 207.56 50.93 205.03 C 47.66 201.89 43.58 199.77 40.29 196.65 C 37.73 194.25 35.31 191.69 32.80 189.24 C 29.95 186.52 28.88 182.60 27.37 179.08 C 29.96 176.47 29.37 170.47 25.16 170.23 C 24.91 170.72 24.42 171.72 24.17 172.21 C 23.32 166.05 22.92 159.83 22.51 153.63 M 29.42 158.46 C 29.34 159.82 29.38 161.19 29.50 162.55 C 32.75 163.17 35.71 161.28 37.77 158.94 C 35.25 157.28 32.16 157.58 29.42 158.46 M 53.02 180.39 C 54.24 182.59 55.77 184.72 57.95 186.06 C 58.58 183.86 58.51 181.43 57.29 179.45 C 55.86 179.73 54.44 180.05 53.02 180.39 Z" />
</g>
<g id="#c5d6d5ff">
<path fill="#c5d6d5" opacity="1.00" d=" M 29.42 158.46 C 32.16 157.58 35.25 157.28 37.77 158.94 C 35.71 161.28 32.75 163.17 29.50 162.55 C 29.38 161.19 29.34 159.82 29.42 158.46 Z" />
</g>
<g id="#6b9848ff">
<path fill="#6b9848" opacity="1.00" d=" M 45.14 158.34 C 45.62 158.24 46.58 158.04 47.05 157.94 C 46.45 158.76 45.87 159.60 45.29 160.43 C 47.73 160.98 50.13 161.72 52.40 162.79 C 50.30 162.65 48.19 162.55 46.08 162.35 C 47.58 163.72 48.94 165.24 50.15 166.87 C 48.16 167.97 46.16 169.14 44.71 170.94 C 46.37 174.19 49.77 175.24 53.13 175.78 C 53.45 176.29 54.08 177.32 54.39 177.83 C 51.35 177.99 48.31 178.18 45.26 178.21 C 45.30 179.09 45.34 179.97 45.38 180.85 C 44.02 180.51 42.65 180.18 41.29 179.84 C 42.17 178.98 43.04 178.12 43.91 177.27 C 40.69 174.63 38.26 170.58 33.78 170.06 C 33.03 169.39 32.31 168.71 31.59 168.02 C 35.11 163.35 41.66 162.98 45.14 158.34 Z" />
</g>
<g id="#1d242dff">
<path fill="#1d242d" opacity="1.00" d=" M 89.60 158.86 C 89.94 158.63 90.61 158.17 90.94 157.94 C 91.62 159.42 92.31 160.90 92.94 162.40 C 92.83 162.90 92.59 163.88 92.47 164.38 C 91.77 165.07 91.07 165.77 90.38 166.47 C 90.89 166.89 91.40 167.31 91.92 167.73 C 93.58 167.09 95.42 165.96 96.86 167.69 C 93.04 171.38 90.79 176.25 88.23 180.82 C 86.24 182.91 82.57 184.86 83.52 188.27 C 81.01 188.98 79.68 191.34 78.35 193.37 C 74.83 198.87 72.05 204.80 69.61 210.85 C 69.15 209.20 68.69 207.56 68.23 205.91 C 66.12 205.11 62.90 204.29 63.67 201.29 C 69.99 194.27 72.49 184.69 78.67 177.55 C 80.77 175.54 81.97 172.86 81.80 169.92 C 84.52 168.93 84.70 165.51 86.94 163.94 C 88.66 162.78 88.87 160.63 89.60 158.86 Z" />
</g>
<g id="#8cb366ff">
<path fill="#8cb366" opacity="1.00" d=" M 93.79 163.37 C 97.16 163.80 100.11 161.90 103.00 160.50 C 106.50 160.91 108.79 163.93 112.12 164.79 C 114.67 165.63 117.38 165.09 120.01 165.13 C 123.76 165.51 127.53 166.10 131.30 165.56 C 133.01 165.47 134.72 165.40 136.43 165.36 C 136.57 166.60 136.71 167.84 136.86 169.08 C 135.36 169.83 133.88 170.64 132.49 171.59 C 129.15 174.54 124.54 174.37 120.53 175.75 C 120.13 175.89 119.33 176.16 118.93 176.30 C 118.91 178.80 119.69 181.20 120.00 183.66 L 118.99 184.29 C 118.60 181.70 118.06 179.14 117.40 176.60 C 114.16 176.48 110.83 176.25 107.91 174.69 C 106.85 174.19 105.82 173.67 104.78 173.16 C 104.61 172.02 104.43 170.88 104.26 169.75 C 102.56 169.00 100.85 168.25 99.12 167.56 C 100.77 167.08 102.41 166.56 104.02 165.97 C 103.68 165.07 103.33 164.18 102.99 163.28 C 100.10 163.97 97.22 164.68 94.26 164.96 C 94.14 164.56 93.91 163.77 93.79 163.37 Z" />
</g>
<g id="#6c9a55ff">
<path fill="#6c9a55" opacity="1.00" d=" M 46.08 162.35 C 48.19 162.55 50.30 162.65 52.40 162.79 C 57.02 164.79 61.98 166.29 67.06 166.04 C 70.38 165.23 73.56 163.67 77.07 164.09 C 74.78 165.56 72.37 166.93 70.52 168.96 C 72.30 170.14 74.14 171.21 76.05 172.17 C 73.78 173.57 71.72 175.26 69.52 176.75 C 68.67 177.10 67.81 177.44 66.94 177.75 C 66.29 177.94 65.00 178.33 64.35 178.52 C 61.03 178.33 57.73 177.84 54.39 177.83 C 54.08 177.32 53.45 176.29 53.13 175.78 C 49.77 175.24 46.37 174.19 44.71 170.94 C 46.16 169.14 48.16 167.97 50.15 166.87 C 48.94 165.24 47.58 163.72 46.08 162.35 Z" />
</g>
<g id="#759f4bff">
<path fill="#759f4b" opacity="1.00" d=" M 92.94 162.40 L 93.38 161.64 L 93.79 163.37 C 93.91 163.77 94.14 164.56 94.26 164.96 C 97.22 164.68 100.10 163.97 102.99 163.28 C 103.33 164.18 103.68 165.07 104.02 165.97 C 102.41 166.56 100.77 167.08 99.12 167.56 C 100.85 168.25 102.56 169.00 104.26 169.75 C 104.43 170.88 104.61 172.02 104.78 173.16 C 105.82 173.67 106.85 174.19 107.91 174.69 C 106.62 175.77 105.34 176.87 104.07 177.97 C 105.04 181.46 107.90 183.41 111.29 184.22 C 108.59 184.17 105.88 184.14 103.19 183.87 C 99.65 183.27 96.36 181.80 92.98 180.66 C 91.23 180.96 89.56 181.58 87.86 182.11 L 88.23 180.82 C 90.79 176.25 93.04 171.38 96.86 167.69 C 95.42 165.96 93.58 167.09 91.92 167.73 C 91.40 167.31 90.89 166.89 90.38 166.47 C 91.07 165.77 91.77 165.07 92.47 164.38 C 92.59 163.88 92.83 162.90 92.94 162.40 Z" />
</g>
<g id="#e4ebf2ff">
<path fill="#e4ebf2" opacity="1.00" d=" M 132.49 171.59 C 137.16 171.51 141.12 168.73 145.67 168.20 C 144.72 173.73 147.53 178.68 149.97 183.34 C 148.30 190.70 146.17 197.97 143.69 205.09 C 140.74 207.19 137.80 209.32 135.25 211.91 C 131.07 215.26 125.23 215.48 121.35 219.20 C 116.69 218.86 112.04 217.67 107.34 218.13 C 104.12 218.37 101.52 221.17 98.19 220.61 C 96.27 220.56 94.77 219.27 93.21 218.34 C 96.44 217.36 99.98 217.36 102.97 215.67 C 104.88 214.60 106.76 213.50 108.66 212.42 C 111.17 211.03 113.73 209.58 115.63 207.38 C 117.71 204.96 119.78 202.52 121.58 199.88 C 123.56 199.04 125.48 198.06 127.36 197.02 C 126.89 194.25 126.23 191.53 125.61 188.80 C 125.69 188.24 125.86 187.13 125.94 186.58 C 125.85 186.29 125.67 185.72 125.58 185.43 C 121.53 184.13 120.03 179.68 120.53 175.75 C 124.54 174.37 129.15 174.54 132.49 171.59 Z" />
</g>
<g id="#b2c9c3ff">
<path fill="#b2c9c3" opacity="1.00" d=" M 25.16 170.23 C 29.37 170.47 29.96 176.47 27.37 179.08 C 28.88 182.60 29.95 186.52 32.80 189.24 C 35.31 191.69 37.73 194.25 40.29 196.65 C 43.58 199.77 47.66 201.89 50.93 205.03 C 53.33 207.56 56.78 208.60 59.33 210.95 C 55.97 210.42 52.84 208.95 50.38 206.60 C 44.07 200.87 36.36 196.76 30.80 190.21 C 28.26 187.45 28.14 183.27 25.28 180.74 C 24.73 177.92 24.48 175.06 24.17 172.21 C 24.42 171.72 24.91 170.72 25.16 170.23 Z" />
</g>
<g id="#7da96dff">
<path fill="#7da96d" opacity="1.00" d=" M 33.78 170.06 C 38.26 170.58 40.69 174.63 43.91 177.27 C 43.04 178.12 42.17 178.98 41.29 179.84 C 42.65 180.18 44.02 180.51 45.38 180.85 C 45.34 179.97 45.30 179.09 45.26 178.21 C 48.31 178.18 51.35 177.99 54.39 177.83 C 57.73 177.84 61.03 178.33 64.35 178.52 C 63.95 178.62 63.13 178.84 62.72 178.94 C 57.62 179.75 51.74 177.24 47.17 179.97 C 49.74 182.60 55.45 183.84 54.62 188.43 C 54.31 191.63 55.63 194.65 56.13 197.76 C 55.29 197.12 54.45 196.48 53.61 195.84 C 53.14 198.17 52.83 200.53 52.61 202.90 C 48.77 201.10 46.38 197.44 43.13 194.86 C 41.15 193.13 38.79 191.90 36.84 190.14 C 35.17 187.21 33.76 184.13 32.26 181.11 C 33.09 180.68 33.94 180.26 34.79 179.85 C 35.53 179.79 37.03 179.66 37.77 179.59 C 39.70 177.00 37.71 174.50 35.89 172.61 C 35.19 171.76 34.49 170.90 33.78 170.06 Z" />
</g>
<g id="#88969eff">
<path fill="#88969e" opacity="1.00" d=" M 76.05 172.17 C 77.80 171.05 79.80 170.44 81.80 169.92 C 81.97 172.86 80.77 175.54 78.67 177.55 C 78.48 176.87 78.10 175.52 77.90 174.84 C 75.77 176.63 73.72 178.61 71.05 179.59 C 70.67 178.88 69.90 177.46 69.52 176.75 C 71.72 175.26 73.78 173.57 76.05 172.17 Z" />
</g>
<g id="#c3d5d5ff">
<path fill="#c3d5d5" opacity="1.00" d=" M 34.79 179.85 C 32.85 177.79 32.61 173.48 35.89 172.61 C 37.71 174.50 39.70 177.00 37.77 179.59 C 37.03 179.66 35.53 179.79 34.79 179.85 Z" />
</g>
<g id="#aac0bbff">
<path fill="#aac0bb" opacity="1.00" d=" M 71.05 179.59 C 73.72 178.61 75.77 176.63 77.90 174.84 C 78.10 175.52 78.48 176.87 78.67 177.55 C 72.49 184.69 69.99 194.27 63.67 201.29 C 63.60 199.97 63.46 198.65 63.41 197.33 C 63.63 197.01 64.07 196.36 64.29 196.04 C 66.14 194.50 64.17 192.90 63.27 191.51 C 65.36 187.28 67.23 182.94 68.76 178.49 C 68.30 178.30 67.39 177.94 66.94 177.75 C 67.81 177.44 68.67 177.10 69.52 176.75 C 69.90 177.46 70.67 178.88 71.05 179.59 Z" />
</g>
<g id="#618e3fff">
<path fill="#618e3f" opacity="1.00" d=" M 104.07 177.97 C 105.34 176.87 106.62 175.77 107.91 174.69 C 110.83 176.25 114.16 176.48 117.40 176.60 C 118.06 179.14 118.60 181.70 118.99 184.29 C 116.42 184.51 113.85 184.39 111.29 184.22 C 107.90 183.41 105.04 181.46 104.07 177.97 Z" />
</g>
<g id="#a9c598ff">
<path fill="#a9c598" opacity="1.00" d=" M 118.93 176.30 C 119.33 176.16 120.13 175.89 120.53 175.75 C 120.03 179.68 121.53 184.13 125.58 185.43 C 125.67 185.72 125.85 186.29 125.94 186.58 C 124.83 186.42 123.72 186.25 122.62 186.10 C 122.21 188.51 121.58 190.89 120.61 193.15 C 120.74 190.49 118.12 189.43 115.99 188.82 C 112.77 188.30 109.50 188.70 106.26 188.80 C 103.13 188.45 100.11 187.53 97.00 187.05 C 96.31 189.55 93.63 189.65 91.49 189.88 C 91.14 188.89 90.80 187.90 90.45 186.91 C 88.86 186.46 87.36 185.76 85.95 184.91 C 86.18 184.63 86.62 184.08 86.85 183.80 C 88.32 183.52 89.80 183.30 91.28 183.08 C 91.36 183.52 91.54 184.40 91.62 184.85 C 95.43 184.15 99.31 183.70 103.19 183.87 C 105.88 184.14 108.59 184.17 111.29 184.22 C 113.85 184.39 116.42 184.51 118.99 184.29 L 120.00 183.66 C 119.69 181.20 118.91 178.80 118.93 176.30 Z" />
</g>
<g id="#d5e2dcff">
<path fill="#d5e2dc" opacity="1.00" d=" M 64.35 178.52 C 65.00 178.33 66.29 177.94 66.94 177.75 C 67.39 177.94 68.30 178.30 68.76 178.49 C 67.23 182.94 65.36 187.28 63.27 191.51 C 60.33 188.00 61.35 182.89 62.72 178.94 C 63.13 178.84 63.95 178.62 64.35 178.52 Z" />
</g>
<g id="#dae7efff">
<path fill="#dae7ef" opacity="1.00" d=" M 53.02 180.39 C 54.44 180.05 55.86 179.73 57.29 179.45 C 58.51 181.43 58.58 183.86 57.95 186.06 C 55.77 184.72 54.24 182.59 53.02 180.39 Z" />
</g>
<g id="#d6e5ecff">
<path fill="#d6e5ec" opacity="1.00" d=" M 25.28 180.74 C 28.14 183.27 28.26 187.45 30.80 190.21 C 36.36 196.76 44.07 200.87 50.38 206.60 C 52.84 208.95 55.97 210.42 59.33 210.95 C 61.35 212.10 63.40 213.21 65.35 214.50 C 63.32 214.28 61.28 214.12 59.25 214.32 C 57.72 215.03 58.72 216.85 58.64 218.09 C 54.58 217.66 50.17 216.87 47.13 213.91 C 45.43 212.21 43.08 211.53 40.95 210.55 C 36.87 208.28 35.12 203.50 31.01 201.19 C 30.43 201.35 29.29 201.66 28.71 201.81 C 27.42 194.81 26.22 187.79 25.28 180.74 Z" />
</g>
<g id="#5e6e6bff">
<path fill="#5e6e6b" opacity="1.00" d=" M 83.52 188.27 C 82.57 184.86 86.24 182.91 88.23 180.82 L 87.86 182.11 C 87.61 182.53 87.10 183.38 86.85 183.80 C 86.62 184.08 86.18 184.63 85.95 184.91 C 85.76 185.16 85.39 185.66 85.21 185.91 C 84.63 186.69 84.07 187.48 83.52 188.27 Z" />
</g>
<g id="#8aad75ff">
<path fill="#8aad75" opacity="1.00" d=" M 87.86 182.11 C 89.56 181.58 91.23 180.96 92.98 180.66 C 96.36 181.80 99.65 183.27 103.19 183.87 C 99.31 183.70 95.43 184.15 91.62 184.85 C 91.54 184.40 91.36 183.52 91.28 183.08 C 89.80 183.30 88.32 183.52 86.85 183.80 C 87.10 183.38 87.61 182.53 87.86 182.11 Z" />
</g>
<g id="#c9d7c6ff">
<path fill="#c9d7c6" opacity="1.00" d=" M 85.21 185.91 C 85.39 185.66 85.76 185.16 85.95 184.91 C 87.36 185.76 88.86 186.46 90.45 186.91 C 90.80 187.90 91.14 188.89 91.49 189.88 C 93.63 189.65 96.31 189.55 97.00 187.05 C 100.11 187.53 103.13 188.45 106.26 188.80 L 105.60 189.28 C 105.25 189.57 104.55 190.16 104.20 190.45 C 105.96 195.45 111.11 197.38 115.43 199.57 L 114.91 200.23 C 114.50 200.38 113.67 200.67 113.26 200.81 C 111.37 198.71 108.72 198.06 106.02 197.76 C 104.34 197.70 103.89 195.78 102.93 194.73 C 101.33 195.33 99.73 195.94 98.13 196.54 C 97.31 196.08 96.50 195.63 95.69 195.19 C 96.67 198.68 98.07 202.06 100.12 205.05 C 101.19 206.65 102.29 208.24 103.38 209.83 C 105.16 209.29 106.95 208.73 108.65 207.95 C 108.50 209.44 108.50 210.93 108.66 212.42 C 106.76 213.50 104.88 214.60 102.97 215.67 C 102.41 213.01 102.00 210.07 99.70 208.29 C 95.99 205.35 97.01 198.82 92.37 196.96 C 92.34 199.34 92.95 201.98 91.44 204.06 C 90.53 200.77 89.77 197.32 87.51 194.63 C 87.92 193.27 88.35 191.91 88.78 190.55 C 87.81 190.59 86.83 190.64 85.86 190.69 C 85.62 189.10 85.36 187.51 85.21 185.91 Z" />
</g>
<g id="#dae7e4ff">
<path fill="#dae7e4" opacity="1.00" d=" M 85.21 185.91 C 85.36 187.51 85.62 189.10 85.86 190.69 C 86.83 190.64 87.81 190.59 88.78 190.55 C 88.35 191.91 87.92 193.27 87.51 194.63 C 89.77 197.32 90.53 200.77 91.44 204.06 C 92.95 201.98 92.34 199.34 92.37 196.96 C 97.01 198.82 95.99 205.35 99.70 208.29 C 102.00 210.07 102.41 213.01 102.97 215.67 C 99.98 217.36 96.44 217.36 93.21 218.34 C 91.90 217.86 90.62 217.33 89.34 216.78 C 90.51 216.60 91.69 216.43 92.86 216.26 C 92.78 215.89 92.63 215.16 92.56 214.79 C 89.47 213.16 85.69 214.08 82.70 212.36 C 85.14 210.36 89.83 209.97 89.62 205.98 C 89.19 202.62 85.24 200.81 82.12 201.53 C 83.87 200.16 85.52 198.66 87.05 197.04 C 81.35 197.48 77.11 202.78 75.73 208.01 C 75.02 207.30 74.32 206.60 73.60 205.91 C 76.71 199.92 80.69 194.41 83.52 188.27 C 84.07 187.48 84.63 186.69 85.21 185.91 Z" />
</g>
<g id="#879b5dff">
<path fill="#879b5d" opacity="1.00" d=" M 122.62 186.10 C 123.72 186.25 124.83 186.42 125.94 186.58 C 125.86 187.13 125.69 188.24 125.61 188.80 C 124.85 192.68 123.56 196.45 121.58 199.88 C 119.78 202.52 117.71 204.96 115.63 207.38 C 113.32 205.41 114.37 201.91 116.31 200.09 C 118.27 198.14 119.65 195.72 120.61 193.15 C 121.58 190.89 122.21 188.51 122.62 186.10 Z" />
</g>
<g id="#6d788dff">
<path fill="#6d788d" opacity="1.00" d=" M 78.35 193.37 C 79.68 191.34 81.01 188.98 83.52 188.27 C 80.69 194.41 76.71 199.92 73.60 205.91 C 72.57 208.22 71.52 210.53 70.10 212.63 C 69.98 212.19 69.74 211.30 69.61 210.85 C 72.05 204.80 74.83 198.87 78.35 193.37 Z" />
</g>
<g id="#bcd3baff">
<path fill="#bcd3ba" opacity="1.00" d=" M 106.26 188.80 C 109.50 188.70 112.77 188.30 115.99 188.82 C 118.12 189.43 120.74 190.49 120.61 193.15 C 119.65 195.72 118.27 198.14 116.31 200.09 L 114.91 200.23 L 115.43 199.57 C 120.03 195.70 112.92 188.85 108.82 192.62 C 107.74 191.51 106.67 190.39 105.60 189.28 L 106.26 188.80 Z" />
</g>
<g id="#bdd2ccff">
<path fill="#bdd2cc" opacity="1.00" d=" M 121.58 199.88 C 123.56 196.45 124.85 192.68 125.61 188.80 C 126.23 191.53 126.89 194.25 127.36 197.02 C 125.48 198.06 123.56 199.04 121.58 199.88 Z" />
</g>
<g id="#d8e6dcff">
<path fill="#d8e6dc" opacity="1.00" d=" M 104.20 190.45 C 104.55 190.16 105.25 189.57 105.60 189.28 C 106.67 190.39 107.74 191.51 108.82 192.62 C 112.92 188.85 120.03 195.70 115.43 199.57 C 111.11 197.38 105.96 195.45 104.20 190.45 Z" />
</g>
<g id="#577d50ff">
<path fill="#577d50" opacity="1.00" d=" M 58.99 191.05 C 60.33 193.15 61.83 195.20 64.29 196.04 C 64.07 196.36 63.63 197.01 63.41 197.33 C 63.46 198.65 63.60 199.97 63.67 201.29 C 62.90 204.29 66.12 205.11 68.23 205.91 C 68.69 207.56 69.15 209.20 69.61 210.85 C 69.74 211.30 69.98 212.19 70.10 212.63 C 70.20 213.01 70.39 213.76 70.49 214.13 C 67.11 211.78 64.66 208.33 61.50 205.68 C 59.12 201.33 58.34 195.95 58.99 191.05 Z" />
</g>
<g id="#d4e2d6ff">
<path fill="#d4e2d6" opacity="1.00" d=" M 95.69 195.19 C 96.50 195.63 97.31 196.08 98.13 196.54 C 99.73 195.94 101.33 195.33 102.93 194.73 C 103.89 195.78 104.34 197.70 106.02 197.76 C 108.72 198.06 111.37 198.71 113.26 200.81 C 112.99 203.59 111.91 206.20 109.35 207.58 C 107.73 204.95 106.54 201.98 104.23 199.85 C 104.42 201.79 104.70 203.72 105.02 205.65 C 103.46 204.92 101.79 203.91 100.12 205.05 C 98.07 202.06 96.67 198.68 95.69 195.19 Z" />
</g>
<g id="#e4efecff">
<path fill="#e4efec" opacity="1.00" d=" M 75.73 208.01 C 77.11 202.78 81.35 197.48 87.05 197.04 C 85.52 198.66 83.87 200.16 82.12 201.53 C 85.24 200.81 89.19 202.62 89.62 205.98 C 89.83 209.97 85.14 210.36 82.70 212.36 C 80.92 210.97 78.99 209.77 76.81 209.11 C 76.54 208.84 76.00 208.29 75.73 208.01 Z" />
</g>
<g id="#e3ece9ff">
<path fill="#e3ece9" opacity="1.00" d=" M 104.23 199.85 C 106.54 201.98 107.73 204.95 109.35 207.58 L 108.65 207.95 C 106.95 208.73 105.16 209.29 103.38 209.83 C 102.29 208.24 101.19 206.65 100.12 205.05 C 101.79 203.91 103.46 204.92 105.02 205.65 C 104.70 203.72 104.42 201.79 104.23 199.85 Z" />
</g>
<g id="#aaba92ff">
<path fill="#aaba92" opacity="1.00" d=" M 113.26 200.81 C 113.67 200.67 114.50 200.38 114.91 200.23 L 116.31 200.09 C 114.37 201.91 113.32 205.41 115.63 207.38 C 113.73 209.58 111.17 211.03 108.66 212.42 C 108.50 210.93 108.50 209.44 108.65 207.95 L 109.35 207.58 C 111.91 206.20 112.99 203.59 113.26 200.81 Z" />
</g>
<g id="#b8ccccff">
<path fill="#b8cccc" opacity="1.00" d=" M 28.71 201.81 C 29.29 201.66 30.43 201.35 31.01 201.19 C 35.12 203.50 36.87 208.28 40.95 210.55 C 40.75 210.98 40.34 211.85 40.13 212.28 C 38.71 212.63 37.29 212.99 35.88 213.35 C 34.62 212.37 33.28 211.51 31.90 210.73 C 31.80 211.62 31.59 213.39 31.48 214.28 C 30.38 210.16 29.48 206.00 28.71 201.81 Z" />
</g>
<g id="#bbcfd7ff">
<path fill="#bbcfd7" opacity="1.00" d=" M 135.25 211.91 C 137.80 209.32 140.74 207.19 143.69 205.09 C 142.41 209.84 140.57 214.42 138.77 218.99 L 138.23 218.23 C 138.08 218.03 137.78 217.63 137.62 217.43 C 137.26 217.52 136.54 217.71 136.18 217.80 C 133.74 218.39 131.30 218.98 128.85 219.54 C 131.02 217.02 133.82 214.99 135.25 211.91 Z" />
</g>
<g id="#a9c3aeff">
<path fill="#a9c3ae" opacity="1.00" d=" M 76.81 209.11 C 78.99 209.77 80.92 210.97 82.70 212.36 C 85.69 214.08 89.47 213.16 92.56 214.79 C 92.63 215.16 92.78 215.89 92.86 216.26 C 91.69 216.43 90.51 216.60 89.34 216.78 C 85.91 217.00 83.11 219.32 79.73 219.79 C 81.05 218.79 82.40 217.79 83.56 216.60 C 84.12 215.30 82.58 214.54 81.92 213.71 C 80.11 212.30 78.28 210.89 76.81 209.11 Z" />
</g>
<g id="#cadfdbff">
<path fill="#cadfdb" opacity="1.00" d=" M 40.95 210.55 C 43.08 211.53 45.43 212.21 47.13 213.91 C 50.17 216.87 54.58 217.66 58.64 218.09 C 62.08 218.28 65.75 218.83 68.86 216.98 C 69.45 217.37 70.03 217.76 70.63 218.14 C 71.04 218.42 71.86 218.98 72.28 219.25 C 73.65 220.32 74.97 221.46 76.18 222.72 C 76.11 223.05 75.96 223.73 75.89 224.07 C 74.45 224.33 73.02 224.55 71.57 224.73 C 64.93 223.75 58.24 222.67 52.01 220.07 C 46.65 217.81 40.53 217.04 35.88 213.35 C 37.29 212.99 38.71 212.63 40.13 212.28 C 40.34 211.85 40.75 210.98 40.95 210.55 Z" />
</g>
<g id="#e5f2f5ff">
<path fill="#e5f2f5" opacity="1.00" d=" M 31.90 210.73 C 33.28 211.51 34.62 212.37 35.88 213.35 C 40.53 217.04 46.65 217.81 52.01 220.07 C 58.24 222.67 64.93 223.75 71.57 224.73 C 84.69 227.04 98.06 225.58 111.28 225.40 C 115.61 225.38 119.72 223.85 123.88 222.82 C 128.15 221.65 132.78 220.90 136.18 217.80 C 136.54 217.71 137.26 217.52 137.62 217.43 C 137.78 217.63 138.08 218.03 138.23 218.23 C 136.34 222.86 134.54 227.56 132.09 231.93 C 130.92 234.31 128.18 234.73 125.89 235.35 C 121.56 236.60 117.87 240.10 113.11 239.71 C 108.41 239.39 103.05 239.89 99.87 243.81 C 103.26 244.54 106.97 244.16 110.02 246.10 C 106.59 248.23 102.91 249.90 99.63 252.26 C 97.97 252.69 96.32 253.11 94.65 253.48 C 90.10 253.66 85.57 254.84 81.03 253.87 C 68.66 253.32 55.84 250.61 45.65 243.22 C 45.97 242.87 46.63 242.19 46.95 241.85 C 47.89 242.21 48.82 242.60 49.74 243.00 C 49.41 240.86 49.76 238.74 50.56 236.75 C 49.05 236.05 47.54 235.35 46.03 234.67 C 41.60 233.28 39.86 227.68 35.03 227.44 C 33.63 223.11 32.55 218.69 31.48 214.28 C 31.59 213.39 31.80 211.62 31.90 210.73 M 57.96 238.94 C 61.49 239.48 65.03 239.86 68.55 240.44 C 69.47 241.34 70.40 242.22 71.35 243.09 C 71.39 242.58 71.46 241.55 71.50 241.04 C 73.89 240.96 76.09 242.01 78.37 242.55 C 82.86 243.69 87.53 243.66 92.12 243.87 C 95.11 244.16 97.39 241.83 99.80 240.45 C 88.15 237.63 75.96 240.53 64.29 237.71 C 62.27 237.37 58.99 236.58 57.96 238.94 Z" />
</g>
<g id="#cae0e0ff">
<path fill="#cae0e0" opacity="1.00" d=" M 121.35 219.20 C 125.23 215.48 131.07 215.26 135.25 211.91 C 133.82 214.99 131.02 217.02 128.85 219.54 C 131.30 218.98 133.74 218.39 136.18 217.80 C 132.78 220.90 128.15 221.65 123.88 222.82 C 119.72 223.85 115.61 225.38 111.28 225.40 C 98.06 225.58 84.69 227.04 71.57 224.73 C 73.02 224.55 74.45 224.33 75.89 224.07 C 75.96 223.73 76.11 223.05 76.18 222.72 L 76.43 221.59 C 77.30 221.07 78.18 220.58 79.08 220.12 L 79.73 219.79 C 83.11 219.32 85.91 217.00 89.34 216.78 C 90.62 217.33 91.90 217.86 93.21 218.34 C 94.77 219.27 96.27 220.56 98.19 220.61 C 101.52 221.17 104.12 218.37 107.34 218.13 C 112.04 217.67 116.69 218.86 121.35 219.20 Z" />
</g>
<g id="#f3f9f2ff">
<path fill="#f3f9f2" opacity="1.00" d=" M 59.25 214.32 C 61.28 214.12 63.32 214.28 65.35 214.50 C 66.55 215.28 67.69 216.15 68.86 216.98 C 65.75 218.83 62.08 218.28 58.64 218.09 C 58.72 216.85 57.72 215.03 59.25 214.32 Z" />
</g>
<g id="#6e9767ff">
<path fill="#6e9767" opacity="1.00" d=" M 71.63 214.62 C 75.10 214.90 78.56 214.56 81.92 213.71 C 82.58 214.54 84.12 215.30 83.56 216.60 C 82.40 217.79 81.05 218.79 79.73 219.79 L 79.08 220.12 C 78.80 218.94 78.53 217.76 78.26 216.58 C 75.71 215.83 73.12 216.43 72.28 219.25 C 71.86 218.98 71.04 218.42 70.63 218.14 C 70.96 216.97 71.30 215.79 71.63 214.62 Z" />
</g>
<g id="#51783bff">
<path fill="#51783b" opacity="1.00" d=" M 72.28 219.25 C 73.12 216.43 75.71 215.83 78.26 216.58 C 78.53 217.76 78.80 218.94 79.08 220.12 C 78.18 220.58 77.30 221.07 76.43 221.59 L 76.18 222.72 C 74.97 221.46 73.65 220.32 72.28 219.25 Z" />
</g>
<g id="#979d9fdf">
<path fill="#979d9f" opacity="0.87" d=" M 132.09 231.93 C 134.54 227.56 136.34 222.86 138.23 218.23 L 138.77 218.99 C 137.11 223.99 134.79 228.79 132.65 233.62 C 130.70 237.49 129.21 242.03 125.39 244.50 C 122.73 246.37 119.91 248.00 117.00 249.43 C 111.27 251.31 105.45 252.80 99.60 254.23 C 97.96 253.92 96.31 253.66 94.65 253.48 C 96.32 253.11 97.97 252.69 99.63 252.26 C 108.09 251.09 116.80 249.10 123.76 243.87 C 126.71 241.82 129.35 238.98 130.01 235.33 C 128.64 235.30 127.26 235.30 125.89 235.35 C 128.18 234.73 130.92 234.31 132.09 231.93 Z" />
</g>
<g id="#cde1e1ff">
<path fill="#cde1e1" opacity="1.00" d=" M 35.03 227.44 C 39.86 227.68 41.60 233.28 46.03 234.67 C 42.11 235.73 45.93 239.73 46.95 241.85 C 46.63 242.19 45.97 242.87 45.65 243.22 C 42.46 240.51 38.21 237.43 37.90 233.01 C 37.65 233.06 37.15 233.14 36.90 233.18 L 36.20 232.83 C 35.94 231.00 35.53 229.21 35.03 227.44 Z" />
</g>
<g id="#2d2f3034">
<path fill="#2d2f30" opacity="0.20" d=" M 30.48 239.44 C 32.32 237.58 34.90 236.72 36.71 234.82 C 37.36 236.07 38.06 237.33 38.87 238.50 C 37.47 239.97 35.76 241.74 36.68 243.98 C 39.24 248.23 43.99 250.43 48.57 251.81 C 60.93 255.80 73.99 257.23 86.94 256.78 C 95.90 256.85 105.03 255.86 113.35 252.35 C 114.85 251.79 115.92 250.56 117.00 249.43 C 119.91 248.00 122.73 246.37 125.39 244.50 C 125.43 245.86 125.49 247.22 125.54 248.58 C 123.59 250.54 121.58 252.61 118.88 253.48 C 104.93 258.78 89.72 259.11 74.99 258.50 C 59.65 257.06 43.15 255.26 30.51 245.61 C 30.47 243.55 30.47 241.50 30.48 239.44 Z" />
</g>
<g id="#acc7cbff">
<path fill="#acc7cb" opacity="1.00" d=" M 46.95 241.85 C 45.93 239.73 42.11 235.73 46.03 234.67 C 47.54 235.35 49.05 236.05 50.56 236.75 C 49.76 238.74 49.41 240.86 49.74 243.00 C 48.82 242.60 47.89 242.21 46.95 241.85 Z" />
</g>
<g id="#cde5e1ff">
<path fill="#cde5e1" opacity="1.00" d=" M 113.11 239.71 C 117.87 240.10 121.56 236.60 125.89 235.35 C 127.26 235.30 128.64 235.30 130.01 235.33 C 129.35 238.98 126.71 241.82 123.76 243.87 C 116.80 249.10 108.09 251.09 99.63 252.26 C 102.91 249.90 106.59 248.23 110.02 246.10 C 106.97 244.16 103.26 244.54 99.87 243.81 C 103.05 239.89 108.41 239.39 113.11 239.71 Z" />
</g>
<g id="#545a5b67">
<path fill="#545a5b" opacity="0.40" d=" M 36.68 243.98 C 35.76 241.74 37.47 239.97 38.87 238.50 C 39.96 239.78 41.08 241.05 42.26 242.27 C 41.74 246.49 46.20 248.26 49.26 249.87 C 53.65 251.60 58.31 253.74 63.15 252.85 C 72.96 254.83 83.04 255.35 93.01 254.48 C 95.11 254.50 97.49 253.53 99.29 255.15 C 99.37 254.92 99.52 254.46 99.60 254.23 C 105.45 252.80 111.27 251.31 117.00 249.43 C 115.92 250.56 114.85 251.79 113.35 252.35 C 105.03 255.86 95.90 256.85 86.94 256.78 C 73.99 257.23 60.93 255.80 48.57 251.81 C 43.99 250.43 39.24 248.23 36.68 243.98 Z" />
</g>
<g id="#69727392">
<path fill="#697273" opacity="0.57" d=" M 42.26 242.27 C 48.19 247.58 55.74 250.32 63.15 252.85 C 58.31 253.74 53.65 251.60 49.26 249.87 C 46.20 248.26 41.74 246.49 42.26 242.27 Z" />
</g>
</svg>
