<svg id="Layer_1" data-name="Layer 1" xmlns="http://www.w3.org/2000/svg" viewBox="0 0 513.93 513.46"><title>Untitled-1</title><path d="M2472.22,2244.08c-38.2,4.3-78,18.4-108.9,38.5q-82.35,53.85-109.1,145.9c-11.7,40.3-13.1,85.9-4,127.9,15.2,69.8,62.2,132.8,125.6,168.3,26.2,14.7,59.7,25.8,90.4,30,18.2,2.4,56.8,2.5,71.8,0,36.5-5.9,64.9-15.9,92.8-32.4,81.1-48.2,127.4-129.6,127.4-223.9,0-50.5-14.3-98.2-41.8-139.4-11.6-17.4-20.1-27.8-33.7-41.6a254.15,254.15,0,0,0-148.4-72.4C2516.82,2242.88,2487,2242.38,2472.22,2244.08Zm57.2,40.5c97.6,12.5,174.9,90.3,187.3,188.4,3.2,25,1.3,55.7-5,80.7-15.1,59.8-56.6,111.4-112.3,139.7-86.4,43.7-188.2,26-255.5-44.4-33.3-34.7-53.5-78.9-58.8-128.5-1.6-14.8-.6-41.7,2-56.5,8.9-50,32.6-92.7,70-126.3a217.15,217.15,0,0,1,115.7-53.1C2486.82,2282.58,2514.42,2282.68,2529.42,2284.58Z" transform="translate(-2244.29 -2243.05)"/><path d="M2593.72,2343c-.3.9,1,4.6,3,8.4,2.8,5.3,3.5,7.9,3.5,12.2,0,5.3-3.3,15.4-5,15.4-.4,0-1.2-1.1-1.8-2.5-2.7-5.9-13.3-7.1-16.9-1.9-2,2.9-3,3.8-9,9-6.3,5.3-7.5,12-4.8,25.1l.7,3.1-4.3-1a44.13,44.13,0,0,0-10.5-.4l-6.1.6-5.2-7.9-5.3-8,1.2-11.5c1.9-18.5-.6-20.2-3.4-2.3-2.1,13.1-2,16.3.9,24.1,1.4,3.7,2.5,6.9,2.5,7.1,0,.8-8.2-3.5-10.2-5.2-.9-.9-3.5-7-5.8-13.7-4.3-12.8-5.5-15.5-6.6-14.4s5.4,28.7,7.6,31.8l2,2.9-2.8-.9c-5.1-1.4-7.3-3-16-11.9s-11.7-9.7-6.1-1.4c7.7,11.2,14.6,17,25.1,21.2,6.1,2.5,8.7,4.6,7.2,6.1-.5.4-15.4-1.7-34.4-5-58.4-10.2-81.8-12.4-125.5-12.3-29.8.2-46.2,1.3-49.5,3.3-2.5,1.5.5,5.6,8.2,11.3a255.05,255.05,0,0,0,39.1,23.7c23.2,11.1,37,14.5,58.7,14.5,16.2,0,13.2.9,34.1-10.2,6.7-3.5,6.7-3.5,36.9-6.5,16.7-1.6,30.6-2.6,31.1-2.1a42.66,42.66,0,0,1,3.4,6.6l2.5,5.8-2.2-.8a49.29,49.29,0,0,0-9.8-.8c-10,0-16.7,3.3-32,15.8-26.2,21.3-43.7,42.1-62.2,73.7-9,15.3-27.8,53.6-27.8,56.6,0,1.6,4.8-.5,30-13,42.4-21,68.5-39.7,91.8-65.9,23.8-26.8,28.6-37.4,23.8-52.4l-.7-2.2,5.8,2.5a41.43,41.43,0,0,1,6.7,3.4c.4.4.1,8.1-.8,17.2-.9,8.9-2,21.6-2.6,28.1-1.2,13.7-3.5,21.3-9.1,30.3-5.4,8.5-6.9,13.9-6.9,24.9,0,9.8,3.4,29.7,7.3,42,5,16.3,28.3,56.8,36.7,63.8,4.2,3.6,5.7,3.4,7-1,1.8-6.2,3.2-38.5,2.6-58.3-1.3-37.8-3.8-60.4-12.2-111-3-17.9-5.4-33.7-5.4-35.3,0-5.3,2.5-2.6,7.4,7.8s4.9,10.4,14.5,18c5.3,4.1,9.9,7.5,10.4,7.5,2.2,0-.2-3.3-7.4-10.2-6.1-5.8-8.5-8.8-10-12.8l-2-5.2,3.1,2.2c3.3,2.4,30.4,8.9,31.7,7.7s-1.3-2.4-14.9-6.9l-12.7-4.2-2.7-4.9c-1.4-2.6-2.4-5.1-2.1-5.4s4,.6,8.1,2c8.1,2.7,10.3,2.7,27.4-.4,11-2,8.4-3.1-6.5-2.7l-13.9.3-7.1-4.9-7.1-4.8.1-10.5c0-10.1.1-10.4,2.1-9.8a74.5,74.5,0,0,0,8.8,1.2c8.5.7,14.6-1.9,18.6-8.1,1.5-2.2,3.1-4.3,3.7-4.5a22.84,22.84,0,0,0,3.7-3.2c4.5-4.5,3.2-12.8-2.6-15.9-1.4-.7-2.6-1.6-2.6-1.9,0-.9,14.1-6.1,16.3-6.1.9,0,5.3,1.8,9.7,4s8.6,4,9.5,4c4.2,0-.7-4.3-9.7-8.5-7.3-3.4-13.1-3.3-22.1.6l-7.2,3-2.5-3.3a76.79,76.79,0,0,0-12.7-12.8l-3.2-2.5,2.9-7c3.8-9.2,3.8-14.7.1-22.8C2597.72,2344.78,2594.62,2340.78,2593.72,2343Z" transform="translate(-2244.29 -2243.05)"/></svg>