<svg id="Layer_1" data-name="Layer 1" xmlns="http://www.w3.org/2000/svg" viewBox="0 0 569.09 569.19"><defs><style>.cls-1{fill:#698dba;fill-rule:evenodd;}</style></defs><title>vmware</title><path class="cls-1" d="M1272.38,693a41.25,41.25,0,0,0-41.18,41.17V1038.9a41.22,41.22,0,0,0,41.18,41.22h304.79a41.21,41.21,0,0,0,41.19-41.22V734.16A41.25,41.25,0,0,0,1577.17,693Zm-18.08,345.9V734.16a18,18,0,0,1,18.06-18h304.81a18.05,18.05,0,0,1,18.07,18V1038.9a18.11,18.11,0,0,1-18.07,18.13H1272.38a18.1,18.1,0,0,1-18.08-18.14Z" transform="translate(-1140.23 -692.99)"/><path class="cls-1" d="M1363.37,784.09a41.14,41.14,0,0,0-41.09,41.08V1130a41.16,41.16,0,0,0,41.09,41.14h304.79a41.18,41.18,0,0,0,41.16-41.14V825.17a41.16,41.16,0,0,0-41.16-41.08ZM1345.31,1130V825.17a18,18,0,0,1,18-18h304.79a18,18,0,0,1,18,18V1130a18,18,0,0,1-18,18H1363.35a18,18,0,0,1-18-18v0Z" transform="translate(-1140.23 -692.99)"/><path class="cls-1" d="M1181.39,875.11a41.22,41.22,0,0,0-41.16,41.14V1221a41.13,41.13,0,0,0,41.09,41.14h304.83a41.17,41.17,0,0,0,41.17-41.14V916.25a41.24,41.24,0,0,0-41.17-41.14ZM1163.31,1221V916.23a18.08,18.08,0,0,1,18.09-18h304.76a18.09,18.09,0,0,1,18.08,18V1221a18.12,18.12,0,0,1-18.08,18.1H1181.39A18.1,18.1,0,0,1,1163.31,1221Z" transform="translate(-1140.23 -692.99)"/></svg>